<svg width="30" height="30" viewBox="0 0 30 30" fill="none" xmlns="http://www.w3.org/2000/svg">
<g id="vuesax/linear/award">
<g id="award">
<path id="Vector" d="M5.3252 13.775V19.9875C5.3252 22.2625 5.3252 22.2625 7.47519 23.7125L13.3877 27.125C14.2752 27.6375 15.7252 27.6375 16.6127 27.125L22.5252 23.7125C24.6752 22.2625 24.6752 22.2625 24.6752 19.9875V13.775C24.6752 11.5 24.6752 11.5 22.5252 10.05L16.6127 6.63755C15.7252 6.12505 14.2752 6.12505 13.3877 6.63755L7.47519 10.05C5.3252 11.5 5.3252 11.5 5.3252 13.775Z" stroke="white" stroke-width="1.5" stroke-linecap="round" stroke-linejoin="round"/>
<path id="Vector_2" d="M21.875 9.5375V6.25C21.875 3.75 20.625 2.5 18.125 2.5H11.875C9.375 2.5 8.125 3.75 8.125 6.25V9.45" stroke="white" stroke-width="1.5" stroke-linecap="round" stroke-linejoin="round"/>
<path id="Vector_3" d="M15.7877 13.7375L16.5002 14.85C16.6127 15.025 16.8627 15.2 17.0502 15.25L18.3252 15.575C19.1127 15.775 19.3252 16.45 18.8127 17.075L17.9752 18.0875C17.8502 18.25 17.7502 18.5375 17.7627 18.7375L17.8377 20.05C17.8877 20.8625 17.3127 21.275 16.5627 20.975L15.3377 20.4875C15.1502 20.4125 14.8377 20.4125 14.6502 20.4875L13.4252 20.975C12.6752 21.275 12.1002 20.85 12.1502 20.05L12.2252 18.7375C12.2377 18.5375 12.1377 18.2375 12.0127 18.0875L11.1752 17.075C10.6627 16.45 10.8752 15.775 11.6627 15.575L12.9377 15.25C13.1377 15.2 13.3877 15.0125 13.4877 14.85L14.2002 13.7375C14.6502 13.0625 15.3502 13.0625 15.7877 13.7375Z" stroke="white" stroke-width="1.5" stroke-linecap="round" stroke-linejoin="round"/>
</g>
</g>
</svg>
