<svg width="182" height="93" viewBox="0 0 182 93" fill="none" xmlns="http://www.w3.org/2000/svg">
<g clip-path="url(#clip0_552_188542)">
<path d="M145.108 33.1628C135.894 33.1628 128.403 25.7201 128.403 16.5649C128.436 7.44268 135.927 0 145.108 0C154.322 0 161.813 7.44269 161.813 16.5978C161.813 25.7201 154.322 33.1628 145.108 33.1628ZM145.108 0.329322C136.093 0.329322 128.735 7.64028 128.735 16.5978C128.735 25.5554 136.093 32.8664 145.108 32.8664C154.123 32.8664 161.481 25.5554 161.481 16.5978C161.481 7.60735 154.156 0.329322 145.108 0.329322Z" fill="#925AFF"/>
<path d="M150.776 35.4351C141.562 35.4351 134.071 27.9924 134.071 18.8372C134.071 9.68207 141.562 2.23938 150.776 2.23938C159.99 2.23938 167.481 9.68207 167.481 18.8372C167.481 28.0253 159.99 35.4351 150.776 35.4351ZM150.776 2.60163C141.761 2.60163 134.403 9.87966 134.403 18.8702C134.403 27.8277 141.761 35.1387 150.776 35.1387C159.791 35.1387 167.149 27.8277 167.149 18.8702C167.149 9.87966 159.824 2.60163 150.776 2.60163Z" fill="#925AFF"/>
<path d="M155.714 38.3661C146.5 38.3661 139.01 30.9234 139.01 21.7683C139.01 12.6131 146.5 5.17041 155.714 5.17041C164.929 5.17041 172.419 12.6131 172.419 21.7683C172.419 30.9234 164.929 38.3661 155.714 38.3661ZM155.714 5.49973C146.699 5.49973 139.341 12.8107 139.341 21.7683C139.341 30.7258 146.699 38.0368 155.714 38.0368C164.73 38.0368 172.088 30.7258 172.088 21.7683C172.088 12.7778 164.73 5.49973 155.714 5.49973Z" fill="#925AFF"/>
<path d="M159.924 41.791C150.71 41.791 143.22 34.3483 143.22 25.1932C143.22 16.038 150.71 8.59534 159.924 8.59534C169.139 8.59534 176.629 16.038 176.629 25.1932C176.629 34.3483 169.139 41.791 159.924 41.791ZM159.924 8.92466C150.909 8.92466 143.551 16.2356 143.551 25.1932C143.551 34.1508 150.909 41.4617 159.924 41.4617C168.94 41.4617 176.298 34.1508 176.298 25.1932C176.298 16.2356 168.973 8.92466 159.924 8.92466Z" fill="#925AFF"/>
<path d="M163.437 45.6769C154.223 45.6769 146.732 38.2342 146.732 29.079C146.732 19.9239 154.223 12.4812 163.437 12.4812C172.651 12.4812 180.142 19.9239 180.142 29.079C180.142 38.2342 172.651 45.6769 163.437 45.6769ZM163.437 12.8435C154.422 12.8435 147.064 20.1544 147.064 29.112C147.064 38.0695 154.422 45.3805 163.437 45.3805C172.452 45.3805 179.81 38.0695 179.81 29.112C179.844 20.1215 172.486 12.8435 163.437 12.8435Z" fill="#925AFF"/>
<path d="M166.288 49.9581C157.074 49.9581 149.583 42.5155 149.583 33.3603C149.583 24.2051 157.074 16.7625 166.288 16.7625C175.502 16.7625 182.992 24.2051 182.992 33.3603C182.959 42.5155 175.469 49.9581 166.288 49.9581ZM166.288 17.1247C157.272 17.1247 149.914 24.4357 149.914 33.3932C149.914 42.3508 157.272 49.6618 166.288 49.6618C175.303 49.6618 182.661 42.3508 182.661 33.3932C182.661 24.4027 175.303 17.1247 166.288 17.1247Z" fill="#925AFF"/>
<path d="M168.409 54.5358C159.195 54.5358 151.704 47.0931 151.704 37.9379C151.704 28.7828 159.195 21.3401 168.409 21.3401C177.623 21.3401 185.114 28.7828 185.114 37.9379C185.114 47.0931 177.623 54.5358 168.409 54.5358ZM168.409 21.6694C159.394 21.6694 152.036 28.9804 152.036 37.9379C152.036 46.8955 159.394 54.2065 168.409 54.2065C177.424 54.2065 184.782 46.8955 184.782 37.9379C184.782 28.9804 177.424 21.6694 168.409 21.6694Z" fill="#925AFF"/>
<path d="M169.867 59.3439C160.653 59.3439 153.162 51.9012 153.162 42.746C153.162 33.5909 160.653 26.1482 169.867 26.1482C179.081 26.1482 186.572 33.5909 186.572 42.746C186.572 51.9012 179.081 59.3439 169.867 59.3439ZM169.867 26.4775C160.852 26.4775 153.494 33.7885 153.494 42.746C153.494 51.7036 160.852 59.0146 169.867 59.0146C178.882 59.0146 186.24 51.7036 186.24 42.746C186.24 33.7885 178.882 26.4775 169.867 26.4775Z" fill="#925AFF"/>
<path d="M170.663 64.2509C161.449 64.2509 153.958 56.8082 153.958 47.653C153.958 38.4979 161.449 31.0552 170.663 31.0552C179.877 31.0552 187.367 38.4979 187.367 47.653C187.334 56.8082 179.877 64.2509 170.663 64.2509ZM170.663 31.3845C161.647 31.3845 154.289 38.6955 154.289 47.653C154.289 56.6106 161.647 63.9216 170.663 63.9216C179.678 63.9216 187.036 56.6106 187.036 47.653C187.036 38.6955 179.678 31.3845 170.663 31.3845Z" fill="#925AFF"/>
<path d="M170.796 69.2235C161.581 69.2235 154.091 61.7808 154.091 52.6257C154.091 43.4705 161.581 36.0278 170.796 36.0278C180.01 36.0278 187.5 43.4705 187.5 52.6257C187.5 61.7808 180.01 69.2235 170.796 69.2235ZM170.796 36.3572C161.78 36.3572 154.422 43.6681 154.422 52.6257C154.422 61.5832 161.78 68.8942 170.796 68.8942C179.811 68.8942 187.169 61.5832 187.169 52.6257C187.169 43.6681 179.811 36.3572 170.796 36.3572Z" fill="#925AFF"/>
<path d="M170.265 74.1635C161.051 74.1635 153.561 66.7208 153.561 57.5656C153.561 48.4105 161.051 40.9678 170.265 40.9678C179.479 40.9678 186.97 48.4105 186.97 57.5656C186.97 66.7208 179.479 74.1635 170.265 74.1635ZM170.265 41.2971C161.25 41.2971 153.892 48.6081 153.892 57.5656C153.892 66.5232 161.25 73.8341 170.265 73.8341C179.281 73.8341 186.639 66.5232 186.639 57.5656C186.672 48.6081 179.314 41.2971 170.265 41.2971Z" fill="#925AFF"/>
<path d="M169.138 79.0045C159.924 79.0045 152.434 71.5618 152.434 62.4067C152.434 53.2515 159.924 45.8088 169.138 45.8088C178.352 45.8088 185.843 53.2515 185.843 62.4067C185.81 71.5618 178.319 79.0045 169.138 79.0045ZM169.138 46.1382C160.123 46.1382 152.765 53.4491 152.765 62.4067C152.765 71.3643 160.123 78.6752 169.138 78.6752C178.154 78.6752 185.512 71.3643 185.512 62.4067C185.512 53.4491 178.154 46.1382 169.138 46.1382Z" fill="#925AFF"/>
<path d="M167.348 83.6478C158.134 83.6478 150.644 76.2052 150.644 67.05C150.644 57.8948 158.134 50.4521 167.348 50.4521C176.562 50.4521 184.053 57.8948 184.053 67.05C184.053 76.2052 176.562 83.6478 167.348 83.6478ZM167.348 50.7815C158.333 50.7815 150.975 58.0924 150.975 67.05C150.975 76.0076 158.333 83.3185 167.348 83.3185C176.364 83.3185 183.722 76.0076 183.722 67.05C183.722 58.0924 176.397 50.7815 167.348 50.7815Z" fill="#925AFF"/>
<path d="M164.962 87.995C155.747 87.995 148.257 80.5523 148.257 71.3972C148.257 62.242 155.747 54.7993 164.962 54.7993C174.176 54.7993 181.666 62.242 181.666 71.3972C181.666 80.5523 174.176 87.995 164.962 87.995ZM164.962 55.1286C155.946 55.1286 148.588 62.4396 148.588 71.3972C148.588 80.3547 155.946 87.6657 164.962 87.6657C173.977 87.6657 181.335 80.3547 181.335 71.3972C181.335 62.4396 173.977 55.1286 164.962 55.1286Z" fill="#925AFF"/>
<path d="M161.946 92.0126C152.732 92.0126 145.241 84.5699 145.241 75.4147C145.241 66.2596 152.732 58.8169 161.946 58.8169C171.16 58.8169 178.651 66.2596 178.651 75.4147C178.651 84.5699 171.16 92.0126 161.946 92.0126ZM161.946 59.1462C152.931 59.1462 145.573 66.4572 145.573 75.4147C145.573 84.3723 152.931 91.6833 161.946 91.6833C170.961 91.6833 178.319 84.3723 178.319 75.4147C178.319 66.4572 170.994 59.1462 161.946 59.1462Z" fill="#925AFF"/>
<path d="M158.366 95.5692C149.152 95.5692 141.661 88.1265 141.661 78.9714C141.661 69.8162 149.152 62.3735 158.366 62.3735C167.58 62.3735 175.071 69.8162 175.071 78.9714C175.037 88.1265 167.547 95.5692 158.366 95.5692ZM158.366 62.7029C149.351 62.7029 141.993 70.0138 141.993 78.9714C141.993 87.929 149.351 95.2399 158.366 95.2399C167.381 95.2399 174.739 87.929 174.739 78.9714C174.739 70.0138 167.381 62.7029 158.366 62.7029Z" fill="#925AFF"/>
<path d="M154.157 98.632C144.943 98.632 137.452 91.1893 137.452 82.0341C137.452 72.879 144.943 65.4363 154.157 65.4363C163.371 65.4363 170.862 72.879 170.862 82.0341C170.862 91.1893 163.371 98.632 154.157 98.632ZM154.157 65.7656C145.142 65.7656 137.784 73.0766 137.784 82.0341C137.784 90.9917 145.142 98.3027 154.157 98.3027C163.172 98.3027 170.53 90.9917 170.53 82.0341C170.53 73.0766 163.205 65.7656 154.157 65.7656Z" fill="#925AFF"/>
<path d="M149.418 101.069C140.203 101.069 132.713 93.6263 132.713 84.4711C132.713 75.316 140.203 67.8733 149.418 67.8733C158.632 67.8733 166.122 75.316 166.122 84.4711C166.089 93.6263 158.599 101.069 149.418 101.069ZM149.418 68.2026C140.402 68.2026 133.044 75.5136 133.044 84.4711C133.044 93.4287 140.402 100.74 149.418 100.74C158.433 100.74 165.791 93.4287 165.791 84.4711C165.791 75.5136 158.433 68.2026 149.418 68.2026Z" fill="#925AFF"/>
<path d="M144.081 102.847C134.867 102.847 127.376 95.4046 127.376 86.2495C127.376 77.0943 134.867 69.6516 144.081 69.6516C153.295 69.6516 160.785 77.0943 160.785 86.2495C160.752 95.4046 153.262 102.847 144.081 102.847ZM144.081 69.9809C135.065 69.9809 127.707 77.2919 127.707 86.2495C127.707 95.207 135.065 102.518 144.081 102.518C153.096 102.518 160.454 95.207 160.454 86.2495C160.454 77.259 153.096 69.9809 144.081 69.9809Z" fill="#925AFF"/>
<path d="M138.181 103.835C128.967 103.835 121.477 96.3927 121.477 87.2375C121.477 78.0823 128.967 70.6396 138.181 70.6396C147.395 70.6396 154.886 78.0823 154.886 87.2375C154.853 96.3927 147.362 103.835 138.181 103.835ZM138.181 70.969C129.166 70.969 121.808 78.2799 121.808 87.2375C121.808 96.1951 129.166 103.506 138.181 103.506C147.197 103.506 154.555 96.1951 154.555 87.2375C154.555 78.2799 147.197 70.969 138.181 70.969Z" fill="#925AFF"/>
<path d="M131.586 103.967C122.371 103.967 114.881 96.5245 114.881 87.3693C114.881 78.2142 122.371 70.7715 131.586 70.7715C140.8 70.7715 148.29 78.2142 148.29 87.3693C148.257 96.5245 140.767 103.967 131.586 103.967ZM131.586 71.1337C122.57 71.1337 115.212 78.4447 115.212 87.4023C115.212 96.3598 122.57 103.671 131.586 103.671C140.601 103.671 147.959 96.3598 147.959 87.4023C147.959 78.4118 140.601 71.1337 131.586 71.1337Z" fill="#925AFF"/>
<path d="M125.089 103.243C115.875 103.243 108.385 95.7999 108.385 86.6447C108.385 77.4896 115.875 70.0469 125.089 70.0469C134.304 70.0469 141.794 77.4896 141.794 86.6447C141.761 95.7999 134.27 103.243 125.089 103.243ZM125.089 70.3762C116.074 70.3762 108.716 77.6872 108.716 86.6447C108.716 95.6023 116.074 102.913 125.089 102.913C134.105 102.913 141.463 95.6023 141.463 86.6447C141.463 77.6872 134.105 70.3762 125.089 70.3762Z" fill="#925AFF"/>
<path d="M119.455 101.695C110.241 101.695 102.75 94.252 102.75 85.0969C102.75 75.9417 110.241 68.499 119.455 68.499C128.669 68.499 136.159 75.9417 136.159 85.0969C136.126 94.252 128.636 101.695 119.455 101.695ZM119.455 68.8283C110.439 68.8283 103.081 76.1393 103.081 85.0969C103.081 94.0544 110.439 101.365 119.455 101.365C128.47 101.365 135.828 94.0544 135.828 85.0969C135.828 76.1064 128.47 68.8283 119.455 68.8283Z" fill="#925AFF"/>
<path d="M114.583 99.3895C105.369 99.3895 97.8779 91.9469 97.8779 82.7917C97.8779 73.6365 105.369 66.1938 114.583 66.1938C123.797 66.1938 131.287 73.6365 131.287 82.7917C131.287 91.9469 123.797 99.3895 114.583 99.3895ZM114.583 66.5232C105.567 66.5232 98.2094 73.8341 98.2094 82.7917C98.2094 91.7493 105.567 99.0602 114.583 99.0602C123.598 99.0602 130.956 91.7493 130.956 82.7917C130.956 73.8341 123.631 66.5232 114.583 66.5232Z" fill="#925AFF"/>
<path d="M110.407 96.4586C101.193 96.4586 93.7021 89.0159 93.7021 79.8608C93.7021 70.7056 101.193 63.2629 110.407 63.2629C119.621 63.2629 127.112 70.7056 127.112 79.8608C127.112 89.0159 119.621 96.4586 110.407 96.4586ZM110.407 63.6252C101.392 63.6252 94.0336 70.9362 94.0336 79.8937C94.0336 88.8513 101.392 96.1622 110.407 96.1622C119.422 96.1622 126.78 88.8513 126.78 79.8937C126.78 70.9032 119.422 63.6252 110.407 63.6252Z" fill="#925AFF"/>
<path d="M106.827 93.0006C97.6127 93.0006 90.1221 85.5579 90.1221 76.4028C90.1221 67.2476 97.6127 59.8049 106.827 59.8049C116.041 59.8049 123.532 67.2476 123.532 76.4028C123.498 85.5579 116.008 93.0006 106.827 93.0006ZM106.827 60.1343C97.8115 60.1343 90.4535 67.4452 90.4535 76.4028C90.4535 85.3603 97.8115 92.6713 106.827 92.6713C115.842 92.6713 123.2 85.3603 123.2 76.4028C123.2 67.4123 115.842 60.1343 106.827 60.1343Z" fill="#925AFF"/>
<path d="M103.745 89.0487C94.5306 89.0487 87.04 81.606 87.04 72.4509C87.04 63.2957 94.5306 55.853 103.745 55.853C112.959 55.853 120.449 63.2957 120.449 72.4509C120.416 81.606 112.926 89.0487 103.745 89.0487ZM103.745 56.1823C94.7295 56.1823 87.3715 63.4933 87.3715 72.4509C87.3715 81.4084 94.7295 88.7194 103.745 88.7194C112.76 88.7194 120.118 81.4084 120.118 72.4509C120.118 63.4604 112.76 56.1823 103.745 56.1823Z" fill="#925AFF"/>
<path d="M101.06 84.7018C91.8461 84.7018 84.3555 77.2591 84.3555 68.104C84.3555 58.9488 91.8461 51.5061 101.06 51.5061C110.274 51.5061 117.765 58.9488 117.765 68.104C117.765 77.2591 110.274 84.7018 101.06 84.7018ZM101.06 51.8354C92.0449 51.8354 84.6869 59.1464 84.6869 68.104C84.6869 77.0615 92.0449 84.3725 101.06 84.3725C110.075 84.3725 117.433 77.0615 117.433 68.104C117.433 59.1464 110.109 51.8354 101.06 51.8354Z" fill="#925AFF"/>
<path d="M98.7399 80.0912C89.5258 80.0912 82.0352 72.6485 82.0352 63.4934C82.0352 54.3382 89.5258 46.8955 98.7399 46.8955C107.954 46.8955 115.445 54.3382 115.445 63.4934C115.411 72.6485 107.921 80.0912 98.7399 80.0912ZM98.7399 47.2248C89.7246 47.2248 82.3666 54.5358 82.3666 63.4934C82.3666 72.4509 89.7246 79.7619 98.7399 79.7619C107.755 79.7619 115.113 72.4509 115.113 63.4934C115.113 54.5358 107.755 47.2248 98.7399 47.2248Z" fill="#925AFF"/>
<path d="M96.6188 75.2501C87.4047 75.2501 79.9141 67.8075 79.9141 58.6523C79.9141 49.4971 87.4047 42.0544 96.6188 42.0544C105.833 42.0544 113.323 49.4971 113.323 58.6523C113.323 67.8075 105.833 75.2501 96.6188 75.2501ZM96.6188 42.3838C87.6035 42.3838 80.2455 49.6947 80.2455 58.6523C80.2455 67.6099 87.6035 74.9208 96.6188 74.9208C105.634 74.9208 112.992 67.6099 112.992 58.6523C113.025 49.6947 105.667 42.3838 96.6188 42.3838Z" fill="#925AFF"/>
<path d="M94.6959 70.3104C85.4818 70.3104 77.9912 62.8678 77.9912 53.7126C77.9912 44.5574 85.4818 37.1147 94.6959 37.1147C103.91 37.1147 111.401 44.5574 111.401 53.7126C111.367 62.8678 103.877 70.3104 94.6959 70.3104ZM94.6959 37.4441C85.6807 37.4441 78.3227 44.755 78.3227 53.7126C78.3227 62.6702 85.6807 69.9811 94.6959 69.9811C103.711 69.9811 111.069 62.6702 111.069 53.7126C111.069 44.755 103.711 37.4441 94.6959 37.4441Z" fill="#925AFF"/>
<path d="M92.8073 65.3375C83.5931 65.3375 76.1025 57.8949 76.1025 48.7397C76.1025 39.5845 83.5931 32.1418 92.8073 32.1418C102.021 32.1418 109.512 39.5845 109.512 48.7397C109.479 57.8949 101.988 65.3375 92.8073 65.3375ZM92.8073 32.4712C83.792 32.4712 76.434 39.7821 76.434 48.7397C76.434 57.6973 83.792 65.0082 92.8073 65.0082C101.822 65.0082 109.181 57.6973 109.181 48.7397C109.181 39.7821 101.822 32.4712 92.8073 32.4712Z" fill="#925AFF"/>
<path d="M90.8844 60.4306C81.6703 60.4306 74.1797 52.9879 74.1797 43.8327C74.1797 34.6776 81.6703 27.2349 90.8844 27.2349C100.099 27.2349 107.589 34.6776 107.589 43.8327C107.556 52.9879 100.065 60.4306 90.8844 60.4306ZM90.8844 27.5642C81.8692 27.5642 74.5111 34.8751 74.5111 43.8327C74.5111 52.7903 81.8692 60.1012 90.8844 60.1012C99.8996 60.1012 107.258 52.7903 107.258 43.8327C107.258 34.8751 99.8996 27.5642 90.8844 27.5642Z" fill="#925AFF"/>
<path d="M88.8297 55.6554C79.6156 55.6554 72.125 48.2127 72.125 39.0576C72.125 29.9024 79.6156 22.4597 88.8297 22.4597C98.0438 22.4597 105.534 29.9024 105.534 39.0576C105.534 48.2127 98.0438 55.6554 88.8297 55.6554ZM88.8297 22.789C79.8145 22.789 72.4564 30.1 72.4564 39.0576C72.4564 48.0151 79.8145 55.3261 88.8297 55.3261C97.845 55.3261 105.203 48.0151 105.203 39.0576C105.236 30.1 97.8781 22.789 88.8297 22.789Z" fill="#925AFF"/>
<path d="M86.609 51.1107C77.3949 51.1107 69.9043 43.668 69.9043 34.5129C69.9043 25.3577 77.3949 17.915 86.609 17.915C95.8231 17.915 103.314 25.3577 103.314 34.5129C103.314 43.668 95.8231 51.1107 86.609 51.1107ZM86.609 18.2444C77.5938 18.2444 70.2357 25.5553 70.2357 34.5129C70.2357 43.4705 77.5938 50.7814 86.609 50.7814C95.6243 50.7814 102.982 43.4705 102.982 34.5129C102.982 25.5553 95.6243 18.2444 86.609 18.2444Z" fill="#925AFF"/>
<path d="M84.0895 46.8954C74.8754 46.8954 67.3848 39.4527 67.3848 30.2976C67.3848 21.1424 74.8754 13.6997 84.0895 13.6997C93.3036 13.6997 100.794 21.1424 100.794 30.2976C100.761 39.4527 93.2704 46.8954 84.0895 46.8954ZM84.0895 14.029C75.0742 14.029 67.7162 21.34 67.7162 30.2976C67.7162 39.2551 75.0742 46.5661 84.0895 46.5661C93.1047 46.5661 100.463 39.2551 100.463 30.2976C100.463 21.34 93.1047 14.029 84.0895 14.029Z" fill="#925AFF"/>
<path d="M81.1735 43.0753C71.9594 43.0753 64.4688 35.6327 64.4688 26.4775C64.4688 17.3223 71.9594 9.87964 81.1735 9.87964C90.3876 9.87964 97.8782 17.3223 97.8782 26.4775C97.845 35.6327 90.3876 43.0753 81.1735 43.0753ZM81.1735 10.209C72.1251 10.209 64.8002 17.5199 64.8002 26.4775C64.8002 35.4351 72.1582 42.746 81.1735 42.746C90.1887 42.746 97.5467 35.4351 97.5467 26.4775C97.5467 17.5199 90.1887 10.209 81.1735 10.209Z" fill="#925AFF"/>
<path d="M77.7926 39.7492C68.5785 39.7492 61.0879 32.3065 61.0879 23.1513C61.0879 13.9962 68.5785 6.55347 77.7926 6.55347C87.0067 6.55347 94.4973 13.9962 94.4973 23.1513C94.4642 32.3065 86.9736 39.7492 77.7926 39.7492ZM77.7926 6.88279C68.7774 6.88279 61.4193 14.1937 61.4193 23.1513C61.4193 32.1089 68.7774 39.4198 77.7926 39.4198C86.8078 39.4198 94.1659 32.1089 94.1659 23.1513C94.1659 14.1937 86.8078 6.88279 77.7926 6.88279Z" fill="#925AFF"/>
<path d="M73.8483 37.0159C64.6342 37.0159 57.1436 29.5732 57.1436 20.418C57.1436 11.2629 64.6342 3.82019 73.8483 3.82019C83.0624 3.82019 90.553 11.2629 90.553 20.418C90.5198 29.5732 83.0292 37.0159 73.8483 37.0159ZM73.8483 4.14951C64.833 4.14951 57.475 11.4605 57.475 20.418C57.475 29.3756 64.833 36.6866 73.8483 36.6866C82.8635 36.6866 90.2215 29.3756 90.2215 20.418C90.2215 11.4605 82.8635 4.14951 73.8483 4.14951Z" fill="#925AFF"/>
<path d="M69.2408 34.9411C60.0267 34.9411 52.5361 27.4984 52.5361 18.3432C52.5361 9.18805 60.0267 1.74536 69.2408 1.74536C78.455 1.74536 85.9456 9.18805 85.9456 18.3432C85.9456 27.4984 78.455 34.9411 69.2408 34.9411ZM69.2408 2.10762C60.2256 2.10762 52.8676 9.41857 52.8676 18.3761C52.8676 27.3337 60.2256 34.6447 69.2408 34.6447C78.2561 34.6447 85.6141 27.3337 85.6141 18.3761C85.6141 9.38564 78.2892 2.10762 69.2408 2.10762Z" fill="#925AFF"/>
<path d="M63.9381 33.6568C54.724 33.6568 47.2334 26.2141 47.2334 17.0589C47.2334 7.90374 54.724 0.46106 63.9381 0.46106C73.1522 0.46106 80.6428 7.90374 80.6428 17.0589C80.6097 26.2141 73.1191 33.6568 63.9381 33.6568ZM63.9381 0.790382C54.9229 0.790382 47.5648 8.10134 47.5648 17.0589C47.5648 26.0165 54.9229 33.3274 63.9381 33.3274C72.9534 33.3274 80.3114 26.0165 80.3114 17.0589C80.3114 8.06841 72.9534 0.790382 63.9381 0.790382Z" fill="#925AFF"/>
<path d="M57.7731 33.1628C48.559 33.1628 41.0684 25.7201 41.0684 16.5649C41.0684 7.44268 48.559 0 57.7731 0C66.9872 0 74.4778 7.44269 74.4778 16.5978C74.4778 25.7201 66.9872 33.1628 57.7731 33.1628ZM57.7731 0.329322C48.7578 0.329322 41.3998 7.64028 41.3998 16.5978C41.3998 25.5554 48.7578 32.8664 57.7731 32.8664C66.7883 32.8664 74.1463 25.5554 74.1463 16.5978C74.1463 7.60735 66.7883 0.329322 57.7731 0.329322Z" fill="#925AFF"/>
<path d="M51.9401 33.525C42.726 33.525 35.2354 26.0824 35.2354 16.9272C35.2354 7.77203 42.726 0.329346 51.9401 0.329346C61.1542 0.329346 68.6448 7.77203 68.6448 16.9272C68.6448 26.0824 61.1542 33.525 51.9401 33.525ZM51.9401 0.6916C42.9248 0.6916 35.5668 8.00256 35.5668 16.9601C35.5668 25.9177 42.9248 33.2287 51.9401 33.2287C60.9553 33.2287 68.3133 25.9177 68.3133 16.9601C68.3133 7.96963 60.9553 0.6916 51.9401 0.6916Z" fill="#925AFF"/>
<path d="M46.4381 34.6118C37.224 34.6118 29.7334 27.1691 29.7334 18.014C29.7334 8.85882 37.224 1.41614 46.4381 1.41614C55.6522 1.41614 63.1428 8.85882 63.1428 18.014C63.1428 27.1691 55.6522 34.6118 46.4381 34.6118ZM46.4381 1.74546C37.4229 1.74546 30.0648 9.05642 30.0648 18.014C30.0648 26.9716 37.4229 34.2825 46.4381 34.2825C55.4534 34.2825 62.8114 26.9716 62.8114 18.014C62.8114 9.05642 55.4865 1.74546 46.4381 1.74546Z" fill="#925AFF"/>
<path d="M41.3336 36.3242C32.1195 36.3242 24.6289 28.8816 24.6289 19.7264C24.6289 10.5712 32.1195 3.12854 41.3336 3.12854C50.5477 3.12854 58.0383 10.5712 58.0383 19.7264C58.0052 28.8816 50.5146 36.3242 41.3336 36.3242ZM41.3336 3.45786C32.3184 3.45786 24.9603 10.7688 24.9603 19.7264C24.9603 28.684 32.3184 35.9949 41.3336 35.9949C50.3489 35.9949 57.7069 28.684 57.7069 19.7264C57.7069 10.7359 50.3489 3.45786 41.3336 3.45786Z" fill="#925AFF"/>
<path d="M36.5944 38.5966C27.3803 38.5966 19.8896 31.1539 19.8896 21.9987C19.8896 12.8436 27.3803 5.40088 36.5944 5.40088C45.8085 5.40088 53.2991 12.8436 53.2991 21.9987C53.2991 31.1539 45.8085 38.5966 36.5944 38.5966ZM36.5944 5.7302C27.5791 5.7302 20.2211 13.0412 20.2211 21.9987C20.2211 30.9563 27.5791 38.2673 36.5944 38.2673C45.6096 38.2673 52.9676 30.9563 52.9676 21.9987C52.9676 13.0412 45.6096 5.7302 36.5944 5.7302Z" fill="#925AFF"/>
<path d="M32.2858 41.4287C23.0717 41.4287 15.5811 33.986 15.5811 24.8309C15.6142 15.6757 23.1048 8.23303 32.2858 8.23303C41.4999 8.23303 48.9905 15.6757 48.9905 24.8309C48.9905 33.986 41.4999 41.4287 32.2858 41.4287ZM32.2858 8.56235C23.2705 8.56235 15.9125 15.8733 15.9125 24.8309C15.9125 33.7885 23.2705 41.0994 32.2858 41.0994C41.301 41.0994 48.659 33.7885 48.659 24.8309C48.6922 15.8733 41.3342 8.56235 32.2858 8.56235Z" fill="#925AFF"/>
<path d="M28.4742 44.6891C19.2601 44.6891 11.7695 37.2464 11.7695 28.0913C11.7695 18.9691 19.2601 11.5264 28.4742 11.5264C37.6884 11.5264 45.179 18.9691 45.179 28.1242C45.179 37.2464 37.6884 44.6891 28.4742 44.6891ZM28.4742 11.8228C19.4259 11.8228 12.101 19.1337 12.101 28.0913C12.101 37.0488 19.459 44.3598 28.4742 44.3598C37.4895 44.3598 44.8475 37.0488 44.8475 28.0913C44.8475 19.1337 37.4895 11.8228 28.4742 11.8228Z" fill="#925AFF"/>
<path d="M25.1598 48.3446C15.9457 48.3446 8.45508 40.9019 8.45508 31.7468C8.45508 22.5916 15.9457 15.1489 25.1598 15.1489C34.3739 15.1489 41.8645 22.5916 41.8645 31.7468C41.8314 40.9019 34.3408 48.3446 25.1598 48.3446ZM25.1598 15.5112C16.1445 15.5112 8.78652 22.8221 8.78652 31.7797C8.78652 40.7373 16.1445 48.0482 25.1598 48.0482C34.175 48.0482 41.5331 40.7373 41.5331 31.7797C41.5331 22.7892 34.175 15.5112 25.1598 15.5112Z" fill="#925AFF"/>
<path d="M22.3424 52.3622C13.1283 52.3622 5.6377 44.9195 5.6377 35.7644C5.6377 26.6092 13.1283 19.1665 22.3424 19.1665C31.5565 19.1665 39.0471 26.6092 39.0471 35.7644C39.0471 44.9195 31.5565 52.3622 22.3424 52.3622ZM22.3424 19.4958C13.3272 19.4958 5.96914 26.8068 5.96914 35.7644C5.96914 44.7219 13.3272 52.0329 22.3424 52.0329C31.3577 52.0329 38.7157 44.7219 38.7157 35.7644C38.7157 26.8068 31.3908 19.4958 22.3424 19.4958Z" fill="#925AFF"/>
<path d="M20.1217 56.6435C10.9076 56.6435 3.41699 49.2008 3.41699 40.0456C3.41699 30.8904 10.9076 23.4478 20.1217 23.4478C29.3358 23.4478 36.8264 30.8904 36.8264 40.0456C36.8264 49.2008 29.3358 56.6435 20.1217 56.6435ZM20.1217 23.7771C11.1065 23.7771 3.74843 31.088 3.74843 40.0456C3.74843 49.0361 11.1065 56.3141 20.1217 56.3141C29.1369 56.3141 36.495 49.0032 36.495 40.0456C36.495 31.088 29.1701 23.7771 20.1217 23.7771Z" fill="#925AFF"/>
<path d="M18.4977 61.1222C9.28363 61.1222 1.82617 53.6795 1.82617 44.5244C1.82617 35.3692 9.31678 27.9265 18.5309 27.9265C27.745 27.9265 35.2356 35.3692 35.2356 44.5244C35.2025 53.6795 27.7118 61.1222 18.4977 61.1222ZM18.4977 28.2558C9.4825 28.2558 2.12447 35.5668 2.12447 44.5244C2.12447 53.4819 9.4825 60.7929 18.4977 60.7929C27.513 60.7929 34.871 53.4819 34.871 44.5244C34.871 35.5668 27.5461 28.2558 18.4977 28.2558Z" fill="#925AFF"/>
<path d="M17.5026 65.7658C8.32166 65.7658 0.831055 58.3231 0.831055 49.1679C0.831055 40.0128 8.32166 32.5701 17.5358 32.5701C26.7499 32.5701 34.2405 40.0128 34.2405 49.1679C34.2073 58.3231 26.7167 65.7658 17.5026 65.7658ZM17.5026 32.8994C8.48738 32.8994 1.12935 40.2103 1.12935 49.1679C1.12935 58.1255 8.48738 65.4364 17.5026 65.4364C26.5179 65.4364 33.8759 58.1255 33.8759 49.1679C33.8759 40.2103 26.551 32.8994 17.5026 32.8994Z" fill="#925AFF"/>
<path d="M17.2047 70.475C7.99061 70.475 0.5 63.0323 0.5 53.9101C0.5 44.7549 7.99061 37.3123 17.2047 37.3123C26.4188 37.3123 33.9094 44.7549 33.9094 53.9101C33.8763 63.0323 26.3857 70.475 17.2047 70.475ZM17.2047 37.6086C8.15633 37.6086 0.831443 44.9196 0.831443 53.9101C0.831443 62.8677 8.18947 70.1786 17.2047 70.1786C26.22 70.1786 33.578 62.8677 33.578 53.9101C33.578 44.9196 26.22 37.6086 17.2047 37.6086Z" fill="#925AFF"/>
<path d="M17.569 75.2172C8.35486 75.2172 0.864258 67.7745 0.864258 58.6193C0.864258 49.4642 8.35486 42.0215 17.569 42.0215C26.7831 42.0215 34.2737 49.4642 34.2737 58.6193C34.2737 67.7745 26.7831 75.2172 17.569 75.2172ZM17.569 42.3837C8.55373 42.3837 1.1957 49.6947 1.1957 58.6523C1.1957 67.6098 8.55373 74.9208 17.569 74.9208C26.5842 74.9208 33.9422 67.6098 33.9422 58.6523C33.9422 49.6618 26.6174 42.3837 17.569 42.3837Z" fill="#925AFF"/>
<path d="M18.6959 79.9594C9.48182 79.9594 1.99121 72.5167 1.99121 63.3615C1.99121 54.2064 9.48182 46.7637 18.6959 46.7637C27.91 46.7637 35.4006 54.2064 35.4006 63.3615C35.4006 72.5167 27.91 79.9594 18.6959 79.9594ZM18.6959 47.093C9.68068 47.093 2.32265 54.4039 2.32265 63.3615C2.32265 72.3191 9.68068 79.63 18.6959 79.63C27.7112 79.63 35.0692 72.3191 35.0692 63.3615C35.0692 54.371 27.7112 47.093 18.6959 47.093Z" fill="#925AFF"/>
<path d="M20.5856 84.57C11.3715 84.57 3.88086 77.1273 3.88086 67.9721C3.88086 58.817 11.3715 51.3743 20.5856 51.3743C29.7997 51.3743 37.2903 58.817 37.2903 67.9721C37.2903 77.1273 29.7997 84.57 20.5856 84.57ZM20.5856 51.7036C11.5703 51.7036 4.2123 59.0145 4.2123 67.9721C4.2123 76.9297 11.5703 84.2406 20.5856 84.2406C29.6008 84.2406 36.9588 76.9297 36.9588 67.9721C36.9588 59.0145 29.6008 51.7036 20.5856 51.7036Z" fill="#925AFF"/>
<path d="M23.2701 89.0158C14.056 89.0158 6.56543 81.5731 6.56543 72.4179C6.56543 63.2628 14.056 55.8201 23.2701 55.8201C32.4842 55.8201 39.9749 63.2628 39.9749 72.4179C39.9749 81.5731 32.4842 89.0158 23.2701 89.0158ZM23.2701 56.1494C14.2549 56.1494 6.89687 63.4603 6.89687 72.4179C6.89687 81.3755 14.2549 88.6864 23.2701 88.6864C32.2854 88.6864 39.6434 81.3755 39.6434 72.4179C39.6434 63.4603 32.2854 56.1494 23.2701 56.1494Z" fill="#925AFF"/>
<path d="M26.7838 93.2641C17.5697 93.2641 10.0791 85.8214 10.0791 76.6662C10.0791 67.511 17.5697 60.0684 26.7838 60.0684C35.9979 60.0684 43.4885 67.511 43.4885 76.6662C43.4885 85.8214 35.9979 93.2641 26.7838 93.2641ZM26.7838 60.3977C17.7686 60.3977 10.4105 67.7086 10.4105 76.6662C10.4105 85.6238 17.7686 92.9347 26.7838 92.9347C35.7991 92.9347 43.1571 85.6238 43.1571 76.6662C43.1902 67.6757 35.8322 60.3977 26.7838 60.3977Z" fill="#925AFF"/>
<path d="M31.192 97.183C21.9779 97.183 14.4873 89.7403 14.4873 80.5852C14.4873 71.43 21.9779 63.9873 31.192 63.9873C40.4061 63.9873 47.8967 71.43 47.8967 80.5852C47.8967 89.7732 40.4061 97.183 31.192 97.183ZM31.192 64.3496C22.1768 64.3496 14.8187 71.6605 14.8187 80.6181C14.8187 89.5757 22.1768 96.8866 31.192 96.8866C40.2073 96.8866 47.5653 89.5757 47.5653 80.6181C47.5653 71.6276 40.2404 64.3496 31.192 64.3496Z" fill="#925AFF"/>
<path d="M36.4948 100.806C27.2806 100.806 19.79 93.3629 19.79 84.2077C19.79 75.0525 27.2806 67.6099 36.4948 67.6099C45.7089 67.6099 53.1995 75.0525 53.1995 84.2077C53.1995 93.3629 45.7089 100.806 36.4948 100.806ZM36.4948 67.9392C27.4795 67.9392 20.1215 75.2501 20.1215 84.2077C20.1215 93.1653 27.4795 100.476 36.4948 100.476C45.51 100.476 52.868 93.1653 52.868 84.2077C52.868 75.2501 45.5431 67.9392 36.4948 67.9392Z" fill="#925AFF"/>
<path d="M42.7262 104C33.5121 104 26.0215 96.5572 26.0215 87.402C26.0215 78.2469 33.5121 70.8042 42.7262 70.8042C51.9403 70.8042 59.4309 78.2469 59.4309 87.402C59.4309 96.5572 51.9403 104 42.7262 104ZM42.7262 71.1335C33.711 71.1335 26.3529 78.4445 26.3529 87.402C26.3529 96.3596 33.711 103.671 42.7262 103.671C51.7414 103.671 59.0995 96.3596 59.0995 87.402C59.0995 78.4445 51.7746 71.1335 42.7262 71.1335Z" fill="#925AFF"/>
</g>
<defs>
<clipPath id="clip0_552_188542">
<rect width="187" height="104" fill="white" transform="translate(0.5)"/>
</clipPath>
</defs>
</svg>
