<svg width="139" height="148" viewBox="0 0 139 148" fill="none" xmlns="http://www.w3.org/2000/svg">
<g clip-path="url(#clip0_552_188408)">
<path d="M94.0762 12.8908C94.1543 12.8908 94.2324 12.8908 94.3106 12.969L167.444 52.8897C167.601 53.0463 167.679 53.2028 167.679 53.3594L167.679 133.279C167.679 133.436 167.601 133.67 167.444 133.749C167.288 133.827 167.054 133.827 166.897 133.749L93.7636 93.828C93.6074 93.7497 93.5292 93.5932 93.5292 93.3583L93.5292 13.4387C93.5292 13.2821 93.6074 13.0473 93.7636 12.969C93.8418 12.969 93.998 12.8908 94.0762 12.8908ZM166.663 53.6725L94.6231 14.2997L94.6231 93.0452L166.663 132.418L166.663 53.6725Z" fill="#925AFF"/>
<path d="M94.0762 92.8104C94.1543 92.8104 94.2325 92.8104 94.3106 92.8886L167.366 132.809C167.601 132.888 167.679 133.122 167.679 133.279C167.679 133.436 167.601 133.67 167.444 133.749L94.3887 173.669C94.2325 173.748 94.0762 173.748 93.9199 173.669L20.7862 133.749C20.6299 133.67 20.5518 133.514 20.5518 133.279C20.5518 133.122 20.6299 132.888 20.7862 132.809L93.9199 92.8886C93.9199 92.8104 93.9981 92.8104 94.0762 92.8104ZM166.038 133.279L94.0762 93.9062L22.1145 133.279L94.0762 172.652L166.038 133.279Z" fill="#925AFF"/>
<path d="M94.0761 12.8908C94.1542 12.8908 94.2324 12.8908 94.3105 12.969C94.4668 13.0473 94.5449 13.2039 94.5449 13.4387L94.5449 93.3583C94.5449 93.5149 94.4668 93.7497 94.3105 93.828L21.2549 133.749C21.0987 133.827 20.8643 133.827 20.708 133.749C20.5517 133.67 20.4736 133.514 20.4736 133.279L20.4736 53.3594C20.4736 53.2028 20.5517 52.968 20.708 52.8897L93.7636 12.969C93.9198 12.969 93.998 12.8908 94.0761 12.8908ZM93.5292 93.0452L93.5292 14.378L21.4893 53.7508L21.4893 132.418L93.5292 93.0452Z" fill="#925AFF"/>
<path d="M58.9941 8.977C59.0722 8.977 59.1503 8.97701 59.2285 9.05528C59.3847 9.13355 59.4629 9.2901 59.4629 9.52493L59.4629 89.3663C59.4629 89.5228 59.3848 89.7577 59.2285 89.836L53.8372 92.8104C53.681 92.8887 53.4466 92.8887 53.2903 92.8104C53.134 92.7322 53.0559 92.5756 53.0559 92.3408L53.0559 12.4994C53.0559 12.3429 53.134 12.108 53.2903 12.0298L58.6815 9.05528C58.8378 8.97701 58.9159 8.977 58.9941 8.977ZM58.4471 89.0532L58.4471 10.386L54.0716 12.8125L54.0716 91.4797L58.4471 89.0532Z" fill="#925AFF"/>
<path d="M53.6025 11.9516C53.6806 11.9516 53.7587 11.9516 53.8369 12.0299C53.9931 12.1082 54.0713 12.2647 54.0713 12.4995L54.0713 92.3409C54.0713 92.4975 53.9932 92.7323 53.8369 92.8106L48.4456 95.785C48.2893 95.8633 48.0549 95.8633 47.8987 95.785C47.7424 95.7068 47.6643 95.5502 47.6643 95.3154L47.6643 15.3957C47.6643 15.2392 47.7424 15.0044 47.8987 14.9261L53.2899 11.9516C53.4462 11.9516 53.5243 11.9516 53.6025 11.9516ZM53.0555 92.0278L53.0555 13.3606L48.68 15.7871L48.68 94.4544L53.0555 92.0278Z" fill="#925AFF"/>
<path d="M48.1337 14.926C48.2119 14.926 48.29 14.926 48.3681 15.0043C48.5244 15.0825 48.6025 15.2391 48.6025 15.4739L48.6025 95.3153C48.6025 95.4718 48.5244 95.7067 48.3681 95.7849L42.9769 98.7594C42.8206 98.8377 42.5862 98.8377 42.4299 98.7594C42.2737 98.6811 42.1955 98.5246 42.1955 98.2898L42.1955 18.3701C42.1955 18.2136 42.2736 17.9787 42.4299 17.9005L47.8212 14.926C47.9775 14.926 48.0556 14.926 48.1337 14.926ZM47.6649 95.0022L47.6649 16.3349L43.2894 18.7615L43.2894 97.4287L47.6649 95.0022Z" fill="#925AFF"/>
<path d="M74.2304 0.679871C74.3085 0.679871 74.3867 0.679871 74.4648 0.758148C74.6211 0.836426 74.6992 0.992981 74.6992 1.22781L74.6992 81.0692C74.6992 81.2257 74.6211 81.4605 74.4648 81.5388L70.0893 83.8871C69.933 83.9654 69.6986 83.9654 69.5424 83.8871C69.3861 83.8088 69.3079 83.6523 69.3079 83.4174L69.3079 3.4978C69.3079 3.34126 69.3861 3.10642 69.5423 3.02815L73.9179 0.679871C73.996 0.679871 74.0741 0.679871 74.2304 0.679871ZM73.6835 80.7561L73.6835 2.08884L70.4018 3.88918L70.4018 82.5564L73.6835 80.7561Z" fill="#925AFF"/>
<path d="M64.4638 6.00249C64.5419 6.00249 64.6201 6.00249 64.6982 6.08077C64.8545 6.15905 64.9326 6.31559 64.9326 6.55042L64.9326 86.4701C64.9326 86.6266 64.8545 86.8614 64.6982 86.9397L59.3069 89.9142C59.1507 89.9925 58.9163 89.9925 58.76 89.9142C58.6037 89.8359 58.5256 89.6794 58.5256 89.4445L58.5256 9.5249C58.5256 9.36836 58.6037 9.13353 58.76 9.05525L64.1513 6.08077C64.2294 6.08077 64.3075 6.00249 64.4638 6.00249ZM63.9169 86.157L63.9169 7.48974L59.5413 9.91628L59.5414 88.5052L63.9169 86.157Z" fill="#925AFF"/>
<path d="M42.7421 17.9006C42.8203 17.9006 42.8984 17.9006 42.9765 17.9789C43.1328 18.0571 43.2109 18.2137 43.2109 18.4485L43.2109 98.2899C43.2109 98.4464 43.1328 98.6813 42.9765 98.7595L37.5853 101.734C37.429 101.812 37.1946 101.812 37.0383 101.734C36.8821 101.656 36.8039 101.499 36.8039 101.264L36.8039 21.3447C36.8039 21.1882 36.8821 20.9533 37.0383 20.8751L42.4296 17.9006C42.5859 17.9006 42.664 17.9006 42.7421 17.9006ZM42.1952 97.9768L42.1952 19.3095L37.8197 21.7361L37.8197 100.403L42.1952 97.9768Z" fill="#925AFF"/>
<path d="M69.8544 3.02812C69.9326 3.02812 70.0107 3.02813 70.0888 3.10641C70.2451 3.18468 70.3232 3.34124 70.3232 3.57607L70.3232 83.4957C70.3232 83.6522 70.2451 83.8871 70.0888 83.9653L64.6976 86.9398C64.5413 87.0181 64.3069 87.0181 64.1506 86.9398C63.9944 86.8616 63.9162 86.705 63.9162 86.4702L63.9162 6.55054C63.9162 6.39399 63.9944 6.15916 64.1506 6.08089L69.5419 3.10641C69.6982 3.10641 69.7763 3.02812 69.8544 3.02812ZM69.3075 83.1826L69.3075 4.51537L64.932 6.94192L64.932 85.5309L69.3075 83.1826Z" fill="#925AFF"/>
<path d="M21.0205 29.7202C21.0986 29.7202 21.1767 29.7202 21.2549 29.7984C21.4111 29.8767 21.4893 30.0333 21.4893 30.2681L21.4893 110.109C21.4893 110.266 21.4111 110.501 21.2549 110.579L15.8636 113.554C15.7073 113.632 15.4729 113.632 15.3167 113.554C15.1604 113.475 15.0822 113.319 15.0822 113.084L15.0822 33.1643C15.0822 33.0077 15.1604 32.7729 15.3166 32.6946L20.7079 29.7202C20.8642 29.7202 20.9423 29.7202 21.0205 29.7202ZM20.5516 109.796L20.5516 31.1291L16.1761 33.5557L16.1761 112.223L20.5516 109.796Z" fill="#925AFF"/>
<path d="M10.1601 35.6692C10.2382 35.6692 10.3164 35.6691 10.3945 35.7474C10.5508 35.8257 10.6289 35.9823 10.6289 36.2171L10.6289 116.058C10.6289 116.215 10.5508 116.45 10.3945 116.528L5.00324 119.503C4.84697 119.581 4.61257 119.581 4.4563 119.503C4.30003 119.424 4.22189 119.268 4.22189 119.033L4.22189 39.1133C4.22189 38.9567 4.30002 38.7219 4.45629 38.6436L9.84756 35.6692C10.0038 35.6692 10.082 35.6692 10.1601 35.6692ZM9.6913 115.745L9.69129 37.0781L5.31576 39.5047L5.31577 118.172L9.6913 115.745Z" fill="#925AFF"/>
<path d="M4.76946 38.6436C4.8476 38.6436 4.92573 38.6436 5.00387 38.7219C5.16014 38.8002 5.23827 38.9567 5.23827 39.1915L5.23828 119.033C5.23828 119.189 5.16014 119.424 5.00388 119.503L1.33157 121.538C1.1753 121.616 0.940884 121.616 0.784616 121.538C0.628347 121.459 0.550222 121.303 0.550222 121.068L0.550215 41.1484C0.550215 40.9919 0.62834 40.7571 0.784608 40.6788L4.45693 38.6436C4.6132 38.6436 4.69133 38.6436 4.76946 38.6436ZM4.22253 118.72L4.22253 40.0526L1.56595 41.4615L1.56596 120.129L4.22253 118.72Z" fill="#925AFF"/>
<path d="M15.6298 32.6945C15.7079 32.6945 15.7861 32.6945 15.8642 32.7728C16.0205 32.8511 16.0986 33.0076 16.0986 33.2425L16.0986 113.084C16.0986 113.24 16.0205 113.475 15.8642 113.553L10.473 116.528C10.3167 116.606 10.0823 116.606 9.92603 116.528C9.76976 116.45 9.69162 116.293 9.69162 116.058L9.69161 36.2169C9.69161 36.0604 9.76975 35.8256 9.92602 35.7473L15.3173 32.7728C15.4736 32.6945 15.5517 32.6945 15.6298 32.6945ZM15.0829 112.771L15.0829 34.1035L10.7074 36.53L10.7074 115.197L15.0829 112.771Z" fill="#925AFF"/>
<path d="M26.4902 26.7457C26.5683 26.7457 26.6464 26.7457 26.7246 26.8239C26.8809 26.9022 26.959 27.0588 26.959 27.2936L26.959 107.213C26.959 107.37 26.8809 107.605 26.7246 107.683L21.3333 110.657C21.177 110.736 20.9426 110.736 20.7864 110.657C20.6301 110.579 20.552 110.423 20.552 110.188L20.552 30.2681C20.552 30.1115 20.6301 29.8767 20.7864 29.7984L26.1776 26.8239C26.3339 26.8239 26.412 26.7457 26.4902 26.7457ZM25.9432 106.9L25.9432 28.1546L21.5677 30.5812L21.5677 109.248L25.9432 106.9Z" fill="#925AFF"/>
<path d="M37.2724 20.8749C37.3505 20.8749 37.4287 20.875 37.5068 20.9532C37.6631 21.0315 37.7412 21.188 37.7412 21.4229L37.7412 101.264C37.7412 101.421 37.6631 101.656 37.5068 101.734L32.1155 104.708C31.9593 104.787 31.7249 104.787 31.5686 104.708C31.4123 104.63 31.3342 104.474 31.3342 104.239L31.3342 24.3191C31.3342 24.1625 31.4123 23.9277 31.5686 23.8494L36.9599 20.8749C37.1161 20.8749 37.1943 20.8749 37.2724 20.8749ZM36.8036 100.951L36.8036 22.2839L32.4281 24.7105L32.4281 103.299L36.8036 100.951Z" fill="#925AFF"/>
<path d="M31.8818 23.7713C31.9599 23.7713 32.038 23.7713 32.1162 23.8496C32.2724 23.9278 32.3506 24.0844 32.3506 24.3192L32.3506 104.239C32.3506 104.395 32.2724 104.63 32.1162 104.709L26.7249 107.683C26.5686 107.761 26.3342 107.761 26.178 107.683C26.0217 107.605 25.9436 107.448 25.9436 107.213L25.9436 27.2937C25.9436 27.1372 26.0217 26.9023 26.178 26.8241L31.5692 23.8496C31.7255 23.8496 31.8036 23.7713 31.8818 23.7713ZM31.3348 103.926L31.3348 25.2585L26.9593 27.6851L26.9593 106.274L31.3348 103.926Z" fill="#925AFF"/>
</g>
<defs>
<clipPath id="clip0_552_188408">
<rect width="167.129" height="173.068" fill="white" transform="translate(167.679 173.748) rotate(180)"/>
</clipPath>
</defs>
</svg>
