<svg width="157" height="115" viewBox="0 0 157 115" fill="none" xmlns="http://www.w3.org/2000/svg">
<g clip-path="url(#clip0_552_188332)">
<path d="M139.526 69.96H139.474L0.207165 35.2117C0.0517913 35.2117 0 35.1087 0 35.0058C0 34.9028 0.0517913 34.7998 0.207165 34.7484L139.422 0C139.474 0 139.526 0 139.526 0L278.793 34.7484C278.896 34.7998 279 34.8513 279 35.0058C279 35.1602 278.948 35.2117 278.793 35.2632L139.526 70.0115C139.526 69.9601 139.526 69.96 139.526 69.96ZM1.24299 35.0058L139.474 69.4967L277.705 35.0058L139.526 0.514791L1.24299 35.0058Z" fill="#373144"/>
<path d="M139.526 91.3754H139.474L0.207165 56.5756C0.103583 56.5241 0 56.4726 0 56.3182C0 56.1637 0.0517913 56.1122 0.207165 56.0608L42.9868 45.4561C43.1422 45.4046 43.2458 45.5075 43.2976 45.6105C43.3494 45.7649 43.2458 45.8679 43.1422 45.9194L1.24299 56.3696L139.474 90.8606L277.705 56.3696L235.858 45.9194C235.702 45.8679 235.651 45.7649 235.702 45.6105C235.754 45.4561 235.858 45.4046 236.013 45.4561L278.845 56.1637C278.948 56.2152 279.052 56.2667 279.052 56.4211C279.052 56.5755 279 56.627 278.845 56.6785L139.578 91.4269C139.526 91.3754 139.526 91.3754 139.526 91.3754Z" fill="#373144"/>
<path d="M139.526 112.739H139.474L0.207165 77.9908C0.0517913 77.9393 0 77.8364 0 77.7334C0 77.6304 0.0517913 77.5275 0.207165 77.476L42.9868 66.8198C43.1422 66.7684 43.2458 66.8713 43.2976 66.9743C43.3494 67.1287 43.2458 67.2317 43.1422 67.2831L1.24299 77.7334L139.474 112.224L277.705 77.7334L235.858 67.2831C235.702 67.2317 235.651 67.1287 235.702 66.9743C235.754 66.8198 235.858 66.7684 236.013 66.8198L278.845 77.5275C278.948 77.579 279.052 77.6304 279.052 77.7849C279.052 77.9393 279 77.9908 278.845 78.0423L139.578 112.739C139.526 112.739 139.526 112.739 139.526 112.739Z" fill="#373144"/>
<path d="M139.526 134H139.474L0.207165 99.2001C0.103583 99.1486 0 99.0971 0 98.9427C0 98.7882 0.0517913 98.7367 0.207165 98.6853L42.7797 88.0806C42.935 88.0291 43.0386 88.1321 43.0904 88.235C43.1422 88.3895 43.0386 88.4924 42.935 88.5439L1.24299 98.9941L139.474 133.485L277.705 98.9941L236.065 88.5954C235.91 88.5439 235.858 88.4409 235.91 88.2865C235.961 88.1321 236.065 88.0806 236.22 88.1321L278.793 98.7368C278.896 98.7882 279 98.8397 279 98.9941C279 99.1486 278.948 99.2001 278.793 99.2515L139.526 134Z" fill="#373144"/>
<path d="M270.04 37.4253H269.989L130.722 2.67695C130.566 2.62547 130.515 2.52251 130.566 2.36808C130.618 2.21364 130.722 2.16216 130.877 2.21364L270.144 36.962C270.299 37.0135 270.351 37.1164 270.299 37.2709C270.248 37.3224 270.144 37.4253 270.04 37.4253Z" fill="#373144"/>
<path d="M261.339 39.5874H261.287L122.021 4.83906C121.865 4.78758 121.813 4.68462 121.865 4.53019C121.917 4.37575 122.02 4.32427 122.176 4.37575L261.443 39.1241C261.598 39.1756 261.65 39.2786 261.598 39.433C261.546 39.4845 261.443 39.5874 261.339 39.5874Z" fill="#373144"/>
<path d="M252.638 41.7495H252.586L113.319 7.00117C113.164 6.94969 113.112 6.84673 113.164 6.6923C113.216 6.53786 113.319 6.48638 113.475 6.53786L252.742 41.2862C252.897 41.3377 252.949 41.4407 252.897 41.5951C252.845 41.6981 252.742 41.7495 252.638 41.7495Z" fill="#373144"/>
<path d="M243.937 43.9116H243.885L104.618 9.16328C104.463 9.1118 104.411 9.00884 104.463 8.85441C104.515 8.69997 104.618 8.64849 104.774 8.69997L244.04 43.4483C244.196 43.4998 244.248 43.6028 244.196 43.7572C244.144 43.8602 244.04 43.9116 243.937 43.9116Z" fill="#373144"/>
<path d="M235.237 46.0738H235.185L95.918 11.3254C95.7626 11.2739 95.7108 11.171 95.7626 11.0165C95.8144 10.8621 95.918 10.8106 96.0733 10.8621L235.34 45.6104C235.496 45.6619 235.547 45.7649 235.496 45.9193C235.444 46.0223 235.34 46.0738 235.237 46.0738Z" fill="#373144"/>
<path d="M226.536 48.2874H226.484L87.2168 13.539C87.0614 13.4875 87.0096 13.3846 87.0614 13.2301C87.1132 13.0757 87.2168 13.0242 87.3722 13.0757L226.639 47.8241C226.794 47.8755 226.846 47.9785 226.794 48.1329C226.743 48.1844 226.639 48.2874 226.536 48.2874Z" fill="#373144"/>
<path d="M217.834 50.4495H217.783L78.5156 15.7011C78.3602 15.6496 78.3085 15.5467 78.3602 15.3922C78.412 15.2378 78.5156 15.1863 78.671 15.2378L217.886 49.9347C218.042 49.9862 218.093 50.0891 218.041 50.2436C218.041 50.3465 217.938 50.4495 217.834 50.4495Z" fill="#373144"/>
<path d="M209.133 52.6116H209.081L69.8144 17.8632C69.6591 17.8118 69.6073 17.7088 69.6591 17.5544C69.7109 17.3999 69.8144 17.3484 69.9698 17.3999L209.237 52.1483C209.392 52.1998 209.444 52.3027 209.392 52.4572C209.34 52.5601 209.237 52.6116 209.133 52.6116Z" fill="#373144"/>
<path d="M200.433 54.7737H200.381L61.1143 20.0253C60.9589 19.9739 60.9071 19.8709 60.9589 19.7165C61.0107 19.562 61.1143 19.5106 61.2696 19.562L200.537 54.3104C200.692 54.3619 200.744 54.4648 200.692 54.6193C200.64 54.7222 200.537 54.7737 200.433 54.7737Z" fill="#373144"/>
<path d="M191.732 56.9358H191.68L52.4131 22.1874C52.2577 22.136 52.2059 22.033 52.2577 21.8786C52.3095 21.7241 52.4131 21.6727 52.5685 21.7241L191.835 56.4725C191.991 56.524 192.043 56.6269 191.991 56.7814C191.939 56.8843 191.835 56.9358 191.732 56.9358Z" fill="#373144"/>
<path d="M183.031 59.1494H182.979L43.712 24.3496C43.5567 24.3496 43.5049 24.1952 43.5049 24.0922C43.5567 23.9378 43.6603 23.8863 43.8156 23.9378L183.083 58.6861C183.238 58.7376 183.29 58.8406 183.238 58.995C183.238 59.0465 183.134 59.1494 183.031 59.1494Z" fill="#373144"/>
<path d="M174.329 61.3116H174.278L35.0107 26.5632C34.8554 26.5117 34.8036 26.4087 34.8554 26.2543C34.9072 26.0999 35.0107 26.0484 35.1661 26.0999L174.433 60.8482C174.588 60.8997 174.64 61.0027 174.588 61.1571C174.537 61.2086 174.433 61.3116 174.329 61.3116Z" fill="#373144"/>
<path d="M165.628 63.4737H165.577L26.3096 28.7253C26.1542 28.6738 26.1024 28.5709 26.1542 28.4164C26.206 28.262 26.3096 28.2105 26.4649 28.262L165.732 63.0103C165.887 63.0618 165.939 63.1648 165.887 63.3192C165.835 63.3707 165.732 63.4737 165.628 63.4737Z" fill="#373144"/>
<path d="M156.928 65.6358H156.876L17.6094 30.8874C17.454 30.8359 17.4022 30.733 17.454 30.5785C17.5058 30.4241 17.6094 30.3726 17.7647 30.4241L157.032 65.1725C157.187 65.2239 157.239 65.3269 157.187 65.4813C157.135 65.5843 157.032 65.6358 156.928 65.6358Z" fill="#373144"/>
<path d="M148.227 67.7979H148.175L8.90819 33.0495C8.75282 32.998 8.70103 32.8951 8.75282 32.7406C8.80461 32.5862 8.90819 32.5347 9.06357 32.5862L148.331 67.3346C148.486 67.3861 148.538 67.489 148.486 67.6434C148.434 67.7464 148.331 67.7979 148.227 67.7979Z" fill="#373144"/>
<path d="M139.526 134C139.422 134 139.318 133.949 139.267 133.794C139.215 133.64 139.319 133.537 139.422 133.485L278.689 98.7368C278.844 98.6854 278.948 98.7883 279 98.8913C279.052 99.0457 278.948 99.1487 278.844 99.2001L139.577 133.949C139.526 134 139.526 134 139.526 134Z" fill="#373144"/>
<path d="M130.824 131.786C130.721 131.786 130.617 131.735 130.566 131.58C130.514 131.426 130.617 131.323 130.721 131.272L269.988 96.5232C270.143 96.4717 270.247 96.5747 270.299 96.6777C270.35 96.8321 270.247 96.935 270.143 96.9865L130.876 131.786C130.824 131.786 130.824 131.786 130.824 131.786Z" fill="#373144"/>
<path d="M122.073 129.624C121.969 129.624 121.865 129.573 121.814 129.418C121.762 129.264 121.865 129.161 121.969 129.109L261.236 94.3611C261.391 94.3096 261.495 94.4126 261.547 94.5155C261.598 94.67 261.495 94.7729 261.391 94.8244L122.124 129.573C122.124 129.624 122.124 129.624 122.073 129.624Z" fill="#373144"/>
<path d="M113.371 127.462C113.268 127.462 113.164 127.411 113.112 127.256C113.061 127.102 113.164 126.999 113.268 126.947L252.535 92.199C252.69 92.1475 252.794 92.2505 252.845 92.3534C252.897 92.5079 252.794 92.6108 252.69 92.6623L113.423 127.411C113.423 127.462 113.423 127.462 113.371 127.462Z" fill="#373144"/>
<path d="M104.67 125.3C104.567 125.3 104.463 125.249 104.411 125.094C104.359 124.94 104.463 124.837 104.567 124.785L243.834 90.0369C243.989 89.9854 244.093 90.0884 244.144 90.1913C244.196 90.3458 244.093 90.4487 243.989 90.5002L104.722 125.249C104.722 125.3 104.722 125.3 104.67 125.3Z" fill="#373144"/>
<path d="M95.969 123.138C95.8654 123.138 95.7619 123.086 95.7101 122.932C95.6583 122.777 95.7619 122.674 95.8654 122.623L138.438 112.018C138.593 111.967 138.697 112.07 138.749 112.173C138.8 112.327 138.697 112.43 138.593 112.482L96.0208 123.086C96.0208 123.138 96.0208 123.138 95.969 123.138Z" fill="#373144"/>
<path d="M87.2688 120.924C87.1652 120.924 87.0617 120.873 87.0099 120.719C86.9581 120.564 87.0617 120.461 87.1652 120.41L129.738 109.805C129.893 109.753 129.997 109.856 130.048 109.959C130.1 110.114 129.997 110.217 129.893 110.268L87.3206 120.873C87.3206 120.924 87.3206 120.924 87.2688 120.924Z" fill="#373144"/>
<path d="M78.5677 118.762C78.4641 118.762 78.3605 118.711 78.3087 118.556C78.2569 118.402 78.3605 118.299 78.4641 118.248L121.037 107.643C121.192 107.591 121.296 107.694 121.347 107.797C121.399 107.952 121.296 108.055 121.192 108.106L78.6194 118.711C78.6194 118.762 78.6194 118.762 78.5677 118.762Z" fill="#373144"/>
<path d="M69.8665 116.6C69.7629 116.6 69.6593 116.548 69.6075 116.394C69.5557 116.24 69.6593 116.137 69.7629 116.085L112.335 105.48C112.491 105.429 112.594 105.532 112.646 105.635C112.698 105.789 112.594 105.892 112.491 105.944L69.9183 116.6C69.9183 116.6 69.9183 116.6 69.8665 116.6Z" fill="#373144"/>
<path d="M61.1653 114.438C61.0617 114.438 60.9581 114.386 60.9064 114.232C60.8546 114.078 60.9581 113.975 61.0617 113.923L103.634 103.318C103.79 103.267 103.893 103.37 103.945 103.473C103.997 103.627 103.893 103.73 103.79 103.782L61.2171 114.386C61.2171 114.438 61.2171 114.438 61.1653 114.438Z" fill="#373144"/>
<path d="M52.4651 112.276C52.3615 112.276 52.258 112.224 52.2062 112.07C52.1544 111.915 52.2579 111.812 52.3615 111.761L94.934 101.156C95.0894 101.105 95.193 101.208 95.2448 101.311C95.2966 101.465 95.193 101.568 95.0894 101.62L52.5169 112.224C52.5169 112.276 52.4651 112.276 52.4651 112.276Z" fill="#373144"/>
<path d="M43.7639 110.114C43.6604 110.114 43.5568 110.062 43.505 109.908C43.4532 109.753 43.5568 109.65 43.6604 109.599L86.2328 98.9942C86.3882 98.9427 86.4918 99.0456 86.5436 99.1486C86.5954 99.303 86.4918 99.406 86.3882 99.4575L43.8157 110.062L43.7639 110.114Z" fill="#373144"/>
<path d="M35.0628 107.9C34.9592 107.9 34.8556 107.849 34.8038 107.694C34.752 107.54 34.8556 107.437 34.9592 107.385L77.5317 96.7805C77.687 96.7291 77.7906 96.832 77.8424 96.935C77.8942 97.0894 77.7906 97.1924 77.687 97.2438L35.1146 107.849C35.1146 107.9 35.0628 107.9 35.0628 107.9Z" fill="#373144"/>
<path d="M26.3616 105.738C26.258 105.738 26.1544 105.686 26.1026 105.532C26.0509 105.378 26.1544 105.275 26.258 105.223L68.8305 94.6184C68.9859 94.5669 69.0895 94.6699 69.1413 94.7729C69.193 94.9273 69.0895 95.0303 68.9859 95.0817L26.4134 105.738H26.3616Z" fill="#373144"/>
<path d="M17.6604 103.576C17.5568 103.576 17.4533 103.524 17.4015 103.37C17.3497 103.215 17.4533 103.112 17.5568 103.061L60.1293 92.4563C60.2847 92.4048 60.3883 92.5078 60.4401 92.6108C60.4919 92.7652 60.3883 92.8681 60.2847 92.9196L17.7122 103.524C17.7122 103.576 17.6604 103.576 17.6604 103.576Z" fill="#373144"/>
<path d="M8.96023 101.414C8.85665 101.414 8.75307 101.362 8.70128 101.208C8.64948 101.053 8.75307 100.95 8.85665 100.899L51.4291 90.2942C51.5845 90.2427 51.6881 90.3457 51.7399 90.4486C51.7917 90.6031 51.6881 90.706 51.5845 90.7575L9.01202 101.414H8.96023Z" fill="#373144"/>
</g>
<defs>
<clipPath id="clip0_552_188332">
<rect width="279" height="134" fill="white"/>
</clipPath>
</defs>
</svg>
