<svg width="167" height="119" viewBox="0 0 167 119" fill="none" xmlns="http://www.w3.org/2000/svg">
<g clip-path="url(#clip0_552_188489)">
<path d="M135.879 64.7792C99.6144 64.7792 65.545 61.4457 39.9056 55.3758C14.1665 49.2561 0 41.0965 0 32.3896C0 23.6827 14.1665 15.5231 39.9056 9.40343C65.545 3.33349 99.6144 0 135.879 0C172.143 0 206.212 3.33349 231.852 9.40343C257.591 15.5231 271.757 23.6827 271.757 32.3896C271.757 41.0965 257.591 49.2561 231.852 55.3758C206.212 61.4457 172.093 64.7792 135.879 64.7792ZM135.879 0.497536C61.2052 0.497536 0.49882 14.7768 0.49882 32.3896C0.49882 50.0024 61.2551 64.2817 135.879 64.2817C210.502 64.2817 271.258 49.9526 271.258 32.3896C271.258 14.7768 210.502 0.497536 135.879 0.497536Z" fill="#925AFF"/>
<path d="M135.879 67.7147C101.011 67.7147 68.1886 64.4807 43.497 58.6098C18.7057 52.7388 5.08789 44.828 5.08789 36.4197C5.08789 28.0113 18.7556 20.1005 43.497 14.2295C68.1886 8.35862 100.961 5.12463 135.879 5.12463C170.746 5.12463 203.568 8.35862 228.26 14.2295C253.051 20.1005 266.669 28.0113 266.669 36.4197C266.669 44.828 253.001 52.7388 228.26 58.6098C203.568 64.4807 170.746 67.7147 135.879 67.7147ZM135.879 5.57242C64.0484 5.57242 5.58671 19.4039 5.58671 36.4197C5.58671 53.4354 64.0484 67.2669 135.879 67.2669C207.709 67.2669 266.17 53.4354 266.17 36.4197C266.17 19.4039 207.709 5.57242 135.879 5.57242Z" fill="#925AFF"/>
<path d="M135.878 70.6004C102.358 70.6004 70.8322 67.4659 47.1383 61.794C23.3446 56.1221 10.2256 48.5097 10.2256 40.3502C10.2256 32.2403 23.3446 24.628 47.1383 18.9063C70.8322 13.3339 102.358 10.1995 135.878 10.1995C169.399 10.1995 200.925 13.3339 224.618 19.0059C248.412 24.6778 261.531 32.2901 261.531 40.4497C261.531 48.5595 248.412 56.1718 224.618 61.8935C200.925 67.5156 169.399 70.6004 135.878 70.6004ZM135.878 10.6472C66.8417 10.6472 10.6745 23.9812 10.6745 40.3999C10.6745 56.8186 66.8417 70.1526 135.878 70.1526C204.915 70.1526 261.082 56.8186 261.082 40.3999C261.082 23.9812 204.915 10.6472 135.878 10.6472Z" fill="#925AFF"/>
<path d="M135.878 73.5358C103.704 73.5358 73.4759 70.5506 50.7297 65.0777C27.8837 59.6048 15.3135 52.2413 15.3135 44.43C15.3135 36.5689 27.8837 29.2551 50.7297 23.7822C73.4759 18.3093 103.704 15.3241 135.878 15.3241C168.052 15.3241 198.281 18.3093 221.027 23.7822C243.873 29.2551 256.443 36.6187 256.443 44.43C256.443 52.291 243.873 59.6048 221.027 65.0777C198.281 70.5506 168.052 73.5358 135.878 73.5358ZM135.878 15.7719C69.635 15.7719 15.7624 28.6083 15.7624 44.43C15.7624 60.2516 69.635 73.0881 135.878 73.0881C202.122 73.0881 255.994 60.2019 255.994 44.43C255.994 28.6083 202.122 15.7719 135.878 15.7719Z" fill="#925AFF"/>
<path d="M135.878 76.4713C105.051 76.4713 76.1197 73.5855 54.3212 68.3117C32.423 63.0378 20.3516 55.9728 20.3516 48.4102C20.3516 40.8477 32.423 33.8324 54.3212 28.5585C76.0698 23.2846 105.051 20.3989 135.878 20.3989C166.705 20.3989 195.637 23.2846 217.435 28.5585C239.334 33.8324 251.405 40.8974 251.405 48.46C251.405 56.0225 239.334 63.0875 217.435 68.3614C195.637 73.5855 166.656 76.4713 135.878 76.4713ZM135.878 20.8467C72.4284 20.8467 20.8504 33.2354 20.8504 48.4102C20.8504 63.5851 72.4783 75.9737 135.878 75.9737C199.278 75.9737 250.906 63.6348 250.906 48.4102C250.906 33.2354 199.278 20.8467 135.878 20.8467Z" fill="#925AFF"/>
<path d="M135.878 79.4067C106.448 79.4067 78.7134 76.6205 57.9126 71.5954C36.9622 66.4708 25.4395 59.7043 25.4395 52.4403C25.4395 45.1762 36.9622 38.4097 57.9126 33.3349C78.7633 28.26 106.448 25.5236 135.878 25.5236C165.309 25.5236 192.993 28.3098 213.844 33.3349C234.794 38.4097 246.317 45.1762 246.317 52.4403C246.317 59.7043 234.794 66.4708 213.844 71.5457C192.993 76.6205 165.309 79.4067 135.878 79.4067ZM135.878 25.9713C75.2217 25.9713 25.9383 37.8127 25.9383 52.4403C25.9383 67.0678 75.2716 78.9092 135.878 78.9092C196.485 78.9092 245.818 67.0181 245.818 52.4403C245.818 37.8625 196.485 25.9713 135.878 25.9713Z" fill="#925AFF"/>
<path d="M135.878 82.2925C107.795 82.2925 81.3571 79.6058 61.5041 74.7797C41.5513 69.9038 30.5273 63.3861 30.5273 56.4206C30.5273 49.4551 41.5014 42.9374 61.5041 38.0615C81.3571 33.2354 107.795 30.5487 135.878 30.5487C163.962 30.5487 190.399 33.2354 210.252 38.0615C230.205 42.9374 241.229 49.4551 241.229 56.4206C241.229 63.3861 230.255 69.9038 210.252 74.7797C190.349 79.6555 163.962 82.2925 135.878 82.2925ZM135.878 31.0462C78.0649 31.0462 31.0262 42.4398 31.0262 56.4206C31.0262 70.4014 78.0649 81.7949 135.878 81.7949C193.691 81.7949 240.73 70.4014 240.73 56.4206C240.73 42.4398 193.691 31.0462 135.878 31.0462Z" fill="#925AFF"/>
<path d="M135.879 85.2279C109.142 85.2279 84.0018 82.6905 65.0965 78.0137C46.0914 73.3368 35.6162 67.1176 35.6162 60.4506C35.6162 53.7837 46.0914 47.5147 65.0965 42.8876C84.0018 38.2605 109.142 35.6733 135.879 35.6733C162.616 35.6733 187.756 38.2108 206.662 42.8876C225.667 47.5645 236.142 53.7837 236.142 60.4506C236.142 67.1176 225.667 73.3866 206.662 78.0137C187.756 82.6905 162.616 85.2279 135.879 85.2279ZM135.879 36.1709C80.8592 36.1709 36.115 47.0669 36.115 60.4506C36.115 73.8344 80.8592 84.7304 135.879 84.7304C190.899 84.7304 235.643 73.8344 235.643 60.4506C235.643 47.0669 190.899 36.1709 135.879 36.1709Z" fill="#925AFF"/>
<path d="M135.879 88.1633C110.489 88.1633 86.6454 85.7254 68.6879 81.2973C50.6306 76.8195 40.7041 70.849 40.7041 64.4806C40.7041 58.1121 50.6306 52.1417 68.6879 47.6639C86.6454 43.2358 110.489 40.7979 135.879 40.7979C161.269 40.7979 185.113 43.2358 203.07 47.6639C221.127 52.1417 231.054 58.1121 231.054 64.4806C231.054 70.849 221.127 76.8195 203.07 81.2973C185.113 85.7254 161.219 88.1633 135.879 88.1633ZM135.879 41.2456C83.6525 41.2456 41.2029 51.6441 41.2029 64.4806C41.2029 77.317 83.6525 87.7155 135.879 87.7155C188.105 87.7155 230.555 77.317 230.555 64.4806C230.555 51.6441 188.056 41.2456 135.879 41.2456Z" fill="#925AFF"/>
<path d="M135.879 91.0988C111.886 91.0988 89.2891 88.7604 72.2793 84.5313C55.2197 80.3023 45.792 74.5806 45.792 68.4609C45.792 62.391 55.2197 56.6693 72.2793 52.3905C89.2891 48.1614 111.836 45.823 135.879 45.823C159.872 45.823 182.469 48.1614 199.478 52.3905C216.538 56.6195 225.966 62.3412 225.966 68.4609C225.966 74.5308 216.538 80.2525 199.478 84.5313C182.469 88.7604 159.872 91.0988 135.879 91.0988ZM135.879 46.3205C86.4957 46.3205 46.2908 56.2713 46.2908 68.4609C46.2908 80.6505 86.4957 90.6013 135.879 90.6013C185.262 90.6013 225.467 80.6505 225.467 68.4609C225.467 56.2713 185.262 46.3205 135.879 46.3205Z" fill="#925AFF"/>
<path d="M135.879 93.9847C113.232 93.9847 91.9327 91.7458 75.9206 87.7655C59.8087 83.7354 50.9297 78.3123 50.9297 72.4911C50.9297 66.6699 59.8087 61.2468 75.9206 57.2168C91.9327 53.1867 113.232 50.9976 135.879 50.9976C158.525 50.9976 179.825 53.2365 195.837 57.2168C211.949 61.2468 220.828 66.6699 220.828 72.4911C220.828 78.3123 211.949 83.7354 195.837 87.7655C179.825 91.7955 158.525 93.9847 135.879 93.9847ZM135.879 51.4453C89.2889 51.4453 51.3786 60.8985 51.3786 72.4911C51.3786 84.0837 89.2889 93.5369 135.879 93.5369C182.469 93.5369 220.379 84.0837 220.379 72.4911C220.379 60.8985 182.469 51.4453 135.879 51.4453Z" fill="#925AFF"/>
<path d="M135.879 96.9199C114.579 96.9199 94.5764 94.8303 79.512 90.9993C64.3479 87.1682 56.0176 81.9939 56.0176 76.4712C56.0176 70.9485 64.3479 65.8239 79.512 61.9431C94.5764 58.1121 114.579 56.0225 135.879 56.0225C157.178 56.0225 177.181 58.1121 192.245 61.9431C207.409 65.7742 215.74 70.9485 215.74 76.4712C215.74 81.9939 207.409 87.1185 192.245 90.9993C177.181 94.8303 157.178 96.9199 135.879 96.9199ZM135.879 56.52C92.0823 56.52 56.4665 65.4756 56.4665 76.4712C56.4665 87.4667 92.0823 96.4224 135.879 96.4224C179.675 96.4224 215.291 87.4667 215.291 76.4712C215.291 65.4756 179.675 56.52 135.879 56.52Z" fill="#925AFF"/>
<path d="M135.879 99.8555C94.6263 99.8555 61.0557 91.1984 61.0557 80.5014C61.0557 69.8043 94.6263 61.1472 135.879 61.1472C177.131 61.1472 210.702 69.8043 210.702 80.5014C210.702 91.1984 177.131 99.8555 135.879 99.8555ZM135.879 61.6448C94.8757 61.6448 61.5545 70.1029 61.5545 80.5014C61.5545 90.8999 94.8757 99.358 135.879 99.358C176.882 99.358 210.203 90.8999 210.203 80.5014C210.203 70.1029 176.832 61.6448 135.879 61.6448Z" fill="#925AFF"/>
<path d="M135.879 102.741C97.4196 102.741 66.1436 94.532 66.1436 84.4817C66.1436 74.4315 97.4196 66.2222 135.879 66.2222C174.338 66.2222 205.614 74.4315 205.614 84.4817C205.614 94.532 174.288 102.741 135.879 102.741ZM135.879 66.7197C97.7189 66.7197 66.6424 74.6803 66.6424 84.4817C66.6424 94.2832 97.7189 102.244 135.879 102.244C174.038 102.244 205.115 94.2832 205.115 84.4817C205.115 74.6803 174.038 66.7197 135.879 66.7197Z" fill="#925AFF"/>
<path d="M135.879 105.677C100.263 105.677 71.2314 97.9649 71.2314 88.5117C71.2314 79.0585 100.213 71.3467 135.879 71.3467C171.544 71.3467 200.526 79.0585 200.526 88.5117C200.476 97.9649 171.494 105.677 135.879 105.677ZM135.879 71.8442C100.512 71.8442 71.7303 79.357 71.7303 88.5614C71.7303 97.7659 100.512 105.229 135.879 105.229C171.245 105.229 200.027 97.7659 200.027 88.5614C200.027 79.357 171.245 71.8442 135.879 71.8442Z" fill="#925AFF"/>
<path d="M135.878 108.612C103.056 108.612 76.3193 101.398 76.3193 92.5416C76.3193 83.6855 103.006 76.4712 135.878 76.4712C168.701 76.4712 195.438 83.6855 195.438 92.5416C195.438 101.398 168.701 108.612 135.878 108.612ZM135.878 76.919C103.306 76.919 76.8182 83.9342 76.8182 92.5416C76.8182 101.149 103.306 108.164 135.878 108.164C168.451 108.164 194.939 101.149 194.939 92.5416C194.939 83.9342 168.451 76.919 135.878 76.919Z" fill="#925AFF"/>
<path d="M135.878 111.548C105.849 111.548 81.4072 104.831 81.4072 96.5718C81.4072 88.3127 105.849 81.5959 135.878 81.5959C165.907 81.5959 190.35 88.3127 190.35 96.5718C190.3 104.781 165.907 111.548 135.878 111.548ZM135.878 81.994C106.099 81.994 81.906 88.5117 81.906 96.522C81.906 104.532 106.099 111.05 135.878 111.05C165.658 111.05 189.851 104.532 189.851 96.522C189.851 88.5117 165.608 81.994 135.878 81.994Z" fill="#925AFF"/>
<path d="M135.878 114.433C108.643 114.433 86.4951 108.214 86.4951 100.552C86.4951 92.8901 108.643 86.6709 135.878 86.6709C163.114 86.6709 185.261 92.8901 185.261 100.552C185.212 108.214 163.064 114.433 135.878 114.433ZM135.878 87.1187C108.942 87.1187 86.9939 93.1389 86.9939 100.552C86.9939 107.965 108.942 113.986 135.878 113.986C162.815 113.986 184.763 107.965 184.763 100.552C184.763 93.1389 162.815 87.1187 135.878 87.1187Z" fill="#925AFF"/>
<path d="M135.878 117.369C111.486 117.369 91.583 111.597 91.583 104.532C91.583 97.4675 111.436 91.696 135.878 91.696C160.271 91.696 180.173 97.4675 180.173 104.532C180.124 111.597 160.271 117.369 135.878 117.369ZM135.878 92.1936C111.735 92.1936 92.0818 97.7162 92.0818 104.532C92.0818 111.349 111.735 116.871 135.878 116.871C160.021 116.871 179.675 111.349 179.675 104.532C179.675 97.7162 160.021 92.1936 135.878 92.1936Z" fill="#925AFF"/>
<path d="M135.878 120.304C114.279 120.304 96.7207 115.03 96.7207 108.562C96.7207 102.094 114.279 96.8206 135.878 96.8206C157.477 96.8206 175.035 102.094 175.035 108.562C175.035 115.03 157.477 120.304 135.878 120.304ZM135.878 97.3181C114.529 97.3181 97.1696 102.343 97.1696 108.562C97.1696 114.782 114.529 119.807 135.878 119.807C157.228 119.807 174.587 114.782 174.587 108.562C174.587 102.343 157.228 97.3181 135.878 97.3181Z" fill="#925AFF"/>
<path d="M135.879 123.19C117.073 123.19 101.81 118.414 101.81 112.543C101.81 106.672 117.123 101.896 135.879 101.896C154.684 101.896 169.948 106.672 169.948 112.543C169.948 118.414 154.684 123.19 135.879 123.19ZM135.879 102.393C117.323 102.393 102.259 106.97 102.259 112.543C102.259 118.165 117.323 122.693 135.879 122.693C154.435 122.693 169.499 118.115 169.499 112.543C169.499 106.97 154.385 102.393 135.879 102.393Z" fill="#925AFF"/>
<path d="M135.879 126.125C119.867 126.125 106.897 121.847 106.897 116.573C106.897 111.199 119.617 107.02 135.879 107.02C152.14 107.02 164.86 111.199 164.86 116.573C164.86 121.847 151.841 126.125 135.879 126.125ZM135.879 107.518C120.166 107.518 107.346 111.597 107.346 116.622C107.346 121.648 120.166 125.727 135.879 125.727C151.592 125.727 164.411 121.648 164.411 116.622C164.411 111.548 151.592 107.518 135.879 107.518Z" fill="#925AFF"/>
<path d="M135.879 129.061C122.461 129.061 111.985 125.329 111.985 120.603C111.985 115.876 122.51 112.145 135.879 112.145C149.297 112.145 159.772 115.876 159.772 120.603C159.772 125.329 149.297 129.061 135.879 129.061ZM135.879 112.593C122.959 112.593 112.434 116.175 112.434 120.603C112.434 125.031 122.959 128.613 135.879 128.613C148.798 128.613 159.323 125.031 159.323 120.603C159.323 116.175 148.798 112.593 135.879 112.593Z" fill="#925AFF"/>
<path d="M135.879 131.996C125.304 131.996 117.073 128.762 117.073 124.633C117.073 120.503 125.354 117.269 135.879 117.269C146.454 117.269 154.684 120.503 154.684 124.633C154.684 128.713 146.404 131.996 135.879 131.996ZM135.879 117.667C125.753 117.667 117.522 120.752 117.522 124.583C117.522 128.414 125.753 131.499 135.879 131.499C146.005 131.499 154.235 128.414 154.235 124.583C154.235 120.802 146.005 117.667 135.879 117.667Z" fill="#925AFF"/>
</g>
<defs>
<clipPath id="clip0_552_188489">
<rect width="245" height="119" fill="white"/>
</clipPath>
</defs>
</svg>
