<svg width="166" height="134" viewBox="0 0 166 134" fill="none" xmlns="http://www.w3.org/2000/svg">
<g clip-path="url(#clip0_552_188449)">
<path d="M89.143 97.4135C87.3171 97.4135 85.257 96.8979 83.2906 95.8666C78.8428 93.6164 75.8464 89.6317 75.7059 85.7408C75.4718 79.7404 78.281 75.9901 83.1502 75.7088C88.8153 75.3338 95.604 80.1154 96.2127 87.5222C96.6809 92.8195 94.8549 95.2103 93.2163 96.3353C92.0926 97.0385 90.688 97.4135 89.143 97.4135ZM83.712 76.1307C83.5247 76.1307 83.3375 76.1307 83.1502 76.1307C78.5619 76.412 75.94 79.9748 76.1273 85.6939C76.2678 89.4442 79.1237 93.2414 83.4779 95.4447C87.0362 97.2729 90.688 97.4135 92.9822 95.8666C95.1359 94.4133 96.1191 91.5069 95.7445 87.4753C95.1359 80.6779 89.0494 76.1307 83.712 76.1307Z" fill="#925AFF"/>
<path d="M91.297 103.601C90.4074 103.601 89.471 103.461 88.4878 103.18C79.9199 100.742 71.4457 88.2253 72.5225 79.6934C73.2248 74.2087 77.6726 71.0678 85.07 70.8803C90.4542 70.7396 95.417 73.5524 98.7412 78.5215C102.393 84.0063 103.049 90.8505 100.567 96.3822C98.4135 101.117 95.1829 103.601 91.297 103.601ZM85.4446 71.3022C85.3041 71.3022 85.2105 71.3022 85.07 71.3022C75.8935 71.5366 73.4121 76.0369 72.9439 79.7403C71.9139 88.1316 80.2477 100.367 88.6283 102.758C92.0929 103.742 96.8684 103.367 100.146 96.1947C102.58 90.8036 101.925 84.1 98.3666 78.7559C95.1829 74.0211 90.501 71.3022 85.4446 71.3022Z" fill="#925AFF"/>
<path d="M92.1859 107.914C91.0623 107.914 89.845 107.774 88.6277 107.445C77.2507 104.68 66.1545 90.241 66.9973 79.412C67.6059 71.724 74.0201 67.0361 85.0694 66.0986C91.2496 65.5829 97.1019 68.5362 101.222 74.2554C106.325 81.3341 107.683 90.991 104.546 98.3041C101.877 104.633 97.5701 107.914 92.1859 107.914ZM86.4272 66.5205C86.0058 66.5205 85.5376 66.5205 85.1163 66.5673C71.2578 67.7393 67.8869 74.2085 67.4655 79.4589C66.6227 90.1003 77.5784 104.305 88.7682 107.023C95.5569 108.711 101.035 105.523 104.172 98.1166C107.215 90.9441 105.904 81.4278 100.894 74.4898C97.1019 69.38 91.905 66.5205 86.4272 66.5205Z" fill="#925AFF"/>
<path d="M90.6885 112.836C88.8626 112.836 86.9898 112.508 85.0702 111.899C72.1014 107.727 60.9584 90.7567 62.5971 77.6776C63.8144 67.9738 71.7736 62.2077 85.0234 61.4108C93.2636 60.8951 101.082 65.2548 105.998 72.9429C111.476 81.5685 112.038 92.2568 107.45 100.789C103.189 108.711 97.3837 112.836 90.6885 112.836ZM85.0702 61.8327C72.1014 62.6296 64.2826 68.255 63.0653 77.7245C62.3162 83.8656 64.3762 91.2255 68.824 97.9291C73.225 104.586 79.2179 109.508 85.2107 111.477C93.9659 114.29 101.738 110.399 107.075 100.554C111.617 92.163 111.055 81.6623 105.671 73.1773C100.848 65.583 93.1231 61.317 85.0702 61.8327Z" fill="#925AFF"/>
<path d="M92.9821 116.212C82.3542 116.212 69.8535 110.117 62.8307 102.804C55.9951 95.632 54.5905 84.7093 59.1788 74.2554C64.0011 63.2859 74.1609 56.3947 85.0697 56.676C93.0758 56.7229 99.9582 59.7231 104.921 65.4423C111.476 72.9429 114.425 84.6625 112.88 96.8509C111.663 106.461 107.168 112.836 99.9582 115.227C97.8045 115.884 95.4167 116.212 92.9821 116.212ZM84.4611 57.0979C73.9736 57.0979 64.2821 63.8484 59.6002 74.443C55.0587 84.7093 56.4633 95.4445 63.1584 102.476C71.6795 111.43 88.4407 118.509 99.8177 114.758C106.981 112.415 111.195 106.367 112.459 96.7571C114.004 84.7093 111.054 73.0835 104.593 65.6767C99.7241 60.0982 92.9821 57.1448 85.0697 57.0979C84.8356 57.0979 84.6483 57.0979 84.4611 57.0979Z" fill="#925AFF"/>
<path d="M82.5421 121.884C68.6368 121.884 61.2394 116.54 57.4003 111.383C48.926 100.086 51.5947 82.975 57.9621 71.021C64.6104 58.5045 74.7701 51.3789 85.0703 51.8946C106.373 53.0197 117.375 70.9741 118.64 87.1472C119.716 101.117 113.583 116.774 97.4774 120.15C91.8123 121.368 86.8494 121.884 82.5421 121.884ZM83.9467 52.3165C74.1615 52.3165 64.6572 59.3014 58.3366 71.2085C52.0161 83.0219 49.3942 99.945 57.728 111.055C62.7376 117.712 73.6465 124.65 97.3369 119.681C113.209 116.352 119.201 100.929 118.171 87.1472C116.954 71.1616 106.045 53.3947 85.0235 52.3165C84.6958 52.3165 84.3212 52.3165 83.9467 52.3165Z" fill="#925AFF"/>
<path d="M91.2971 126.713C89.7521 126.713 88.1602 126.572 86.5216 126.338C78.656 125.119 72.8036 124.509 68.4962 124.087C59.1792 123.15 56.3701 122.822 53.3269 118.556C43.8694 105.148 43.3544 84.3344 52.1096 67.8332C59.2729 54.3791 71.2586 46.8317 85.0234 47.1598C99.5373 47.488 110.914 54.5666 117.001 67.0363C124.351 82.0374 122.853 102.242 113.396 115.087C107.871 122.681 100.146 126.713 91.2971 126.713ZM84.1806 47.5817C70.9777 47.5817 59.4602 54.9885 52.5309 68.0207C43.8694 84.3344 44.3376 105.008 53.7014 118.274C56.6042 122.4 59.3665 122.681 68.5431 123.619C72.8036 124.041 78.656 124.65 86.5684 125.869C97.1963 127.51 106.607 123.572 113.068 114.805C122.385 102.101 123.883 82.0843 116.626 67.2238C110.587 54.8948 99.35 47.9567 85.0234 47.5817C84.7893 47.6286 84.4615 47.5817 84.1806 47.5817Z" fill="#925AFF"/>
<path d="M54.1698 135.479C52.7652 135.479 51.4075 134.822 49.9561 132.994C37.5022 117.477 36.3317 88.3659 47.2874 66.7549C55.6212 50.3475 69.0114 41.675 85.0704 42.425C104.828 43.3626 119.201 51.6601 125.522 65.8174C132.077 80.5372 128.94 99.7574 117.61 113.68C106.279 127.65 89.2841 133.322 71.0246 129.291C66.6705 128.353 63.2527 130.65 60.2094 132.713C58.0558 134.166 56.1362 135.479 54.1698 135.479ZM83.1508 42.8469C68.1687 42.8469 55.6212 51.3319 47.7088 66.9425C36.7999 88.4128 37.9704 117.337 50.3306 132.713C53.5143 136.698 56.3703 134.776 59.9753 132.338C63.0654 130.228 66.6237 127.884 71.1651 128.869C89.2841 132.854 106.092 127.228 117.329 113.399C128.518 99.6167 131.702 80.5841 125.194 66.0049C118.921 51.9882 104.688 43.7845 85.1172 42.8938C84.4149 42.8469 83.8062 42.8469 83.1508 42.8469Z" fill="#925AFF"/>
<path d="M53.0924 147.667C51.7815 147.667 50.3769 146.777 48.8319 144.901C41.2004 135.666 36.5185 122.072 35.5821 106.555C34.6925 91.2256 37.5485 76.0369 43.6818 63.8017C52.5774 46.0347 67.2786 36.7528 85.0698 37.6435C112.834 39.0498 124.585 51.332 129.595 61.364C136.758 75.8025 134.323 94.7883 123.321 110.915C110.82 129.197 90.5009 138.901 68.9641 136.979C63.7204 136.51 60.8176 140.214 58.2893 143.495C56.557 145.745 55.0588 147.667 53.0924 147.667ZM82.7289 38.0654C66.1549 38.0654 52.4838 47.2067 44.1032 64.0361C31.2747 89.5848 33.5689 125.728 49.1596 144.62C50.6578 146.402 51.9219 147.245 53.0924 147.245C54.7779 147.198 56.2293 145.37 57.9148 143.261C60.3962 140.073 63.4863 136.088 68.9641 136.604C90.3604 138.526 110.493 128.869 122.9 110.727C133.808 94.7415 136.196 75.9432 129.127 61.6452C124.211 51.707 112.553 39.5655 85.023 38.1591C84.2739 38.1123 83.478 38.0654 82.7289 38.0654Z" fill="#925AFF"/>
<path d="M55.1056 156.996C54.497 156.996 53.8415 156.668 53.0924 156.058C42.839 147.105 35.6757 132.619 32.9602 115.18C30.3383 98.5386 32.1175 80.7248 37.8762 66.2862C46.8186 43.8314 63.5799 32.018 85.0698 32.9087C109.697 33.9401 126.598 45.1909 132.638 64.458C136.43 76.5526 135.541 90.9912 130.11 105.102C124.585 119.493 114.753 132.619 102.299 142.089C85.3975 154.933 80.9966 150.714 76.3615 146.261C73.9269 143.917 71.4455 141.526 66.9508 141.526C62.7371 141.526 60.8644 146.495 59.2257 150.855C58.102 153.902 57.1188 156.48 55.527 156.902C55.3865 156.996 55.2461 156.996 55.1056 156.996ZM82.7757 33.3306C62.5967 33.3306 46.8655 45.0034 38.2976 66.4737C32.5856 80.8185 30.8065 98.5386 33.3816 115.134C36.0971 132.432 43.2136 146.87 53.3733 155.73C54.1692 156.434 54.8247 156.668 55.4333 156.527C56.8379 156.152 57.8211 153.527 58.8511 150.761C60.443 146.448 62.4562 141.151 66.9977 141.151C71.6327 141.151 74.2078 143.636 76.6892 146.026C81.1838 150.339 85.4444 154.465 102.018 141.807C127.02 122.775 139.989 89.6317 132.17 64.6455C126.177 45.519 109.463 34.4089 85.023 33.3775C84.2739 33.3775 83.5248 33.3306 82.7757 33.3306Z" fill="#925AFF"/>
<path d="M55.2925 162.199C51.9684 162.199 48.5038 160.231 44.7583 153.808C36.1904 139.088 30.6657 120.946 29.2612 102.758C27.7629 83.678 31.0403 66.0986 38.4845 53.2539C48.0356 36.7527 64.1414 28.0802 85.0227 28.2208C110.586 28.3614 123.789 40.7842 130.39 51.1912C142.001 69.5207 142.282 96.0071 131.093 120.337C124.023 135.666 122.057 136.557 115.502 139.557C112.833 140.776 109.556 142.276 104.874 145.183C101.409 147.339 98.9279 149.308 96.7742 151.089C90.8282 155.871 87.2231 158.777 72.9433 157.418C69.2914 157.09 66.0609 158.543 62.9241 159.949C60.349 161.074 57.8676 162.199 55.2925 162.199ZM84.6013 28.6427C64.0945 28.6427 48.2697 37.2215 38.9059 53.4883C24.1111 79.0839 26.8266 122.118 45.1796 153.621C51.547 164.543 56.7439 162.246 62.7368 159.527C65.9205 158.074 69.2446 156.621 72.9902 156.949C87.0827 158.262 90.6409 155.449 96.4933 150.714C98.6938 148.933 101.175 146.964 104.64 144.761C109.322 141.807 112.646 140.307 115.315 139.088C121.776 136.135 123.695 135.244 130.718 120.103C141.861 95.9133 141.627 69.5676 130.063 51.3788C120.699 36.612 105.155 28.7365 85.0695 28.6427C84.8822 28.6427 84.7417 28.6427 84.6013 28.6427Z" fill="#925AFF"/>
<path d="M52.7177 168.763C52.0622 168.763 51.4067 168.575 50.7044 168.247C43.4007 164.59 36.2842 142.136 33.2409 132.525C32.7259 130.838 32.3046 129.619 32.1173 129.056C20.3189 98.0698 21.3489 67.5988 34.9732 47.5817C45.5075 32.0649 62.8306 23.7674 85.1165 23.4862C106.7 23.2049 123.508 31.5024 133.621 47.3942C139.988 57.3324 143.313 69.8959 143.266 83.6312C143.219 97.2729 139.848 111.477 133.527 124.697C125.802 140.823 124.679 141.245 117.188 144.011C114.566 144.995 111.241 146.214 106.606 148.464C102.486 150.48 98.6472 153.761 94.9485 156.996C86.4274 164.356 78.3277 171.341 67.9339 161.637C65.1247 159.012 62.0347 161.918 59.0382 164.778C57.3059 166.419 55.6204 168.012 54.0286 168.575C53.5604 168.669 53.139 168.763 52.7177 168.763ZM85.0696 23.9081C62.9242 24.1893 45.7416 32.44 35.301 47.8161C21.7703 67.7394 20.7402 98.0229 32.4918 128.916C32.7259 129.478 33.1005 130.697 33.6155 132.385C36.3778 141.104 43.7284 164.262 50.8917 167.825C51.9217 168.341 52.8581 168.434 53.7945 168.106C55.3395 167.591 56.9314 166.044 58.6637 164.403C61.8006 161.403 65.0779 158.309 68.168 161.262C78.2341 170.685 86.1933 163.84 94.5739 156.621C98.3194 153.386 102.159 150.058 106.325 148.042C111.007 145.745 114.332 144.526 116.953 143.542C124.398 140.776 125.381 140.448 133.012 124.462C145.794 97.7417 145.841 67.5988 133.153 47.6286C123.134 31.8305 106.513 23.6268 85.0696 23.9081Z" fill="#925AFF"/>
<path d="M51.7818 174.622C45.9762 174.622 42.3243 163.653 39.6556 155.543C38.5788 152.308 37.6424 149.495 36.7997 148.136C14.982 112.649 10.3937 79.1308 23.9713 53.7227C35.0674 32.8149 57.9151 19.7358 85.0701 18.7045C105.015 17.9544 124.773 27.2833 137.835 43.7376C150.383 59.4888 154.737 79.1308 149.821 97.5541C141.206 129.76 127.254 148.511 108.339 153.339C104.36 154.371 102.487 157.371 100.427 160.559C98.5072 163.559 96.5408 166.653 92.7485 168.153C84.836 171.294 76.549 171.856 68.543 172.466C62.9715 172.841 57.7278 173.216 52.9991 174.482C52.6245 174.575 52.2031 174.622 51.7818 174.622ZM85.0701 18.9389V19.1733C58.1023 20.2046 35.3951 33.1899 24.3458 53.9571C10.8619 79.2246 15.4502 112.555 37.1742 147.902C38.017 149.308 38.9533 152.121 40.077 155.402C42.933 163.934 46.819 175.654 52.9522 174.06C57.681 172.794 62.9715 172.466 68.543 172.044C76.5022 171.481 84.7424 170.919 92.608 167.778C96.3067 166.325 98.2263 163.278 100.099 160.371C102.065 157.277 104.125 154.043 108.246 152.964C126.973 148.183 140.832 129.525 149.399 97.5072C154.316 79.2246 149.961 59.7232 137.507 44.0657C124.492 27.752 104.921 18.4701 85.0701 19.2202V18.9389Z" fill="#925AFF"/>
<path d="M56.2763 181.795C55.2931 181.795 54.2631 181.654 53.1395 181.279C43.5884 178.044 38.0637 163.934 32.7263 150.245C31.0409 145.886 29.4022 141.807 27.7167 138.057C11.5173 102.851 10.815 67.505 25.8439 43.5501C37.6423 24.705 58.1023 14.4855 85.0232 13.9698C116.86 13.3604 133.762 28.8771 142.377 42.0031C149.446 52.832 153.613 66.0986 154.362 80.3497C155.111 93.9445 152.583 107.774 147.339 119.306C136.056 144.058 134.558 146.589 118.546 153.761C108.152 158.449 104.079 161.965 100.801 164.825C95.8853 169.044 92.3738 172.138 72.4757 175.888C68.9643 176.544 66.2488 177.951 63.8142 179.216C61.3328 180.576 58.9918 181.795 56.2763 181.795ZM85.07 14.2042V14.4386C58.2895 14.9542 37.9233 25.08 26.2185 43.7845C11.2832 67.5988 11.9855 102.758 28.1381 137.87C29.8704 141.62 31.4622 145.745 33.1945 150.105C38.4851 163.653 43.9629 177.716 53.3267 180.857C57.2595 182.217 60.256 180.67 63.7206 178.841C66.1552 177.576 68.9175 176.122 72.5225 175.466C92.2802 171.763 95.7916 168.716 100.614 164.543C103.891 161.684 108.011 158.121 118.452 153.433C134.371 146.261 135.635 144.198 147.012 119.212C158.155 94.7414 156.188 63.8485 142.049 42.3313C133.481 29.2991 116.673 13.876 85.07 14.4855V14.2042Z" fill="#925AFF"/>
<path d="M61.005 190.983C59.8813 190.983 58.5704 190.749 56.8849 190.186C43.7288 185.826 39.1873 172.747 34.4118 158.871C32.3049 152.824 30.1512 146.542 27.2016 141.01C18.1187 123.947 12.8282 105.898 11.8918 88.7878C10.9554 71.7709 14.3732 56.0198 21.7238 43.2688C27.5762 33.0962 35.8163 24.9862 46.1165 19.2202C57.0722 13.0791 70.2283 9.70386 85.1168 9.23507C107.215 8.53189 128.424 18.2357 143.266 35.862C157.967 53.3477 163.866 75.8494 159.419 97.5541C156.656 111.102 150.008 125.681 141.253 137.588C131.749 150.48 120.933 158.59 110.774 160.371C105.811 161.262 103.002 166.137 100.52 170.497C98.2261 174.482 96.0725 178.232 92.6078 178.373C75.0975 179.076 70.1815 184.232 66.9042 187.608C65.0782 189.53 63.7205 190.983 61.005 190.983ZM85.07 9.70386C56.0422 10.6414 34.2713 22.3142 22.0515 43.5032C7.20988 69.2395 9.31674 106.555 27.5762 140.776C30.5258 146.355 32.7263 152.636 34.8331 158.731C39.6087 172.513 44.1033 185.498 57.0254 189.764C62.5032 191.592 64.0482 189.952 66.6233 187.326C69.9474 183.857 74.9571 178.654 92.6547 177.951C95.8852 177.81 97.992 174.154 100.193 170.309C102.721 165.903 105.577 160.887 110.727 159.996C132.404 156.105 153.566 123.947 158.997 97.5072C163.445 75.8963 157.546 53.5821 142.938 36.1902C128.19 18.6108 107.075 9.00068 85.07 9.70386Z" fill="#925AFF"/>
<path d="M58.4762 198.483C57.8676 198.483 57.2121 198.437 56.463 198.249C48.1761 196.515 42.23 188.686 38.2504 174.247C33.6621 157.605 26.4988 144.667 20.1783 133.229C15.1686 124.228 10.4399 115.649 7.91166 106.883C0.795166 81.7561 5.85162 55.5979 21.7701 35.0183C37.2672 15.0012 60.349 3.89096 85.0695 4.50038C105.436 5.01604 123.555 11.2978 137.413 22.6892C150.007 33.0494 158.997 47.3004 163.398 63.8954C167.986 81.3811 167.096 100.414 160.823 117.478C154.081 135.807 141.721 150.808 125.1 160.793C122.431 162.387 119.013 163.09 115.689 163.747C110.258 164.872 104.593 165.997 101.784 171.153C99.9579 174.388 98.7406 176.873 97.7574 178.841C94.5737 185.311 94.4801 185.358 87.8318 184.279C85.8654 183.951 83.4308 183.576 80.1067 183.248C73.9265 182.592 70.9301 186.951 68.0273 191.124C65.4055 194.921 62.9709 198.483 58.4762 198.483ZM83.0563 4.92229C59.2253 4.92229 37.1268 15.8918 22.1447 35.2995C6.273 55.7385 1.26336 81.803 8.37985 106.789C10.8613 115.509 15.59 124.04 20.5996 133.088C26.9202 144.526 34.1303 157.512 38.7186 174.2C42.6514 188.452 48.5038 196.233 56.6035 197.874C62.1281 198.999 64.7968 195.108 67.6528 190.983C70.6024 186.67 73.6924 182.217 80.1535 182.92C83.4776 183.248 85.9122 183.67 87.9254 183.951C94.3396 184.936 94.3396 184.936 97.3829 178.748C98.3661 176.779 99.5834 174.294 101.409 171.013C104.359 165.715 110.071 164.543 115.642 163.418C119.06 162.715 122.291 162.059 124.912 160.512C157.171 141.104 172.808 101.445 162.976 64.0829C153.519 28.0802 124.397 6.00049 85.1163 5.01604C84.3672 4.92229 83.7117 4.92229 83.0563 4.92229Z" fill="#925AFF"/>
<path d="M56.2293 211C45.976 211 41.2004 194.452 36.1908 176.966C33.5221 167.778 30.8066 158.262 27.2015 151.558C24.1583 145.933 21.0214 140.729 17.9313 135.666C7.53752 118.509 -1.49856 103.695 0.186923 81.1935C2.20014 55.0822 12.594 33.565 30.2448 18.9858C45.976 6.04734 66.4827 -0.703158 88.1131 0.0468978C109.556 0.796953 129.548 8.76629 144.39 22.5954C160.964 38.0185 169.812 59.5357 170 84.8032C170.14 103.18 164.054 121.603 152.396 138.057C141.58 153.34 127.067 165.247 111.429 171.716C106.607 173.732 103.61 178.841 101.035 183.342C97.9451 188.686 95.2764 193.28 90.5009 190.983C83.2439 187.514 77.8129 186.623 73.8801 188.264C69.1514 190.233 67.3255 195.53 65.5931 200.593C63.9545 205.421 62.3626 209.969 58.383 210.813C57.6339 210.953 56.9316 211 56.2293 211ZM85.0699 0.468804C46.8187 0.468804 4.86883 25.3144 0.655113 81.2404C-1.03037 103.601 7.95889 118.368 18.3527 135.479C21.396 140.542 24.5797 145.745 27.6229 151.371C31.228 158.121 33.9903 167.637 36.659 176.872C41.7154 194.499 46.9592 212.688 58.2894 210.391C62.0349 209.641 63.5799 205.187 65.1718 200.499C66.8573 195.577 68.8237 189.952 73.6928 187.889C77.7661 186.201 83.3376 187.092 90.6882 190.608C95.136 192.717 97.5706 188.498 100.661 183.154C103.282 178.56 106.326 173.403 111.289 171.341C139.755 159.621 169.859 125.353 169.531 84.8969C169.11 28.8772 127.02 1.92204 88.0663 0.609439C87.0831 0.468804 86.0999 0.468804 85.0699 0.468804Z" fill="#925AFF"/>
</g>
<defs>
<clipPath id="clip0_552_188449">
<rect width="170" height="211" fill="white"/>
</clipPath>
</defs>
</svg>
