<svg width="307" height="43" viewBox="0 0 307 43" fill="none" xmlns="http://www.w3.org/2000/svg">
<g clip-path="url(#clip0_899_81423)">
<path d="M109.773 1.30993L139.169 33.5V0.172363H141.987V42.2931L112.641 10.4289V43.0002H109.773V1.30993Z" fill="white"/>
<path d="M151.477 0.977539L151.576 41.6286H155.108V16.5776H176.962V14.4992H155.201V3.43714H176.577V1.26039L151.477 0.977539Z" fill="white"/>
<path d="M188.091 0.627441H184.273V41.8504H188.091V0.627441Z" fill="white"/>
<path d="M200.561 0.879361V41.8502H225.946V39.2061H204.254V17.5247H225.568V15.1881H204.061V3.08685H225.884V0.817871L200.561 0.879361Z" fill="white"/>
<path d="M236.695 0V41.8501H259.921V39.7041H240.326V0H236.695Z" fill="white"/>
<path d="M33.4976 34.9815V23.569H37.3768V37.7547H35.341C35.341 37.7547 31.8404 42.1697 22.6792 42.4833C14.4986 42.76 2.97263 38.9845 0.669918 28.1746C-3.97896 6.36403 16.9627 1.15582 20.5813 0.879115C30.0032 0.171979 32.7962 2.33028 32.7962 2.33028V4.66075H32.2873C32.2873 4.66075 30.537 2.77301 25.2922 2.67462C21.6551 2.61313 17.9993 3.474 14.7531 5.13423C4.71674 10.2502 1.22232 23.0278 7.19325 32.5158C9.81872 36.6848 14.3993 40.0729 22.1392 40.3988C31.139 40.1467 32.4114 36.9984 33.4976 34.9815Z" fill="white"/>
<path d="M306.999 4.36586C306.999 6.47496 305.33 8.1229 303.157 8.1229C301.01 8.1229 299.297 6.46882 299.297 4.36586C299.297 2.30594 301.01 0.651855 303.157 0.651855C305.33 0.658004 306.999 2.30594 306.999 4.36586ZM300.253 4.36586C300.253 6.01994 301.488 7.32968 303.176 7.32968C304.821 7.32968 306.031 6.01994 306.031 4.39045C306.031 2.73637 304.821 1.40203 303.151 1.40203C301.482 1.40203 300.253 2.73637 300.253 4.36586ZM302.562 6.31509H301.693V2.60109C302.034 2.53345 302.518 2.48426 303.133 2.48426C303.84 2.48426 304.163 2.60109 304.436 2.75482C304.641 2.91469 304.802 3.20984 304.802 3.57263C304.802 3.97847 304.48 4.29822 304.026 4.43349V4.47654C304.393 4.61182 304.597 4.88237 304.709 5.38044C304.821 5.94615 304.895 6.17366 304.982 6.30894H304.045C303.933 6.17366 303.865 5.83547 303.747 5.40504C303.679 4.9992 303.449 4.81473 302.971 4.81473H302.562V6.31509ZM302.586 4.21213H302.996C303.474 4.21213 303.865 4.0584 303.865 3.67102C303.865 3.33282 303.611 3.10531 303.064 3.10531C302.835 3.10531 302.673 3.1299 302.586 3.14835V4.21213Z" fill="white"/>
<path d="M280.534 1.13154L266.73 0.940918V41.9117H280.534C307.124 39.1385 307.379 2.83481 280.534 1.13154ZM280.534 39.5813H270.61V3.27754C270.61 3.46816 277.797 3.27754 277.797 3.27754C301.588 4.4766 302.674 35.5475 280.534 39.5813Z" fill="white"/>
<path d="M47.8477 0V41.8501H71.0735V39.7041H51.4786V0H47.8477Z" fill="white"/>
<path d="M77.8711 0.879361V41.8502H103.251V39.2061H81.5579V17.5247H102.872V15.1881H81.3655V3.08685H103.189V0.817871L77.8711 0.879361Z" fill="white"/>
</g>
<defs>
<clipPath id="clip0_899_81423">
<rect width="307" height="43" fill="white"/>
</clipPath>
</defs>
</svg>
