<svg width="101" height="101" viewBox="0 0 101 101" fill="none" xmlns="http://www.w3.org/2000/svg">
                    <path d="M84.0905 29.725V71.8083C83.4238 71.6833 82.7155 71.6 82.0072 71.6C76.2572 71.6 71.5905 76.2666 71.5905 82.0166C71.5905 82.725 71.6738 83.4333 71.7988 84.1H29.7155C29.8405 83.4333 29.9238 82.725 29.9238 82.0166C29.9238 76.2666 25.2572 71.6 19.5072 71.6C18.7988 71.6 18.0905 71.6833 17.4238 71.8083V29.725C18.0905 29.85 18.7988 29.9333 19.5072 29.9333C25.2572 29.9333 29.9238 25.2666 29.9238 19.5166C29.9238 18.8083 29.8405 18.1 29.7155 17.4333H71.7988C71.6738 18.1 71.5905 18.8083 71.5905 19.5166C71.5905 25.2666 76.2572 29.9333 82.0072 29.9333C82.7155 29.9333 83.4238 29.85 84.0905 29.725Z" stroke="#925AFF" stroke-width="3" stroke-linecap="round" stroke-linejoin="round"></path>
                    <path d="M29.9251 19.5166C29.9251 25.2666 25.2585 29.9332 19.5085 29.9332C18.8001 29.9332 18.0918 29.8499 17.4251 29.7249C12.6751 28.7666 9.0918 24.5582 9.0918 19.5166C9.0918 13.7666 13.7585 9.09991 19.5085 9.09991C24.5501 9.09991 28.7585 12.6832 29.7168 17.4332C29.8418 18.0999 29.9251 18.8082 29.9251 19.5166Z" stroke="#925AFF" stroke-width="3" stroke-linecap="round" stroke-linejoin="round"></path>
                    <path d="M92.4251 19.5166C92.4251 24.5582 88.8418 28.7666 84.0918 29.7249C83.4251 29.8499 82.7168 29.9332 82.0085 29.9332C76.2585 29.9332 71.5918 25.2666 71.5918 19.5166C71.5918 18.8082 71.6751 18.0999 71.8001 17.4332C72.7585 12.6832 76.9668 9.09991 82.0085 9.09991C87.7585 9.09991 92.4251 13.7666 92.4251 19.5166Z" stroke="#925AFF" stroke-width="3" stroke-linecap="round" stroke-linejoin="round"></path>
                    <path d="M29.9251 82.0166C29.9251 82.7249 29.8418 83.4332 29.7168 84.0999C28.7585 88.8499 24.5501 92.4332 19.5085 92.4332C13.7585 92.4332 9.0918 87.7666 9.0918 82.0166C9.0918 76.9749 12.6751 72.7666 17.4251 71.8082C18.0918 71.6832 18.8001 71.5999 19.5085 71.5999C25.2585 71.5999 29.9251 76.2666 29.9251 82.0166Z" stroke="#925AFF" stroke-width="3" stroke-linecap="round" stroke-linejoin="round"></path>
                    <path d="M92.4251 82.0166C92.4251 87.7666 87.7585 92.4332 82.0085 92.4332C76.9668 92.4332 72.7585 88.8499 71.8001 84.0999C71.6751 83.4332 71.5918 82.7249 71.5918 82.0166C71.5918 76.2666 76.2585 71.5999 82.0085 71.5999C82.7168 71.5999 83.4251 71.6832 84.0918 71.8082C88.8418 72.7666 92.4251 76.9749 92.4251 82.0166Z" stroke="#925AFF" stroke-width="3" stroke-linecap="round" stroke-linejoin="round"></path>
                  </svg>