<svg width="456" height="69" viewBox="0 0 456 69" fill="none" xmlns="http://www.w3.org/2000/svg">
<g clip-path="url(#clip0_1109_306692)">
<path d="M38.0905 22.2202C38.0905 24.5046 38.0905 26.6876 38.0905 28.972C37.8365 28.972 37.5825 28.972 37.3539 28.972C33.569 28.972 29.8095 28.972 26.0246 28.972C24.3481 28.972 22.6462 28.9974 20.9696 29.0735C19.6233 29.1243 18.277 29.3273 16.9561 29.7081C13.8063 30.5965 11.8249 32.7032 10.7072 35.6984C10.0722 37.3482 9.76736 39.0489 9.64035 40.8003C9.51334 42.4755 9.41173 44.1508 9.41173 45.8514C9.43713 48.3643 9.56414 50.8772 10.1992 53.3393C10.3008 53.7454 10.4532 54.1515 10.5802 54.5577C11.2153 56.639 12.587 58.0858 14.4413 59.1265C15.8638 59.9134 17.4134 60.3195 18.9883 60.5733C20.487 60.8018 22.0111 60.8525 23.5352 60.8525C28.4378 60.8525 33.315 60.8525 38.2176 60.8525C38.4716 60.8525 38.7256 60.8779 39.0304 60.9033C39.0304 63.1624 39.0304 65.3453 39.0304 67.6043C38.7764 67.6297 38.5732 67.6551 38.3446 67.6551C32.0957 67.6551 25.8722 67.6805 19.6233 67.6551C17.3117 67.6551 15.0002 67.5028 12.7394 66.9444C7.17636 65.5229 3.51848 62.0455 1.71494 56.6136C1.02908 54.5323 0.648054 52.4255 0.47024 50.2426C0.241622 47.4505 0.21622 44.6584 0.394034 41.8664C0.546446 39.125 0.927475 36.4345 1.68953 33.7947C3.16285 28.7689 6.3889 25.52 11.1391 23.6924C13.2474 22.8802 15.4574 22.4233 17.7182 22.3217C19.0899 22.271 20.487 22.2202 21.8587 22.2202C26.9899 22.2202 32.1465 22.2202 37.2777 22.2202C37.5571 22.2202 37.8111 22.2202 38.0905 22.2202Z" fill="white"/>
<path d="M342.712 39.3282C342.712 37.2976 342.712 35.3431 342.712 33.3125C342.89 33.2871 343.068 33.2871 343.246 33.2871C349.723 33.2871 356.201 33.2871 362.678 33.2871C364.151 33.2871 365.599 33.5663 366.92 34.2009C369.486 35.47 371.086 37.4752 371.772 40.2673C372.077 41.5111 372.204 42.7802 372.204 44.0747C372.204 49.9381 372.204 55.8015 372.204 61.6649C372.204 62.6294 372.077 63.5939 371.797 64.5331C371.416 65.7261 370.654 66.5891 369.46 66.9952C368.749 67.249 368.013 67.4013 367.276 67.5029C366.539 67.6044 365.777 67.6044 365.015 67.6044C359.808 67.6044 354.626 67.6298 349.418 67.6044C348.453 67.6044 347.462 67.5536 346.497 67.4013C344.363 67.0967 342.712 66.0307 341.569 64.1777C340.655 62.6802 340.197 61.0303 339.994 59.3043C339.791 57.629 339.791 55.9538 339.994 54.2531C340.35 50.928 342.001 48.4659 344.973 46.9683C346.269 46.3084 347.666 46.1307 349.114 46.1561C353.889 46.1561 358.665 46.1561 363.44 46.1561C363.669 46.1561 363.923 46.1561 364.101 46.1561C364.177 46.0546 364.228 46.0292 364.228 46.0038C364.202 44.76 364.278 43.4909 364.126 42.2472C363.923 40.5465 362.754 39.5566 361.052 39.4043C360.494 39.3535 359.909 39.3282 359.351 39.3282C354.067 39.3282 348.783 39.3282 343.5 39.3282C343.271 39.3282 343.017 39.3282 342.712 39.3282ZM364.279 51.9941C364.024 51.9941 363.847 51.9687 363.669 51.9687C359.757 51.9687 355.845 51.9687 351.908 51.9687C351.552 51.9687 351.171 51.9941 350.815 52.0956C349.418 52.5017 348.453 53.3394 348.174 54.8116C347.894 56.3091 347.945 57.8067 348.351 59.2535C348.478 59.685 348.682 60.0658 348.885 60.4719C348.961 60.6242 349.063 60.7765 349.19 60.8526C349.952 61.3349 350.765 61.7664 351.73 61.7664C355.235 61.7664 358.741 61.7664 362.272 61.7664C362.551 61.7664 362.831 61.7156 363.11 61.6649C363.796 61.5126 364.177 61.0557 364.253 60.345C364.278 60.1419 364.253 59.9388 364.253 59.7358C364.253 57.4006 364.253 55.0654 364.253 52.7556C364.278 52.5017 364.279 52.2733 364.279 51.9941Z" fill="white"/>
<path d="M184.634 46.1561C184.584 44.8362 184.66 43.6432 184.482 42.4502C184.228 40.6734 182.907 39.5312 181.129 39.3789C180.672 39.3282 180.189 39.3282 179.732 39.3282C174.448 39.3282 169.165 39.3282 163.881 39.3282C163.627 39.3282 163.348 39.3282 163.094 39.3282C162.941 38.8713 162.89 34.4039 163.017 33.3125C163.17 33.3125 163.348 33.2871 163.525 33.2871C169.977 33.2871 176.455 33.2871 182.907 33.2871C183.898 33.2871 184.888 33.4394 185.854 33.6932C188.902 34.5816 190.782 36.6122 191.671 39.6074C192.103 41.0796 192.28 42.5771 192.28 44.1255C192.28 50.065 192.28 56.0045 192.28 61.9695C192.28 62.5533 192.23 63.1371 192.153 63.7209C191.849 65.5992 190.731 66.7668 188.927 67.2744C187.911 67.579 186.87 67.6044 185.854 67.6044C180.392 67.6298 174.931 67.6298 169.469 67.6044C168.326 67.6044 167.209 67.579 166.091 67.3252C164.084 66.8683 162.611 65.7515 161.671 63.9239C160.934 62.4771 160.553 60.9288 160.376 59.3297C160.198 57.6798 160.198 56.0045 160.376 54.3547C160.579 52.3748 161.188 50.5473 162.484 49.0243C163.983 47.2729 165.939 46.3845 168.225 46.2069C168.733 46.1561 169.241 46.1815 169.749 46.1561C174.448 46.1561 179.122 46.1561 183.822 46.1561C184.05 46.1561 184.279 46.1561 184.634 46.1561ZM184.609 51.9941C184.406 51.9687 184.304 51.9687 184.177 51.9687C180.087 51.9687 176.023 51.9687 171.933 51.9687C171.197 51.9687 170.511 52.1971 169.876 52.6033C169.165 53.0602 168.707 53.6693 168.58 54.507C168.504 55.04 168.428 55.5984 168.403 56.1315C168.352 57.5021 168.453 58.8474 168.961 60.1419C169.063 60.3957 169.165 60.7257 169.368 60.8526C170.13 61.3095 170.917 61.7664 171.857 61.7664C175.439 61.7664 179.046 61.7664 182.628 61.7664C183.009 61.7664 183.415 61.6395 183.796 61.5126C184.304 61.3349 184.533 60.9034 184.584 60.3957C184.609 60.2688 184.584 60.1419 184.584 60.0404C184.584 57.5529 184.584 55.0654 184.584 52.5525C184.609 52.3748 184.609 52.2225 184.609 51.9941Z" fill="white"/>
<path d="M248.496 68.0863C246.387 68.0609 244.304 67.9848 242.247 67.6548C240.57 67.401 238.944 66.9695 237.42 66.2588C234.626 64.9896 232.823 62.8067 231.705 59.9893C230.943 58.0348 230.511 56.0042 230.333 53.8974C230.105 51.5622 230.13 49.227 230.359 46.9172C230.562 44.7851 230.968 42.7037 231.756 40.7239C233.102 37.3734 235.464 35.1143 238.919 33.9975C240.494 33.4898 242.094 33.1852 243.745 33.0076C245.93 32.7791 248.115 32.7283 250.324 32.8045C253.017 32.8806 255.684 33.1091 258.25 33.9975C258.733 34.1498 259.19 34.3528 259.672 34.5305C262.619 35.7996 264.55 38.0333 265.667 40.9777C266.429 42.9322 266.81 44.9881 266.988 47.0695C267.166 49.1763 267.166 51.283 266.988 53.3898C266.76 55.8011 266.277 58.1363 265.337 60.3954C264.016 63.5682 261.73 65.675 258.478 66.741C256.573 67.3756 254.643 67.731 252.636 67.8579C251.214 67.9848 249.867 68.0355 248.496 68.0863ZM259.19 50.3185C259.139 48.694 259.164 47.0695 258.834 45.4704C258.301 42.8306 256.929 40.8 254.389 39.7086C253.779 39.4547 253.144 39.2263 252.484 39.074C250.655 38.5917 248.775 38.5917 246.921 38.7186C245.574 38.8202 244.228 39.0994 242.958 39.607C241.078 40.3685 239.783 41.663 239.148 43.6175C238.741 44.8105 238.487 46.0542 238.411 47.298C238.335 48.9478 238.284 50.5723 238.309 52.2222C238.335 53.6436 238.462 55.065 238.894 56.4357C239.732 59.1263 241.459 60.903 244.228 61.563C246.133 62.0199 248.038 62.0453 249.969 61.9691C250.985 61.9183 252.001 61.8168 252.966 61.5122C255.379 60.7761 257.234 59.4055 258.25 57.0195C258.606 56.1819 258.86 55.2935 258.936 54.3797C259.063 53.0344 259.114 51.6638 259.19 50.3185Z" fill="white"/>
<path d="M60.877 68.0867C58.8194 68.0613 56.7873 67.9851 54.7551 67.6552C53.1802 67.4013 51.6307 67.0206 50.1573 66.3607C47.0329 64.99 45.0261 62.604 43.8577 59.4566C43.1718 57.6037 42.7908 55.6746 42.613 53.7201C42.4097 51.588 42.4351 49.4558 42.6384 47.3491C42.8416 45.1662 43.2988 43.034 44.1117 40.9781C45.585 37.2468 48.2522 34.8608 52.1387 33.7948C53.9168 33.2871 55.7458 33.0079 57.6001 32.9318C59.2512 32.881 60.877 32.8049 62.5281 32.8302C65.1699 32.881 67.7863 33.1348 70.3265 33.8963C73.9336 35.0131 76.4738 37.2722 77.8201 40.8004C78.1757 41.7395 78.5059 42.7041 78.7092 43.694C79.395 46.7399 79.4712 49.8366 79.268 52.9586C79.141 54.9385 78.8362 56.9183 78.2519 58.822C78.0995 59.3297 77.9217 59.8119 77.7185 60.3196C76.423 63.5432 74.086 65.6753 70.8091 66.7922C68.904 67.4267 66.9734 67.7821 64.9667 67.909C63.595 67.9851 62.2233 68.0359 60.877 68.0867ZM71.368 50.3189C71.4442 48.6944 71.4442 47.0699 71.114 45.4708C70.6059 42.9071 69.3104 40.9273 66.8718 39.8105C66.0336 39.4297 65.1191 39.1251 64.23 38.9474C62.2741 38.5413 60.2673 38.5667 58.286 38.8205C56.8889 38.9982 55.568 39.4297 54.3233 40.115C52.977 40.8511 52.0625 41.9172 51.5291 43.364C51.0464 44.6585 50.767 46.0292 50.6908 47.3999C50.6146 48.9228 50.5892 50.4458 50.5892 51.9687C50.5892 53.2632 50.6908 54.5577 51.0464 55.8269C51.9101 58.822 53.739 60.878 56.8381 61.6141C57.6763 61.8172 58.5654 61.8933 59.4291 61.9695C61.2326 62.1218 63.0361 62.071 64.8143 61.6649C68.0149 60.9542 70.0725 58.9997 70.9362 55.8269C71.1648 54.9639 71.2664 54.0247 71.3426 53.1363C71.4188 52.1718 71.368 51.2326 71.368 50.3189Z" fill="white"/>
<path d="M122.273 33.3122C124.864 33.3122 127.354 33.3122 129.894 33.3122C129.919 33.5153 129.945 33.6676 129.945 33.8452C129.894 37.5257 129.818 41.1808 129.742 44.8613C129.665 49.1002 129.589 53.3391 129.513 57.578C129.513 57.7303 129.513 57.9079 129.538 58.0602C129.564 58.2379 129.589 58.4156 129.818 58.4918C130.021 58.5425 130.224 58.5425 130.377 58.3648C130.732 57.908 131.164 57.4764 131.469 56.9942C136.321 49.8109 141.198 42.6022 146.024 35.3936C147.701 32.9061 150.825 32.3223 153.086 33.1853C154.839 33.8706 155.652 35.2667 155.88 37.0688C155.931 37.5257 155.956 38.008 155.956 38.4649C155.956 47.8818 155.956 57.2988 155.956 66.7157C155.956 66.9949 155.931 67.2741 155.931 67.5787C153.365 67.5787 150.876 67.5787 148.285 67.5787C148.285 67.3249 148.285 67.0965 148.285 66.8934C148.361 62.4261 148.463 57.9587 148.539 53.5168C148.59 50.4455 148.641 47.3488 148.717 44.2775C148.717 43.9221 148.742 43.5414 148.742 43.186C148.742 43.0084 148.717 42.8307 148.666 42.653C148.564 42.3738 148.387 42.2976 148.158 42.5007C147.853 42.7799 147.574 43.0845 147.345 43.4145C145.897 45.5212 144.449 47.628 143.001 49.7348C139.318 55.0905 135.635 60.4208 131.977 65.7766C130.936 67.2995 129.538 68.061 127.735 68.061C126.998 68.061 126.236 68.061 125.499 67.9087C123.62 67.5787 122.527 66.2588 122.35 64.2536C122.324 63.8475 122.324 63.4414 122.324 63.0352C122.324 53.3898 122.324 43.7191 122.324 34.0737C122.273 33.8199 122.273 33.5914 122.273 33.3122Z" fill="white"/>
<path d="M83.6367 33.3122C86.2023 33.3122 88.6917 33.3122 91.2827 33.3122C91.2827 33.566 91.3081 33.8198 91.3081 34.0737C91.3081 42.3484 91.3081 50.6231 91.3081 58.8978C91.3081 59.3801 91.3843 59.8624 91.4605 60.3447C91.5621 61.0554 92.0448 61.4361 92.7052 61.6138C93.01 61.6899 93.3403 61.7407 93.6705 61.7407C98.1412 61.7407 102.612 61.7407 107.083 61.7407C107.21 61.7407 107.362 61.7153 107.565 61.7153C107.565 52.2476 107.565 42.8053 107.565 33.3883C108.048 33.236 114.449 33.1853 115.465 33.3376C115.465 34.8859 115.465 36.4596 115.465 38.0333C115.465 39.6071 115.465 41.2062 115.465 42.7799C115.465 44.3536 115.465 45.9527 115.465 47.5264C115.465 49.1002 115.465 50.6485 115.465 52.2222C115.465 53.7959 115.465 55.3951 115.465 56.9688C115.465 58.5425 115.465 60.1162 115.465 61.7661C117.091 61.7661 118.641 61.7661 120.292 61.7661C120.317 63.7205 120.292 65.5989 120.317 67.5533C120.063 67.5787 119.835 67.6041 119.631 67.6041C109.369 67.6041 99.1065 67.6041 88.8695 67.6041C88.2853 67.6041 87.701 67.5533 87.1168 67.4772C85.5165 67.2487 83.6367 65.5481 83.6621 63.3144C83.7383 56.385 83.6875 49.4301 83.6875 42.5007C83.6875 39.7086 83.6875 36.8911 83.6875 34.099C83.6367 33.8706 83.6367 33.6168 83.6367 33.3122Z" fill="white"/>
<path d="M270.646 33.3122C273.237 33.3122 275.727 33.3122 278.293 33.3122C278.318 33.566 278.343 33.8199 278.343 34.0737C278.343 36.6881 278.343 39.3025 278.343 41.9169C278.343 42.7038 278.369 43.516 278.521 44.2775C278.826 46.1051 280.02 47.1711 281.849 47.3996C282.382 47.4757 282.941 47.5011 283.474 47.5011C286.929 47.5011 290.384 47.5011 293.838 47.5011C294.067 47.5011 294.27 47.5011 294.55 47.5011C294.55 42.7546 294.55 38.0588 294.55 33.3884C295.058 33.2361 301.764 33.2107 302.475 33.3376C302.475 44.709 302.475 56.1058 302.475 67.4772C301.891 67.6295 295.109 67.6295 294.575 67.4518C294.575 62.7814 294.575 58.111 294.575 53.3899C294.27 53.3645 294.016 53.3391 293.762 53.3391C289.139 53.3391 284.541 53.3391 279.918 53.3391C278.826 53.3391 277.734 53.263 276.641 53.0345C274.812 52.603 273.288 51.74 272.145 50.217C271.332 49.1256 270.951 47.8818 270.799 46.5619C270.697 45.7751 270.672 44.9882 270.672 44.2014C270.647 40.7747 270.672 37.3481 270.672 33.9214C270.647 33.7437 270.646 33.566 270.646 33.3122Z" fill="white"/>
<path d="M192.891 67.5786C193.018 67.274 193.094 67.071 193.17 66.8933C197.717 56.6387 202.264 46.4095 206.76 36.1296C207.954 33.4136 210.621 32.6268 212.78 32.8552C213.187 32.906 213.593 32.9821 213.974 33.109C215.473 33.5659 216.565 34.5051 217.2 35.9519C220.249 42.856 223.297 49.7346 226.345 56.6387C227.818 59.9892 229.317 63.3397 230.79 66.7156C230.892 66.9694 231.019 67.2233 231.146 67.5786C230.867 67.604 230.689 67.6294 230.486 67.6294C228.276 67.6294 226.066 67.6294 223.83 67.6548C223.373 67.6548 223.17 67.4771 222.992 67.071C220.68 61.3853 218.343 55.6996 216.032 50.0138C214.914 47.2979 213.796 44.582 212.704 41.8407C212.552 41.4853 212.501 41.1046 212.374 40.7492C212.323 40.5969 212.222 40.3938 212.069 40.3431C211.866 40.2415 211.688 40.4192 211.586 40.5969C211.536 40.6731 211.485 40.7746 211.459 40.8761C210.012 44.5312 208.564 48.1863 207.116 51.8414C205.084 56.9179 203.077 61.9691 201.045 67.0202C200.791 67.6548 200.892 67.6548 200.13 67.6548C197.946 67.6548 195.736 67.6548 193.551 67.6548C193.373 67.604 193.195 67.5786 192.891 67.5786Z" fill="white"/>
<path d="M338.977 33.4135C338.165 34.2766 337.377 35.1396 336.564 36.0026C333.211 39.5815 329.858 43.1858 326.505 46.7648C326.302 46.9679 326.073 47.1455 325.895 47.3486C325.489 47.8055 325.057 48.237 324.702 48.7193C324.219 49.4046 324.194 50.1914 324.625 50.9022C324.905 51.3844 325.235 51.8667 325.641 52.2728C329.985 56.7655 334.354 61.2583 338.698 65.7256C339.155 66.2079 339.638 66.6901 340.095 67.1724C340.197 67.2739 340.273 67.3755 340.4 67.5785C340.121 67.6039 339.917 67.6293 339.74 67.6293C337.072 67.6293 334.431 67.6293 331.763 67.6293C331.331 67.6293 331.052 67.477 330.773 67.1724C326.785 62.8066 322.796 58.4662 318.808 54.1257C318.427 53.7196 318.021 53.3389 317.716 52.9074C317.335 52.3744 316.979 51.8413 316.725 51.2575C316.293 50.2676 316.344 49.2523 316.878 48.3385C317.259 47.6786 317.691 47.0186 318.199 46.4602C319.824 44.5819 321.476 42.7543 323.152 40.9268C325.311 38.5408 327.47 36.1802 329.604 33.7943C329.909 33.4643 330.188 33.312 330.646 33.312C333.237 33.3374 335.802 33.312 338.393 33.312C338.596 33.312 338.774 33.312 338.977 33.312C338.952 33.3374 338.977 33.3628 338.977 33.4135Z" fill="white"/>
<path d="M307.503 33.312C310.043 33.312 312.558 33.312 315.098 33.312C315.098 44.7342 315.098 56.1056 315.098 67.477C314.616 67.6293 308.265 67.6547 307.554 67.5278C307.427 67.0963 307.376 34.7842 307.503 33.312Z" fill="white"/>
<path d="M451.128 35.4193C452.297 35.4193 453.262 36.3838 453.262 37.5514V53.9232C453.262 60.345 448.029 65.5738 441.602 65.5738H395.676C394.507 65.5738 393.542 64.6093 393.542 63.4417V47.0699C393.542 40.6481 398.775 35.4193 405.201 35.4193H451.128ZM451.128 33.3633H405.201C397.606 33.3633 391.459 39.5059 391.459 47.0953V63.467C391.459 65.7769 393.339 67.6552 395.65 67.6552H441.577C449.172 67.6552 455.32 61.5126 455.32 53.9232V37.5514C455.32 35.2416 453.44 33.3633 451.128 33.3633Z" fill="white"/>
<path d="M417.597 41.7397H408.274H406.141V60.396H409.392V53.7203H417.597C419.985 53.7203 421.915 51.7913 421.915 49.4053V46.0548C421.915 43.6688 419.985 41.7397 417.597 41.7397ZM418.715 48.1615C418.715 49.6845 417.47 50.9282 415.946 50.9282H409.392V44.5572H415.946C417.47 44.5572 418.715 45.801 418.715 47.3239V48.1615Z" fill="white"/>
<path d="M439.239 43.1358H435.861V41.7651H432.609V43.1358H429.231C426.208 43.1358 423.744 45.5979 423.744 48.6184V52.8827C423.744 55.9032 426.208 58.3654 429.231 58.3654H432.609V60.396H435.861V58.3654H439.239C442.262 58.3654 444.726 55.9032 444.726 52.8827V48.6184C444.726 45.5979 442.288 43.1358 439.239 43.1358ZM431.162 55.954C429.002 55.954 427.25 54.2026 427.25 52.0451V49.4561C427.25 47.2985 429.002 45.5471 431.162 45.5471H432.635V55.954H431.162ZM441.271 52.0451C441.271 54.2026 439.519 55.954 437.36 55.954H435.886V45.5471H437.36C439.519 45.5471 441.271 47.2985 441.271 49.4561V52.0451Z" fill="white"/>
<path d="M403.447 57.1221H400.195V60.371H403.447V57.1221Z" fill="white"/>
<path d="M279.866 0.4164C278.952 0.187956 277.987 0.0864258 277.072 0.0864258C275.802 0.0864258 274.634 0.289487 273.567 0.695608C272.525 1.10173 271.611 1.68553 270.874 2.42163C270.112 3.20849 269.528 4.17303 269.121 5.28986C268.715 6.40669 268.512 7.70121 268.512 9.12263C268.512 10.6202 268.715 11.9655 269.147 13.1077C269.579 14.2499 270.163 15.1891 270.899 15.9506C271.662 16.712 272.576 17.2704 273.618 17.6258C274.659 17.9812 275.802 18.1588 277.072 18.1588C277.733 18.1588 278.368 18.1081 278.927 18.0065C279.485 17.905 279.993 17.7781 280.476 17.6258C281.035 17.4481 281.492 17.2704 281.848 17.1182C282.178 16.9659 282.584 16.7882 282.991 16.6105L283.042 16.5851V13.7169H282.737L282.711 13.7423C281.873 14.4784 280.984 15.0622 280.019 15.4175C279.054 15.7729 278.037 15.9759 276.945 15.9759C276.158 15.9759 275.396 15.849 274.684 15.5698C273.973 15.2906 273.363 14.8845 272.83 14.3261C272.322 13.793 271.89 13.0823 271.585 12.2193C271.255 11.3563 271.103 10.3156 271.103 9.12263C271.103 7.98042 271.255 6.96511 271.535 6.07672C271.814 5.21371 272.246 4.47762 272.754 3.9192C273.287 3.3354 273.897 2.90389 274.583 2.62469C275.269 2.34548 276.056 2.21856 276.894 2.21856C277.936 2.21856 278.952 2.39624 279.866 2.7516C280.781 3.10696 281.721 3.69076 282.661 4.47762L282.686 4.503H282.991V1.63476L282.94 1.60938C281.848 1.05096 280.806 0.644843 279.866 0.4164Z" fill="white"/>
<path d="M292.06 17.829H301.128V15.5953H293.609C292.746 15.5953 292.06 14.91 292.06 14.047V9.40194H301.128V7.16827H292.06V4.17312C292.06 3.31011 292.746 2.62478 293.609 2.62478H301.128V0.391113H292.06C290.688 0.391113 289.57 1.50795 289.57 2.87861V15.3415C289.596 16.7375 290.688 17.829 292.06 17.829Z" fill="white"/>
<path d="M305.803 2.62478H311.95V17.829H314.439V2.62478H320.612V0.391113H305.803V2.62478Z" fill="white"/>
<path d="M337.605 8.36125C336.944 7.8536 336.208 7.52363 335.471 7.37133C334.734 7.24442 333.744 7.16827 332.575 7.16827H328.765V0.391113H326.275V17.829H332.524C333.693 17.829 334.683 17.7274 335.42 17.499C336.182 17.2705 336.893 16.9152 337.528 16.3822C338.087 15.9506 338.545 15.3922 338.875 14.6815C339.205 13.9962 339.383 13.2093 339.383 12.3717C339.383 11.5087 339.23 10.7218 338.951 10.0619C338.646 9.40194 338.189 8.81814 337.605 8.36125ZM336.766 12.4479C336.766 13.057 336.665 13.5647 336.487 13.9454C336.284 14.3262 335.979 14.6815 335.573 14.9607C335.166 15.2399 334.683 15.4176 334.15 15.5191C333.617 15.6207 332.804 15.6714 331.788 15.6714H328.739V9.32579H331.838C332.855 9.32579 333.642 9.35117 334.175 9.42732C334.709 9.47809 335.191 9.65576 335.598 9.93497C335.979 10.1888 336.284 10.5442 336.462 10.9503C336.665 11.3818 336.766 11.8894 336.766 12.4479Z" fill="white"/>
<path d="M367.199 0.391113C366.234 0.391113 365.395 1.0003 365.065 1.88869L359.299 17.7021L359.248 17.829H361.788L363.49 13.0317H370.831L372.533 17.829H375.175L369.358 1.88869C369.002 1.0003 368.164 0.391113 367.199 0.391113ZM370.044 10.8741H364.252L366.869 4.02083C366.97 3.767 367.351 3.767 367.453 4.02083L370.044 10.8741Z" fill="white"/>
<path d="M381.043 17.829H383.532V2.62478H391.966V17.829H394.455V2.49787C394.455 1.33027 393.515 0.391113 392.347 0.391113H383.177C382.008 0.391113 381.068 1.33027 381.068 2.49787V17.829H381.043Z" fill="white"/>
<path d="M400.096 2.62478H406.243V17.829H408.732V2.62478H414.905V0.391113H400.096V2.62478Z" fill="white"/>
<path d="M423.21 17.829H432.101V15.5953H424.506C423.693 15.5953 423.032 14.9353 423.032 14.1231V9.40194H432.101V7.16827H423.032V4.09697C423.032 3.28473 423.693 2.62478 424.506 2.62478H432.101V0.391113H423.21C421.737 0.391113 420.543 1.5841 420.543 3.05629V15.1638C420.543 16.636 421.737 17.829 423.21 17.829Z" fill="white"/>
<path d="M451.457 17.829L443.023 8.89429L451.355 0.416496H448.18L441.601 7.19365V0.391113H439.137V17.829H441.601V10.7472L448.281 17.829H451.457Z" fill="white"/>
</g>
<defs>
<clipPath id="clip0_1109_306692">
<rect width="455" height="68" fill="white" transform="translate(0.318359 0.0864258)"/>
</clipPath>
</defs>
</svg>
