<svg width="397" height="60" viewBox="0 0 397 60" fill="none" xmlns="http://www.w3.org/2000/svg">
<g clip-path="url(#clip0_1908_272820)">
<path d="M32.8959 19.2761C32.8959 21.2656 32.8959 23.1667 32.8959 25.1563C32.6747 25.1563 32.4535 25.1563 32.2544 25.1563C28.9581 25.1563 25.684 25.1563 22.3877 25.1563C20.9276 25.1563 19.4454 25.1784 17.9853 25.2447C16.8128 25.2889 15.6403 25.4657 14.4899 25.7973C11.7467 26.571 10.0211 28.4058 9.04772 31.0143C8.49465 32.4512 8.22918 33.9323 8.11857 35.4576C8.00796 36.9166 7.91946 38.3755 7.91946 39.8566C7.94159 42.0451 8.0522 44.2336 8.60527 46.3778C8.69376 46.7315 8.82649 47.0852 8.93711 47.4389C9.49017 49.2516 10.6848 50.5116 12.2998 51.418C13.5386 52.1032 14.8881 52.4569 16.2597 52.678C17.5649 52.8769 18.8923 52.9212 20.2197 52.9212C24.4893 52.9212 28.7369 52.9212 33.0066 52.9212C33.2278 52.9212 33.449 52.9433 33.7145 52.9654C33.7145 54.9328 33.7145 56.8339 33.7145 58.8013C33.4933 58.8234 33.3163 58.8455 33.1172 58.8455C27.675 58.8455 22.2549 58.8676 16.8128 58.8455C14.7996 58.8455 12.7865 58.7129 10.8175 58.2265C5.97267 56.9886 2.78701 53.9601 1.2163 49.2295C0.618987 47.4168 0.287147 45.582 0.132288 43.6809C-0.0668156 41.2493 -0.0889382 38.8177 0.0659204 36.386C0.198656 33.9986 0.530496 31.6554 1.19418 29.3564C2.47729 24.9794 5.28687 22.1499 9.42381 20.5583C11.26 19.8509 13.1847 19.453 15.1536 19.3645C16.3482 19.3203 17.5649 19.2761 18.7596 19.2761C23.2283 19.2761 27.7192 19.2761 32.188 19.2761C32.4314 19.2761 32.6526 19.2761 32.8959 19.2761Z" fill="white"/>
<path d="M298.192 34.176C298.192 32.4075 298.192 30.7054 298.192 28.9369C298.347 28.9148 298.502 28.9148 298.657 28.9148C304.298 28.9148 309.939 28.9148 315.58 28.9148C316.864 28.9148 318.125 29.158 319.275 29.7106C321.509 30.8159 322.903 32.5623 323.5 34.9939C323.766 36.0771 323.876 37.1824 323.876 38.3098C323.876 43.4162 323.876 48.5226 323.876 53.6291C323.876 54.4691 323.766 55.3091 323.522 56.127C323.191 57.166 322.527 57.9176 321.487 58.2713C320.868 58.4924 320.226 58.625 319.585 58.7134C318.943 58.8018 318.279 58.8018 317.616 58.8018C313.081 58.8018 308.568 58.8239 304.032 58.8018C303.192 58.8018 302.329 58.7576 301.488 58.625C299.63 58.3597 298.192 57.4313 297.196 55.8176C296.4 54.5133 296.002 53.0764 295.825 51.5732C295.648 50.1143 295.648 48.6553 295.825 47.1742C296.135 44.2783 297.573 42.1341 300.161 40.8298C301.289 40.2551 302.506 40.1003 303.767 40.1224C307.926 40.1224 312.085 40.1224 316.244 40.1224C316.443 40.1224 316.664 40.1224 316.819 40.1224C316.886 40.034 316.93 40.0119 316.93 39.9898C316.908 38.9066 316.974 37.8013 316.841 36.7181C316.664 35.2371 315.647 34.3749 314.165 34.2423C313.678 34.1981 313.169 34.176 312.682 34.176C308.081 34.176 303.479 34.176 298.878 34.176C298.679 34.176 298.457 34.176 298.192 34.176ZM316.974 45.2068C316.753 45.2068 316.598 45.1847 316.443 45.1847C313.036 45.1847 309.629 45.1847 306.2 45.1847C305.891 45.1847 305.559 45.2068 305.249 45.2952C304.032 45.6489 303.192 46.3784 302.948 47.6605C302.705 48.9648 302.749 50.269 303.103 51.529C303.214 51.9048 303.391 52.2364 303.568 52.5901C303.634 52.7227 303.723 52.8554 303.833 52.9217C304.497 53.3417 305.205 53.7175 306.046 53.7175C309.098 53.7175 312.151 53.7175 315.226 53.7175C315.47 53.7175 315.713 53.6733 315.956 53.6291C316.554 53.4964 316.886 53.0985 316.952 52.4796C316.974 52.3027 316.952 52.1259 316.952 51.949C316.952 49.9153 316.952 47.8816 316.952 45.8699C316.974 45.6489 316.974 45.4499 316.974 45.2068Z" fill="white"/>
<path d="M160.521 40.1224C160.477 38.9729 160.544 37.934 160.389 36.895C160.168 35.3476 159.017 34.3528 157.469 34.2202C157.07 34.176 156.65 34.176 156.252 34.176C151.65 34.176 147.049 34.176 142.447 34.176C142.226 34.176 141.983 34.176 141.761 34.176C141.629 33.7781 141.584 29.8874 141.695 28.9369C141.828 28.9369 141.983 28.9148 142.138 28.9148C147.757 28.9148 153.398 28.9148 159.017 28.9148C159.88 28.9148 160.743 29.0474 161.583 29.2685C164.238 30.0422 165.875 31.8107 166.649 34.4191C167.026 35.7013 167.18 37.0055 167.18 38.354C167.18 43.5267 167.18 48.6995 167.18 53.8944C167.18 54.4028 167.136 54.9112 167.07 55.4196C166.804 57.0555 165.831 58.0723 164.26 58.5145C163.375 58.7797 162.468 58.8018 161.583 58.8018C156.827 58.8239 152.071 58.8239 147.314 58.8018C146.319 58.8018 145.345 58.7797 144.372 58.5587C142.624 58.1608 141.341 57.1881 140.523 55.5965C139.881 54.3365 139.549 52.988 139.394 51.5953C139.239 50.1585 139.239 48.6995 139.394 47.2626C139.571 45.5384 140.102 43.9467 141.231 42.6204C142.536 41.0951 144.239 40.3214 146.23 40.1666C146.673 40.1224 147.115 40.1445 147.558 40.1224C151.65 40.1224 155.721 40.1224 159.814 40.1224C160.013 40.1224 160.212 40.1224 160.521 40.1224ZM160.499 45.2068C160.322 45.1847 160.234 45.1847 160.123 45.1847C156.562 45.1847 153.022 45.1847 149.46 45.1847C148.819 45.1847 148.221 45.3836 147.668 45.7373C147.049 46.1352 146.651 46.6658 146.54 47.3952C146.474 47.8595 146.407 48.3458 146.385 48.81C146.341 50.0037 146.429 51.1753 146.872 52.3027C146.96 52.5238 147.049 52.8112 147.226 52.9217C147.889 53.3196 148.575 53.7175 149.394 53.7175C152.513 53.7175 155.655 53.7175 158.774 53.7175C159.106 53.7175 159.46 53.607 159.791 53.4964C160.234 53.3417 160.433 52.9659 160.477 52.5238C160.499 52.4133 160.477 52.3027 160.477 52.2143C160.477 50.0479 160.477 47.8816 160.477 45.6931C160.499 45.5384 160.499 45.4057 160.499 45.2068Z" fill="white"/>
<path d="M216.138 59.2216C214.302 59.1995 212.488 59.1332 210.696 58.8458C209.236 58.6248 207.82 58.249 206.493 57.63C204.059 56.5247 202.489 54.6236 201.515 52.1699C200.852 50.4677 200.476 48.6993 200.321 46.8645C200.122 44.8308 200.144 42.797 200.343 40.7854C200.52 38.9285 200.874 37.1158 201.56 35.3916C202.732 32.4736 204.79 30.5062 207.798 29.5335C209.17 29.0914 210.564 28.8262 212.002 28.6714C213.904 28.4725 215.807 28.4282 217.731 28.4946C220.076 28.5609 222.399 28.7598 224.634 29.5335C225.054 29.6662 225.452 29.843 225.872 29.9978C228.439 31.1031 230.12 33.0484 231.093 35.6126C231.757 37.3148 232.089 39.1054 232.244 40.918C232.399 42.7528 232.399 44.5876 232.244 46.4224C232.045 48.5224 231.624 50.5562 230.806 52.5236C229.655 55.2868 227.664 57.1216 224.833 58.05C223.173 58.6027 221.492 58.9121 219.744 59.0227C218.506 59.1332 217.333 59.1774 216.138 59.2216ZM225.452 43.7476C225.408 42.3328 225.43 40.918 225.142 39.5254C224.678 37.2264 223.483 35.4579 221.271 34.5073C220.74 34.2863 220.187 34.0873 219.612 33.9547C218.019 33.5347 216.382 33.5347 214.767 33.6452C213.594 33.7336 212.422 33.9768 211.316 34.4189C209.679 35.0821 208.55 36.2095 207.997 37.9116C207.643 38.9506 207.422 40.0338 207.356 41.117C207.289 42.5539 207.245 43.9686 207.267 45.4055C207.289 46.6434 207.4 47.8814 207.776 49.0751C208.506 51.4183 210.01 52.9657 212.422 53.5404C214.081 53.9383 215.74 53.9604 217.422 53.8941C218.306 53.8499 219.191 53.7615 220.032 53.4962C222.134 52.8552 223.749 51.6614 224.634 49.5835C224.943 48.854 225.164 48.0803 225.231 47.2845C225.341 46.1129 225.386 44.9192 225.452 43.7476Z" fill="white"/>
<path d="M52.7408 59.2216C50.9488 59.1994 49.179 59.1331 47.4092 58.8458C46.0376 58.6247 44.6881 58.2931 43.405 57.7184C40.6839 56.5246 38.9362 54.4467 37.9186 51.7056C37.3213 50.0919 36.9895 48.4118 36.8346 46.7097C36.6576 44.8528 36.6797 42.9959 36.8567 41.1611C37.0337 39.26 37.4319 37.4031 38.1398 35.6126C39.4229 32.363 41.7458 30.2851 45.1306 29.3566C46.6792 28.9145 48.272 28.6713 49.887 28.605C51.3249 28.5608 52.7408 28.4945 54.1788 28.5166C56.4795 28.5608 58.7582 28.7819 60.9704 29.445C64.1118 30.4177 66.3241 32.3851 67.4966 35.4578C67.8063 36.2757 68.0939 37.1158 68.2709 37.9779C68.8682 40.6306 68.9346 43.3275 68.7576 46.0465C68.647 47.7708 68.3815 49.495 67.8727 51.1529C67.7399 51.5951 67.5851 52.0151 67.4081 52.4572C66.2799 55.2646 64.2446 57.1215 61.3907 58.0942C59.7315 58.6468 58.0502 58.9563 56.3025 59.0668C55.1079 59.1331 53.9133 59.1773 52.7408 59.2216ZM61.8774 43.7475C61.9438 42.3327 61.9438 40.918 61.6562 39.5253C61.2138 37.2926 60.0855 35.5683 57.9617 34.5957C57.2317 34.2641 56.4353 33.9988 55.661 33.8441C53.9575 33.4904 52.2098 33.5125 50.4843 33.7336C49.2675 33.8883 48.1172 34.2641 47.0331 34.861C45.8606 35.502 45.0642 36.4305 44.5996 37.6905C44.1793 38.8179 43.936 40.0116 43.8696 41.2053C43.8032 42.5317 43.7811 43.858 43.7811 45.1844C43.7811 46.3118 43.8696 47.4392 44.1793 48.5445C44.9315 51.1529 46.5243 52.9435 49.2233 53.5846C49.9533 53.7614 50.7276 53.8277 51.4798 53.8941C53.0505 54.0267 54.6212 53.9825 56.1698 53.6288C58.9573 53.0098 60.7492 51.3077 61.5014 48.5445C61.7005 47.7929 61.789 46.9749 61.8553 46.2012C61.9217 45.3612 61.8774 44.5433 61.8774 43.7475Z" fill="white"/>
<path d="M106.211 28.9362C108.468 28.9362 110.636 28.9362 112.848 28.9362C112.87 29.113 112.892 29.2456 112.892 29.4004C112.848 32.6057 112.781 35.789 112.715 38.9943C112.649 42.686 112.582 46.3776 112.516 50.0693C112.516 50.2019 112.516 50.3567 112.538 50.4893C112.56 50.6441 112.582 50.7988 112.781 50.8651C112.958 50.9093 113.135 50.9093 113.268 50.7546C113.578 50.3567 113.954 49.9809 114.219 49.5609C118.445 43.3049 122.692 37.0269 126.896 30.7488C128.356 28.5825 131.077 28.074 133.046 28.8256C134.572 29.4225 135.28 30.6383 135.479 32.2078C135.524 32.6057 135.546 33.0257 135.546 33.4236C135.546 41.6249 135.546 49.8261 135.546 58.0274C135.546 58.2706 135.524 58.5137 135.524 58.779C133.289 58.779 131.121 58.779 128.865 58.779C128.865 58.5579 128.865 58.359 128.865 58.1821C128.931 54.2915 129.02 50.4009 129.086 46.5324C129.13 43.8576 129.174 41.1607 129.241 38.4859C129.241 38.1764 129.263 37.8448 129.263 37.5353C129.263 37.3806 129.241 37.2258 129.197 37.0711C129.108 36.8279 128.953 36.7616 128.754 36.9385C128.489 37.1816 128.245 37.4469 128.046 37.7343C126.785 39.5691 125.524 41.4038 124.263 43.2386C121.055 47.9029 117.848 52.5452 114.662 57.2095C113.755 58.5358 112.538 59.199 110.967 59.199C110.326 59.199 109.662 59.199 109.021 59.0664C107.384 58.779 106.432 57.6295 106.277 55.8831C106.255 55.5294 106.255 55.1757 106.255 54.8221C106.255 46.4219 106.255 37.9995 106.255 29.5993C106.211 29.3783 106.211 29.1793 106.211 28.9362Z" fill="white"/>
<path d="M72.5623 28.9364C74.7966 28.9364 76.9647 28.9364 79.2212 28.9364C79.2212 29.1575 79.2433 29.3785 79.2433 29.5996C79.2433 36.8061 79.2433 44.0126 79.2433 51.219C79.2433 51.6391 79.3097 52.0591 79.376 52.4791C79.4645 53.098 79.8849 53.4296 80.46 53.5844C80.7255 53.6507 81.0131 53.6949 81.3007 53.6949C85.1943 53.6949 89.0879 53.6949 92.9815 53.6949C93.0921 53.6949 93.2248 53.6728 93.4018 53.6728C93.4018 45.4273 93.4018 37.204 93.4018 29.0027C93.8221 28.8701 99.397 28.8259 100.282 28.9585C100.282 30.307 100.282 31.6775 100.282 33.0481C100.282 34.4186 100.282 35.8113 100.282 37.1819C100.282 38.5524 100.282 39.9451 100.282 41.3156C100.282 42.6862 100.282 44.0347 100.282 45.4052C100.282 46.7758 100.282 48.1684 100.282 49.539C100.282 50.9096 100.282 52.2801 100.282 53.717C101.698 53.717 103.047 53.717 104.485 53.717C104.507 55.4191 104.485 57.055 104.507 58.7571C104.286 58.7792 104.087 58.8013 103.91 58.8013C94.9725 58.8013 86.035 58.8013 77.1195 58.8013C76.6107 58.8013 76.1019 58.7571 75.5931 58.6908C74.1993 58.4919 72.5623 57.0108 72.5844 55.0655C72.6507 49.0306 72.6065 42.9736 72.6065 36.9387C72.6065 34.5071 72.6065 32.0533 72.6065 29.6217C72.5623 29.4227 72.5623 29.2017 72.5623 28.9364Z" fill="white"/>
<path d="M235.43 28.9364C237.686 28.9364 239.854 28.9364 242.089 28.9364C242.111 29.1574 242.133 29.3785 242.133 29.5995C242.133 31.8764 242.133 34.1533 242.133 36.4302C242.133 37.1155 242.155 37.8229 242.288 38.4861C242.553 40.0777 243.593 41.0061 245.186 41.2051C245.651 41.2714 246.137 41.2935 246.602 41.2935C249.61 41.2935 252.619 41.2935 255.628 41.2935C255.827 41.2935 256.004 41.2935 256.247 41.2935C256.247 37.1597 256.247 33.0701 256.247 29.0027C256.69 28.87 262.53 28.8479 263.15 28.9585C263.15 38.8619 263.15 48.7874 263.15 58.6908C262.641 58.8234 256.734 58.8234 256.269 58.6687C256.269 54.6012 256.269 50.5337 256.269 46.422C256.004 46.3999 255.783 46.3778 255.561 46.3778C251.535 46.3778 247.531 46.3778 243.505 46.3778C242.553 46.3778 241.602 46.3115 240.651 46.1126C239.058 45.7368 237.731 44.9852 236.735 43.6588C236.027 42.7083 235.695 41.6251 235.563 40.4756C235.474 39.7903 235.452 39.105 235.452 38.4197C235.43 35.4355 235.452 32.4512 235.452 29.4669C235.43 29.3122 235.43 29.1574 235.43 28.9364Z" fill="white"/>
<path d="M167.712 58.7794C167.822 58.5141 167.889 58.3372 167.955 58.1825C171.915 49.2518 175.875 40.3431 179.791 31.3903C180.831 29.0249 183.153 28.3397 185.034 28.5386C185.388 28.5828 185.742 28.6492 186.074 28.7597C187.379 29.1576 188.33 29.9755 188.883 31.2355C191.538 37.2483 194.193 43.239 196.847 49.2518C198.131 52.1697 199.436 55.0877 200.719 58.0278C200.807 58.2488 200.918 58.4699 201.029 58.7794C200.785 58.8015 200.63 58.8236 200.453 58.8236C198.529 58.8236 196.604 58.8236 194.657 58.8457C194.259 58.8457 194.082 58.6909 193.927 58.3372C191.914 53.3855 189.879 48.4338 187.866 43.4821C186.892 41.1168 185.919 38.7515 184.968 36.3641C184.835 36.0546 184.791 35.723 184.68 35.4135C184.636 35.2809 184.547 35.104 184.414 35.0598C184.237 34.9714 184.083 35.1262 183.994 35.2809C183.95 35.3472 183.906 35.4356 183.884 35.5241C182.623 38.7073 181.362 41.8905 180.101 45.0738C178.331 49.4949 176.583 53.894 174.813 58.293C174.592 58.8457 174.68 58.8457 174.017 58.8457C172.114 58.8457 170.19 58.8457 168.287 58.8457C168.132 58.8015 167.977 58.7794 167.712 58.7794Z" fill="white"/>
<path d="M294.939 29.0249C294.231 29.7765 293.546 30.5281 292.838 31.2797C289.917 34.3967 286.997 37.5357 284.077 40.6526C283.9 40.8294 283.701 40.9842 283.546 41.161C283.192 41.5589 282.816 41.9347 282.506 42.3547C282.086 42.9516 282.064 43.6369 282.44 44.2558C282.683 44.6759 282.971 45.0959 283.325 45.4496C287.108 49.3623 290.913 53.275 294.696 57.1656C295.094 57.5856 295.515 58.0057 295.913 58.4257C296.001 58.5141 296.068 58.6025 296.178 58.7794C295.935 58.8015 295.758 58.8236 295.603 58.8236C293.28 58.8236 290.979 58.8236 288.657 58.8236C288.28 58.8236 288.037 58.6909 287.794 58.4257C284.32 54.6235 280.847 50.8434 277.374 47.0633C277.042 46.7096 276.688 46.378 276.423 46.0022C276.091 45.538 275.781 45.0738 275.56 44.5653C275.184 43.7032 275.228 42.819 275.693 42.0232C276.024 41.4484 276.401 40.8737 276.843 40.3873C278.259 38.7515 279.697 37.1599 281.157 35.5683C283.037 33.4903 284.918 31.4345 286.776 29.3565C287.042 29.0692 287.285 28.9365 287.683 28.9365C289.94 28.9586 292.174 28.9365 294.431 28.9365C294.607 28.9365 294.762 28.9365 294.939 28.9365C294.917 28.9586 294.939 28.9807 294.939 29.0249Z" fill="white"/>
<path d="M267.528 28.936C269.741 28.936 271.931 28.936 274.143 28.936C274.143 38.8836 274.143 48.787 274.143 58.6904C273.723 58.8231 268.192 58.8452 267.573 58.7347C267.462 58.3589 267.418 30.2182 267.528 28.936Z" fill="white"/>
<path d="M383.673 58.8461H344.25C342.259 58.8461 340.644 57.2323 340.644 55.2428V41.1835C340.644 34.6844 345.931 29.4011 352.435 29.4011H391.858C393.849 29.4011 395.464 31.0148 395.464 33.0044V47.0637C395.464 53.5628 390.199 58.8461 383.673 58.8461Z" fill="#3DA939"/>
<path d="M392.61 30.7715C393.628 30.7715 394.468 31.6115 394.468 32.6284V46.8867C394.468 52.4794 389.911 57.0332 384.314 57.0332H344.316C343.299 57.0332 342.458 56.1932 342.458 55.1763V40.9181C342.458 35.3253 347.015 30.7715 352.612 30.7715H392.61ZM392.61 28.981H352.612C345.998 28.981 340.644 34.3306 340.644 40.9402V55.1984C340.644 57.2101 342.281 58.8459 344.294 58.8459H384.292C390.907 58.8459 396.26 53.4963 396.26 46.8867V32.6284C396.26 30.6168 394.623 28.981 392.61 28.981Z" fill="white"/>
<path d="M363.408 36.2759H355.289H353.43V52.5236H356.262V46.7098H363.408C365.487 46.7098 367.169 45.0298 367.169 42.9518V40.0339C367.169 37.9559 365.487 36.2759 363.408 36.2759ZM364.381 41.8686C364.381 43.195 363.297 44.2782 361.97 44.2782H356.262V38.7296H361.97C363.297 38.7296 364.381 39.8128 364.381 41.1392V41.8686Z" fill="white"/>
<path d="M382.256 37.4916H379.314V36.2979H376.482V37.4916H373.54C370.907 37.4916 368.761 39.6358 368.761 42.2664V45.9802C368.761 48.6108 370.907 50.755 373.54 50.755H376.482V52.5235H379.314V50.755H382.256C384.889 50.755 387.035 48.6108 387.035 45.9802V42.2664C387.035 39.6358 384.911 37.4916 382.256 37.4916ZM375.221 48.655C373.341 48.655 371.814 47.1297 371.814 45.2507V42.9959C371.814 41.1169 373.341 39.5916 375.221 39.5916H376.504V48.655H375.221ZM384.026 45.2507C384.026 47.1297 382.499 48.655 380.619 48.655H379.336V39.5916H380.619C382.499 39.5916 384.026 41.1169 384.026 42.9959V45.2507Z" fill="white"/>
<path d="M351.084 49.6724H348.253V52.5019H351.084V49.6724Z" fill="white"/>
<path d="M243.459 0.287375C242.663 0.0884232 241.822 0 241.026 0C239.92 0 238.902 0.176846 237.973 0.530539C237.066 0.884232 236.27 1.39267 235.628 2.03373C234.964 2.71901 234.455 3.55903 234.101 4.53169C233.748 5.50434 233.571 6.63174 233.571 7.86966C233.571 9.17391 233.748 10.3455 234.124 11.3403C234.5 12.335 235.009 13.153 235.65 13.8161C236.314 14.4793 237.11 14.9656 238.017 15.2751C238.924 15.5846 239.92 15.7393 241.026 15.7393C241.601 15.7393 242.154 15.6951 242.641 15.6067C243.128 15.5183 243.57 15.4077 243.99 15.2751C244.477 15.1204 244.875 14.9656 245.185 14.833C245.473 14.7004 245.827 14.5456 246.18 14.3909L246.225 14.3688V11.8708H245.959L245.937 11.8929C245.207 12.534 244.433 13.0424 243.592 13.3519C242.751 13.6614 241.867 13.8382 240.915 13.8382C240.229 13.8382 239.566 13.7277 238.946 13.4845C238.327 13.2414 237.796 12.8877 237.331 12.4014C236.889 11.9371 236.513 11.3182 236.247 10.5666C235.96 9.81497 235.827 8.90864 235.827 7.86966C235.827 6.8749 235.96 5.99067 236.203 5.21697C236.446 4.46537 236.823 3.8243 237.265 3.33798C237.73 2.82954 238.261 2.45374 238.858 2.21058C239.455 1.96742 240.141 1.85689 240.871 1.85689C241.778 1.85689 242.663 2.01163 243.459 2.32111C244.256 2.63059 245.074 3.13902 245.893 3.8243L245.915 3.84641H246.18V1.34845L246.136 1.32635C245.185 0.84002 244.278 0.486328 243.459 0.287375Z" fill="white"/>
<path d="M254.079 15.4521H261.976V13.5068H255.428C254.676 13.5068 254.079 12.9099 254.079 12.1583V8.11294H261.976V6.16763H254.079V3.55914C254.079 2.80755 254.676 2.21069 255.428 2.21069H261.976V0.265381H254.079C252.884 0.265381 251.911 1.23804 251.911 2.43175V13.2857C251.933 14.5015 252.884 15.4521 254.079 15.4521Z" fill="white"/>
<path d="M266.047 2.21069H271.401V15.4521H273.569V2.21069H278.945V0.265381H266.047V2.21069Z" fill="white"/>
<path d="M293.744 7.2066C293.169 6.76448 292.527 6.47711 291.886 6.34448C291.244 6.23395 290.381 6.16763 289.364 6.16763H286.045V0.265381H283.877V15.4521H289.319C290.337 15.4521 291.2 15.3636 291.841 15.1647C292.505 14.9657 293.124 14.6563 293.677 14.192C294.164 13.8162 294.562 13.3299 294.85 12.7109C295.138 12.1141 295.292 11.4288 295.292 10.6993C295.292 9.94772 295.16 9.26244 294.916 8.68769C294.651 8.11294 294.253 7.60451 293.744 7.2066ZM293.014 10.7656C293.014 11.2962 292.925 11.7383 292.77 12.0699C292.593 12.4015 292.328 12.7109 291.974 12.9541C291.62 13.1973 291.2 13.352 290.735 13.4404C290.271 13.5289 289.563 13.5731 288.678 13.5731H286.023V8.04662H288.722C289.607 8.04662 290.293 8.06873 290.757 8.13504C291.222 8.17926 291.642 8.334 291.996 8.57716C292.328 8.79822 292.593 9.1077 292.748 9.46139C292.925 9.83719 293.014 10.2793 293.014 10.7656Z" fill="white"/>
<path d="M319.518 0.265381C318.677 0.265381 317.947 0.79592 317.659 1.56962L312.637 15.3415L312.593 15.4521H314.805L316.288 11.2741H322.681L324.163 15.4521H326.464L321.398 1.56962C321.088 0.79592 320.358 0.265381 319.518 0.265381ZM321.995 9.39507H316.951L319.23 3.42651C319.318 3.20545 319.65 3.20545 319.739 3.42651L321.995 9.39507Z" fill="white"/>
<path d="M331.574 15.4521H333.742V2.21069H341.087V15.4521H343.255V2.10016C343.255 1.0833 342.437 0.265381 341.419 0.265381H333.433C332.415 0.265381 331.596 1.0833 331.596 2.10016V15.4521H331.574Z" fill="white"/>
<path d="M348.167 2.21069H353.521V15.4521H355.689V2.21069H361.065V0.265381H348.167V2.21069Z" fill="white"/>
<path d="M368.298 15.4521H376.041V13.5068H369.426C368.718 13.5068 368.143 12.932 368.143 12.2246V8.11294H376.041V6.16763H368.143V3.49283C368.143 2.78544 368.718 2.21069 369.426 2.21069H376.041V0.265381H368.298C367.015 0.265381 365.975 1.30435 365.975 2.58649V13.131C365.975 14.4131 367.015 15.4521 368.298 15.4521Z" fill="white"/>
<path d="M392.898 15.4521L385.553 7.67082L392.809 0.287487H390.044L384.314 6.18973V0.265381H382.168V15.4521H384.314V9.28455L390.133 15.4521H392.898Z" fill="white"/>
</g>
<defs>
<clipPath id="clip0_1908_272820">
<rect width="396.261" height="59.2214" fill="white"/>
</clipPath>
</defs>
</svg>
