<svg width="456" height="69" viewBox="0 0 456 69" fill="none" xmlns="http://www.w3.org/2000/svg">
<g clip-path="url(#clip0_1318_102657)">
<path d="M38.0925 22.23C38.0925 24.5144 38.0925 26.6973 38.0925 28.9818C37.8385 28.9818 37.5845 28.9818 37.3558 28.9818C33.571 28.9818 29.8115 28.9818 26.0266 28.9818C24.35 28.9818 22.6481 29.0071 20.9716 29.0833C19.6253 29.134 18.279 29.3371 16.9581 29.7178C13.8082 30.6062 11.8269 32.713 10.7092 35.7081C10.0741 37.358 9.76931 39.0586 9.6423 40.81C9.51529 42.4853 9.41368 44.1606 9.41368 45.8612C9.43909 48.3741 9.5661 50.8869 10.2011 53.3491C10.3028 53.7552 10.4552 54.1613 10.5822 54.5674C11.2172 56.6488 12.5889 58.0956 14.4433 59.1363C15.8658 59.9232 17.4153 60.3293 18.9902 60.5831C20.4889 60.8115 22.0131 60.8623 23.5372 60.8623C28.4398 60.8623 33.3169 60.8623 38.2195 60.8623C38.4735 60.8623 38.7276 60.8877 39.0324 60.9131C39.0324 63.1721 39.0324 65.355 39.0324 67.6141C38.7784 67.6395 38.5751 67.6648 38.3465 67.6648C32.0976 67.6648 25.8742 67.6902 19.6253 67.6648C17.3137 67.6648 15.0021 67.5125 12.7413 66.9541C7.17831 65.5327 3.52043 62.0553 1.71689 56.6234C1.03104 54.542 0.650007 52.4353 0.472193 50.2524C0.243575 47.4603 0.218173 44.6682 0.395987 41.8761C0.548399 39.1348 0.929428 36.4442 1.69149 33.8045C3.1648 28.7787 6.39085 25.5297 11.141 23.7022C13.2494 22.8899 15.4594 22.433 17.7201 22.3315C19.0918 22.2807 20.4889 22.23 21.8606 22.23C26.9918 22.23 32.1484 22.23 37.2796 22.23C37.5591 22.23 37.8131 22.23 38.0925 22.23Z" fill="#D3004A"/>
<path d="M342.714 39.3379C342.714 37.3073 342.714 35.3529 342.714 33.3223C342.892 33.2969 343.07 33.2969 343.248 33.2969C349.725 33.2969 356.203 33.2969 362.68 33.2969C364.153 33.2969 365.601 33.5761 366.922 34.2106C369.488 35.4798 371.088 37.485 371.774 40.2771C372.079 41.5208 372.206 42.79 372.206 44.0845C372.206 49.9479 372.206 55.8112 372.206 61.6746C372.206 62.6392 372.079 63.6037 371.799 64.5429C371.418 65.7358 370.656 66.5989 369.462 67.005C368.751 67.2588 368.015 67.4111 367.278 67.5126C366.541 67.6142 365.779 67.6142 365.017 67.6142C359.81 67.6142 354.628 67.6395 349.42 67.6142C348.455 67.6142 347.464 67.5634 346.499 67.4111C344.365 67.1065 342.714 66.0404 341.571 64.1875C340.657 62.6899 340.199 61.0401 339.996 59.314C339.793 57.6388 339.793 55.9635 339.996 54.2629C340.352 50.9378 342.003 48.4757 344.975 46.9781C346.27 46.3181 347.668 46.1405 349.115 46.1659C353.891 46.1659 358.667 46.1659 363.442 46.1659C363.671 46.1659 363.925 46.1659 364.103 46.1659C364.179 46.0643 364.23 46.0389 364.23 46.0136C364.204 44.7698 364.28 43.5007 364.128 42.2569C363.925 40.5563 362.756 39.5664 361.054 39.4141C360.496 39.3633 359.911 39.3379 359.352 39.3379C354.069 39.3379 348.785 39.3379 343.502 39.3379C343.273 39.3379 343.019 39.3379 342.714 39.3379ZM364.28 52.0039C364.026 52.0039 363.849 51.9785 363.671 51.9785C359.759 51.9785 355.847 51.9785 351.91 51.9785C351.554 51.9785 351.173 52.0039 350.817 52.1054C349.42 52.5115 348.455 53.3491 348.176 54.8213C347.896 56.3189 347.947 57.8165 348.353 59.2633C348.48 59.6948 348.684 60.0755 348.887 60.4816C348.963 60.6339 349.065 60.7862 349.192 60.8624C349.954 61.3447 350.767 61.7762 351.732 61.7762C355.237 61.7762 358.743 61.7762 362.274 61.7762C362.553 61.7762 362.833 61.7254 363.112 61.6746C363.798 61.5223 364.179 61.0654 364.255 60.3547C364.28 60.1517 364.255 59.9486 364.255 59.7455C364.255 57.4103 364.255 55.0751 364.255 52.7653C364.28 52.5115 364.28 52.2831 364.28 52.0039Z" fill="#D3004A"/>
<path d="M184.636 46.1659C184.586 44.846 184.662 43.653 184.484 42.46C184.23 40.6832 182.909 39.541 181.131 39.3887C180.674 39.3379 180.191 39.3379 179.734 39.3379C174.45 39.3379 169.167 39.3379 163.883 39.3379C163.629 39.3379 163.35 39.3379 163.096 39.3379C162.943 38.881 162.892 34.4137 163.019 33.3223C163.172 33.3223 163.35 33.2969 163.527 33.2969C169.979 33.2969 176.457 33.2969 182.909 33.2969C183.9 33.2969 184.89 33.4492 185.856 33.703C188.904 34.5914 190.784 36.622 191.673 39.6171C192.105 41.0893 192.282 42.5869 192.282 44.1352C192.282 50.0748 192.282 56.0143 192.282 61.9792C192.282 62.563 192.232 63.1468 192.155 63.7306C191.851 65.6089 190.733 66.7765 188.929 67.2842C187.913 67.5888 186.872 67.6142 185.856 67.6142C180.394 67.6395 174.933 67.6395 169.471 67.6142C168.328 67.6142 167.211 67.5888 166.093 67.3349C164.086 66.8781 162.613 65.7612 161.673 63.9337C160.936 62.4869 160.555 60.9385 160.378 59.3394C160.2 57.6896 160.2 56.0143 160.378 54.3644C160.581 52.3846 161.19 50.557 162.486 49.0341C163.985 47.2827 165.941 46.3943 168.227 46.2166C168.735 46.1659 169.243 46.1912 169.751 46.1659C174.45 46.1659 179.124 46.1659 183.824 46.1659C184.052 46.1659 184.281 46.1659 184.636 46.1659ZM184.611 52.0039C184.408 51.9785 184.306 51.9785 184.179 51.9785C180.089 51.9785 176.025 51.9785 171.935 51.9785C171.199 51.9785 170.513 52.2069 169.878 52.613C169.167 53.0699 168.709 53.6791 168.582 54.5167C168.506 55.0498 168.43 55.6082 168.405 56.1412C168.354 57.5119 168.455 58.8572 168.963 60.1517C169.065 60.4055 169.167 60.7355 169.37 60.8624C170.132 61.3193 170.919 61.7762 171.859 61.7762C175.441 61.7762 179.048 61.7762 182.63 61.7762C183.011 61.7762 183.417 61.6492 183.798 61.5223C184.306 61.3447 184.535 60.9132 184.586 60.4055C184.611 60.2786 184.586 60.1517 184.586 60.0501C184.586 57.5626 184.586 55.0751 184.586 52.5623C184.611 52.3846 184.611 52.2323 184.611 52.0039Z" fill="#D3004A"/>
<path d="M248.497 68.0961C246.389 68.0707 244.306 67.9946 242.249 67.6646C240.572 67.4108 238.946 66.9792 237.422 66.2685C234.628 64.9994 232.824 62.8165 231.707 59.999C230.945 58.0446 230.513 56.014 230.335 53.9072C230.106 51.572 230.132 49.2368 230.36 46.927C230.564 44.7948 230.97 42.7135 231.758 40.7336C233.104 37.3831 235.466 35.1241 238.921 34.0072C240.496 33.4996 242.096 33.195 243.747 33.0173C245.932 32.7889 248.116 32.7381 250.326 32.8143C253.019 32.8904 255.686 33.1189 258.252 34.0072C258.734 34.1595 259.192 34.3626 259.674 34.5403C262.621 35.8094 264.552 38.0431 265.669 40.9875C266.431 42.9419 266.812 44.9979 266.99 47.0793C267.168 49.186 267.168 51.2928 266.99 53.3996C266.762 55.8109 266.279 58.1461 265.339 60.4052C264.018 63.578 261.732 65.6847 258.48 66.7508C256.575 67.3854 254.645 67.7407 252.638 67.8676C251.215 67.9945 249.869 68.0453 248.497 68.0961ZM259.192 50.3283C259.141 48.7038 259.166 47.0793 258.836 45.4802C258.303 42.8404 256.931 40.8098 254.391 39.7183C253.781 39.4645 253.146 39.2361 252.486 39.0838C250.657 38.6015 248.777 38.6015 246.923 38.7284C245.576 38.8299 244.23 39.1091 242.96 39.6168C241.08 40.3783 239.785 41.6728 239.15 43.6272C238.743 44.8202 238.489 46.064 238.413 47.3077C238.337 48.9576 238.286 50.5821 238.311 52.2319C238.337 53.6534 238.464 55.0748 238.896 56.4455C239.734 59.136 241.461 60.9128 244.23 61.5727C246.135 62.0296 248.04 62.055 249.971 61.9789C250.987 61.9281 252.003 61.8266 252.968 61.522C255.381 60.7859 257.236 59.4152 258.252 57.0293C258.607 56.1916 258.861 55.3032 258.938 54.3895C259.065 53.0442 259.115 51.6735 259.192 50.3283Z" fill="#D3004A"/>
<path d="M60.8789 68.0964C58.8214 68.0711 56.7892 67.9949 54.7571 67.6649C53.1821 67.4111 51.6326 67.0304 50.1593 66.3704C47.0349 64.9998 45.0281 62.6138 43.8596 59.4664C43.1738 57.6134 42.7927 55.6843 42.6149 53.7299C42.4117 51.5977 42.4371 49.4656 42.6403 47.3589C42.8435 45.1759 43.3008 43.0438 44.1136 40.9878C45.5869 37.2566 48.2541 34.8706 52.1406 33.8045C53.9188 33.2969 55.7477 33.0177 57.6021 32.9415C59.2532 32.8908 60.8789 32.8146 62.5301 32.84C65.1719 32.8908 67.7883 33.1446 70.3285 33.9061C73.9355 35.0229 76.4757 37.282 77.822 40.8101C78.1777 41.7493 78.5079 42.7138 78.7111 43.7038C79.397 46.7497 79.4732 49.8463 79.2699 52.9684C79.1429 54.9483 78.8381 56.9281 78.2539 58.8318C78.1015 59.3394 77.9236 59.8217 77.7204 60.3294C76.4249 63.553 74.0879 65.6851 70.8111 66.8019C68.9059 67.4365 66.9754 67.7919 64.9686 67.9188C63.5969 67.9949 62.2252 68.0457 60.8789 68.0964ZM71.3699 50.3286C71.4461 48.7041 71.4461 47.0796 71.1159 45.4805C70.6079 42.9169 69.3124 40.9371 66.8738 39.8202C66.0355 39.4395 65.1211 39.1349 64.232 38.9572C62.276 38.5511 60.2693 38.5765 58.2879 38.8303C56.8908 39.008 55.5699 39.4395 54.3252 40.1248C52.9789 40.8609 52.0644 41.927 51.531 43.3738C51.0484 44.6683 50.7689 46.039 50.6927 47.4096C50.6165 48.9326 50.5911 50.4555 50.5911 51.9785C50.5911 53.273 50.6927 54.5675 51.0484 55.8366C51.912 58.8318 53.741 60.8878 56.84 61.6239C57.6783 61.8269 58.5673 61.9031 59.431 61.9792C61.2346 62.1315 63.0381 62.0808 64.8162 61.6746C68.0169 60.9639 70.0744 59.0095 70.9381 55.8366C71.1667 54.9736 71.2683 54.0345 71.3445 53.1461C71.4207 52.1815 71.3699 51.2424 71.3699 50.3286Z" fill="#D3004A"/>
<path d="M122.275 33.322C124.866 33.322 127.356 33.322 129.896 33.322C129.921 33.525 129.947 33.6773 129.947 33.855C129.896 37.5355 129.82 41.1906 129.744 44.8711C129.667 49.11 129.591 53.3488 129.515 57.5877C129.515 57.74 129.515 57.9177 129.54 58.07C129.566 58.2477 129.591 58.4254 129.82 58.5015C130.023 58.5523 130.226 58.5523 130.379 58.3746C130.734 57.9177 131.166 57.4862 131.471 57.0039C136.323 49.8207 141.2 42.612 146.026 35.4033C147.703 32.9159 150.827 32.332 153.088 33.1951C154.841 33.8804 155.654 35.2764 155.882 37.0786C155.933 37.5355 155.958 38.0178 155.958 38.4746C155.958 47.8916 155.958 57.3085 155.958 66.7255C155.958 67.0047 155.933 67.2839 155.933 67.5885C153.367 67.5885 150.878 67.5885 148.287 67.5885C148.287 67.3347 148.287 67.1062 148.287 66.9032C148.363 62.4358 148.465 57.9685 148.541 53.5265C148.592 50.4552 148.643 47.3586 148.719 44.2873C148.719 43.9319 148.744 43.5512 148.744 43.1958C148.744 43.0181 148.719 42.8404 148.668 42.6628C148.566 42.3836 148.389 42.3074 148.16 42.5105C147.855 42.7897 147.576 43.0943 147.347 43.4242C145.899 45.531 144.451 47.6378 143.003 49.7445C139.32 55.1003 135.637 60.4306 131.979 65.7863C130.937 67.3093 129.54 68.0708 127.737 68.0708C127 68.0708 126.238 68.0708 125.501 67.9185C123.622 67.5885 122.529 66.2686 122.352 64.2634C122.326 63.8572 122.326 63.4511 122.326 63.045C122.326 53.3996 122.326 43.7288 122.326 34.0834C122.275 33.8296 122.275 33.6012 122.275 33.322Z" fill="#D3004A"/>
<path d="M83.6387 33.3219C86.2043 33.3219 88.6937 33.3219 91.2847 33.3219C91.2847 33.5758 91.3101 33.8296 91.3101 34.0834C91.3101 42.3582 91.3101 50.6329 91.3101 58.9076C91.3101 59.3899 91.3863 59.8722 91.4625 60.3544C91.5641 61.0651 92.0467 61.4459 92.7072 61.6236C93.012 61.6997 93.3422 61.7505 93.6724 61.7505C98.1432 61.7505 102.614 61.7505 107.085 61.7505C107.212 61.7505 107.364 61.7251 107.567 61.7251C107.567 52.2574 107.567 42.815 107.567 33.3981C108.05 33.2458 114.451 33.195 115.467 33.3473C115.467 34.8957 115.467 36.4694 115.467 38.0431C115.467 39.6168 115.467 41.2159 115.467 42.7897C115.467 44.3634 115.467 45.9625 115.467 47.5362C115.467 49.1099 115.467 50.6583 115.467 52.232C115.467 53.8057 115.467 55.4048 115.467 56.9785C115.467 58.5523 115.467 60.126 115.467 61.7758C117.093 61.7758 118.643 61.7758 120.294 61.7758C120.319 63.7303 120.294 65.6086 120.319 67.5631C120.065 67.5885 119.836 67.6138 119.633 67.6138C109.371 67.6138 99.1085 67.6138 88.8715 67.6138C88.2872 67.6138 87.703 67.5631 87.1187 67.4869C85.5184 67.2585 83.6387 65.5579 83.6641 63.3242C83.7403 56.3947 83.6895 49.4399 83.6895 42.5104C83.6895 39.7184 83.6895 36.9009 83.6895 34.1088C83.6387 33.8804 83.6387 33.6265 83.6387 33.3219Z" fill="#D3004A"/>
<path d="M270.648 33.322C273.239 33.322 275.729 33.322 278.294 33.322C278.32 33.5758 278.345 33.8296 278.345 34.0835C278.345 36.6979 278.345 39.3123 278.345 41.9267C278.345 42.7136 278.371 43.5258 278.523 44.2873C278.828 46.1148 280.022 47.1809 281.851 47.4093C282.384 47.4855 282.943 47.5109 283.476 47.5109C286.931 47.5109 290.386 47.5109 293.84 47.5109C294.069 47.5109 294.272 47.5109 294.552 47.5109C294.552 42.7643 294.552 38.0685 294.552 33.3981C295.06 33.2458 301.766 33.2205 302.477 33.3474C302.477 44.7188 302.477 56.1156 302.477 67.487C301.893 67.6393 295.111 67.6393 294.577 67.4616C294.577 62.7912 294.577 58.1208 294.577 53.3996C294.272 53.3743 294.018 53.3489 293.764 53.3489C289.141 53.3489 284.543 53.3489 279.92 53.3489C278.828 53.3489 277.736 53.2727 276.643 53.0443C274.814 52.6128 273.29 51.7498 272.147 50.2268C271.334 49.1354 270.953 47.8916 270.801 46.5717C270.699 45.7849 270.674 44.998 270.674 44.2111C270.648 40.7845 270.674 37.3578 270.674 33.9312C270.648 33.7535 270.648 33.5758 270.648 33.322Z" fill="#D3004A"/>
<path d="M192.893 67.5884C193.02 67.2838 193.096 67.0807 193.172 66.9031C197.719 56.6485 202.266 46.4193 206.762 36.1393C207.956 33.4234 210.623 32.6365 212.782 32.865C213.189 32.9157 213.595 32.9919 213.976 33.1188C215.475 33.5757 216.567 34.5148 217.202 35.9617C220.25 42.8657 223.299 49.7444 226.347 56.6485C227.82 59.999 229.319 63.3495 230.792 66.7254C230.894 66.9792 231.021 67.233 231.148 67.5884C230.869 67.6138 230.691 67.6391 230.487 67.6391C228.278 67.6391 226.068 67.6391 223.832 67.6645C223.375 67.6645 223.172 67.4868 222.994 67.0807C220.682 61.395 218.345 55.7093 216.034 50.0236C214.916 47.3077 213.798 44.5917 212.706 41.8504C212.554 41.4951 212.503 41.1143 212.376 40.759C212.325 40.6067 212.223 40.4036 212.071 40.3528C211.868 40.2513 211.69 40.429 211.588 40.6067C211.538 40.6828 211.487 40.7843 211.461 40.8859C210.014 44.541 208.566 48.1961 207.118 51.8512C205.086 56.9277 203.079 61.9788 201.047 67.03C200.793 67.6645 200.894 67.6645 200.132 67.6645C197.948 67.6645 195.738 67.6645 193.553 67.6645C193.375 67.6138 193.197 67.5884 192.893 67.5884Z" fill="#D3004A"/>
<path d="M338.979 33.4233C338.167 34.2863 337.379 35.1493 336.566 36.0123C333.213 39.5913 329.86 43.1956 326.507 46.7746C326.304 46.9776 326.075 47.1553 325.897 47.3584C325.491 47.8152 325.059 48.2468 324.704 48.729C324.221 49.4144 324.195 50.2012 324.627 50.9119C324.907 51.3942 325.237 51.8765 325.643 52.2826C329.987 56.7753 334.356 61.268 338.7 65.7354C339.157 66.2176 339.64 66.6999 340.097 67.1822C340.199 67.2837 340.275 67.3852 340.402 67.5883C340.123 67.6137 339.919 67.6391 339.741 67.6391C337.074 67.6391 334.432 67.6391 331.765 67.6391C331.333 67.6391 331.054 67.4868 330.775 67.1822C326.786 62.8164 322.798 58.4759 318.81 54.1355C318.429 53.7294 318.023 53.3487 317.718 52.9172C317.337 52.3841 316.981 51.8511 316.727 51.2673C316.295 50.2774 316.346 49.2621 316.88 48.3483C317.261 47.6883 317.693 47.0284 318.201 46.47C319.826 44.5917 321.477 42.7641 323.154 40.9366C325.313 38.5506 327.472 36.19 329.606 33.804C329.911 33.4741 330.19 33.3218 330.648 33.3218C333.239 33.3472 335.804 33.3218 338.395 33.3218C338.598 33.3218 338.776 33.3218 338.979 33.3218C338.954 33.3472 338.979 33.3725 338.979 33.4233Z" fill="#D3004A"/>
<path d="M307.505 33.3218C310.045 33.3218 312.56 33.3218 315.1 33.3218C315.1 44.744 315.1 56.1154 315.1 67.4868C314.618 67.6391 308.267 67.6645 307.556 67.5375C307.429 67.106 307.378 34.794 307.505 33.3218Z" fill="#D3004A"/>
<path d="M440.866 67.6651H395.599C393.313 67.6651 391.459 65.8122 391.459 63.5277V47.3844C391.459 39.9219 397.53 33.8555 404.998 33.8555H450.265C452.551 33.8555 454.405 35.7084 454.405 37.9928V54.1362C454.405 61.5987 448.359 67.6651 440.866 67.6651Z" fill="#3DA939"/>
<path d="M451.128 35.429C452.297 35.429 453.262 36.3936 453.262 37.5612V53.933C453.262 60.3548 448.029 65.5836 441.602 65.5836H395.676C394.507 65.5836 393.542 64.619 393.542 63.4514V47.0797C393.542 40.6579 398.775 35.429 405.201 35.429H451.128ZM451.128 33.373H405.201C397.606 33.373 391.459 39.5156 391.459 47.105V63.4768C391.459 65.7866 393.339 67.6649 395.65 67.6649H441.577C449.172 67.6649 455.32 61.5224 455.32 53.933V37.5612C455.32 35.2514 453.44 33.373 451.128 33.373Z" fill="white"/>
<path d="M417.597 41.7495H408.274H406.141V60.4057H409.392V53.7301H417.597C419.985 53.7301 421.915 51.801 421.915 49.4151V46.0646C421.915 43.6786 419.985 41.7495 417.597 41.7495ZM418.715 48.1713C418.715 49.6943 417.47 50.938 415.946 50.938H409.392V44.567H415.946C417.47 44.567 418.715 45.8107 418.715 47.3337V48.1713Z" fill="white"/>
<path d="M439.239 43.1456H435.861V41.7749H432.609V43.1456H429.231C426.208 43.1456 423.744 45.6077 423.744 48.6282V52.8925C423.744 55.913 426.208 58.3751 429.231 58.3751H432.609V60.4057H435.861V58.3751H439.239C442.262 58.3751 444.726 55.913 444.726 52.8925V48.6282C444.726 45.6077 442.288 43.1456 439.239 43.1456ZM431.162 55.9638C429.002 55.9638 427.25 54.2124 427.25 52.0549V49.4658C427.25 47.3083 429.002 45.5569 431.162 45.5569H432.635V55.9638H431.162ZM441.271 52.0549C441.271 54.2124 439.519 55.9638 437.36 55.9638H435.886V45.5569H437.36C439.519 45.5569 441.271 47.3083 441.271 49.4658V52.0549Z" fill="white"/>
<path d="M403.447 57.1318H400.195V60.3808H403.447V57.1318Z" fill="white"/>
<path d="M279.868 0.426165C278.954 0.197722 277.989 0.0961914 277.074 0.0961914C275.804 0.0961914 274.636 0.299252 273.569 0.705374C272.527 1.1115 271.613 1.6953 270.876 2.43139C270.114 3.21825 269.53 4.18279 269.123 5.29963C268.717 6.41646 268.514 7.71097 268.514 9.1324C268.514 10.63 268.717 11.9753 269.149 13.1175C269.581 14.2597 270.165 15.1988 270.901 15.9603C271.663 16.7218 272.578 17.2802 273.619 17.6356C274.661 17.9909 275.804 18.1686 277.074 18.1686C277.735 18.1686 278.37 18.1178 278.928 18.0163C279.487 17.9148 279.995 17.7879 280.478 17.6356C281.037 17.4579 281.494 17.2802 281.85 17.1279C282.18 16.9756 282.586 16.7979 282.993 16.6203L283.044 16.5949V13.7267H282.739L282.713 13.752C281.875 14.4881 280.986 15.0719 280.021 15.4273C279.055 15.7826 278.039 15.9857 276.947 15.9857C276.16 15.9857 275.398 15.8588 274.686 15.5796C273.975 15.3004 273.365 14.8942 272.832 14.3358C272.324 13.8028 271.892 13.0921 271.587 12.2291C271.257 11.3661 271.105 10.3254 271.105 9.1324C271.105 7.99018 271.257 6.97488 271.536 6.08649C271.816 5.22348 272.248 4.48738 272.756 3.92896C273.289 3.34517 273.899 2.91366 274.585 2.63445C275.271 2.35524 276.058 2.22833 276.896 2.22833C277.938 2.22833 278.954 2.40601 279.868 2.76136C280.783 3.11672 281.723 3.70052 282.663 4.48738L282.688 4.51276H282.993V1.64453L282.942 1.61915C281.85 1.06073 280.808 0.654609 279.868 0.426165Z" fill="#6D6D6D"/>
<path d="M292.062 17.8387H301.13V15.6051H293.611C292.748 15.6051 292.062 14.9197 292.062 14.0567V9.4117H301.13V7.17803H292.062V4.18289C292.062 3.31988 292.748 2.63455 293.611 2.63455H301.13V0.400879H292.062C290.69 0.400879 289.572 1.51771 289.572 2.88837V15.3512C289.598 16.7473 290.69 17.8387 292.062 17.8387Z" fill="#6D6D6D"/>
<path d="M305.805 2.63455H311.952V17.8387H314.441V2.63455H320.614V0.400879H305.805V2.63455Z" fill="#6D6D6D"/>
<path d="M337.607 8.37102C336.946 7.86336 336.21 7.53339 335.473 7.3811C334.736 7.25418 333.746 7.17803 332.577 7.17803H328.767V0.400879H326.277V17.8387H332.526C333.695 17.8387 334.685 17.7372 335.422 17.5088C336.184 17.2803 336.895 16.925 337.53 16.3919C338.089 15.9604 338.547 15.402 338.877 14.6913C339.207 14.006 339.385 13.2191 339.385 12.3815C339.385 11.5185 339.232 10.7316 338.953 10.0717C338.648 9.4117 338.191 8.8279 337.607 8.37102ZM336.768 12.4576C336.768 13.0668 336.667 13.5745 336.489 13.9552C336.286 14.3359 335.981 14.6913 335.574 14.9705C335.168 15.2497 334.685 15.4274 334.152 15.5289C333.619 15.6304 332.806 15.6812 331.79 15.6812H328.741V9.33556H331.84C332.856 9.33556 333.644 9.36094 334.177 9.43709C334.711 9.48785 335.193 9.66553 335.6 9.94474C335.981 10.1986 336.286 10.5539 336.464 10.96C336.667 11.3915 336.768 11.8992 336.768 12.4576Z" fill="#6D6D6D"/>
<path d="M367.201 0.400879C366.236 0.400879 365.397 1.01006 365.067 1.89845L359.301 17.7118L359.25 17.8387H361.79L363.492 13.0414H370.833L372.535 17.8387H375.177L369.36 1.89845C369.004 1.01006 368.166 0.400879 367.201 0.400879ZM370.046 10.8839H364.254L366.871 4.03059C366.972 3.77677 367.353 3.77677 367.455 4.03059L370.046 10.8839Z" fill="#6D6D6D"/>
<path d="M381.045 17.8387H383.534V2.63455H391.968V17.8387H394.457V2.50764C394.457 1.34004 393.517 0.400879 392.349 0.400879H383.179C382.01 0.400879 381.07 1.34004 381.07 2.50764V17.8387H381.045Z" fill="#6D6D6D"/>
<path d="M400.098 2.63455H406.245V17.8387H408.734V2.63455H414.907V0.400879H400.098V2.63455Z" fill="#6D6D6D"/>
<path d="M423.212 17.8387H432.103V15.6051H424.508C423.695 15.6051 423.034 14.9451 423.034 14.1329V9.4117H432.103V7.17803H423.034V4.10674C423.034 3.2945 423.695 2.63455 424.508 2.63455H432.103V0.400879H423.212C421.739 0.400879 420.545 1.59386 420.545 3.06605V15.1736C420.545 16.6457 421.739 17.8387 423.212 17.8387Z" fill="#6D6D6D"/>
<path d="M451.459 17.8387L443.025 8.90405L451.357 0.426261H448.182L441.603 7.20342V0.400879H439.139V17.8387H441.603V10.757L448.283 17.8387H451.459Z" fill="#6D6D6D"/>
</g>
<defs>
<clipPath id="clip0_1318_102657">
<rect width="455" height="68" fill="white" transform="translate(0.320312 0.0961914)"/>
</clipPath>
</defs>
</svg>
