<svg width="100" height="100" viewBox="0 0 100 100" fill="none" xmlns="http://www.w3.org/2000/svg">
<g id="vuesax/linear/setting-2">
<path id="Vector" fill-rule="evenodd" clip-rule="evenodd" d="M50 62.5C43.0964 62.5 37.5 56.9036 37.5 50C37.5 43.0964 43.0964 37.5 50 37.5C56.9036 37.5 62.5 43.0964 62.5 50C62.5 56.9036 56.9036 62.5 50 62.5Z" stroke="#925AFF" stroke-width="3" stroke-linecap="round" stroke-linejoin="round"/>
<path id="Vector_2" d="M8.33301 46.3331C8.33301 41.9997 11.8747 38.4164 16.2497 38.4164C23.7913 38.4164 26.8747 33.0831 23.083 26.5414C20.9163 22.7914 22.208 17.9164 25.9997 15.7497L33.208 11.6247C36.4997 9.6664 40.7497 10.8331 42.708 14.1247L43.1663 14.9164C46.9163 21.4581 53.083 21.4581 56.8747 14.9164L57.333 14.1247C59.2913 10.8331 63.5413 9.6664 66.833 11.6247L74.0413 15.7497C77.833 17.9164 79.1247 22.7914 76.958 26.5414C73.1663 33.0831 76.2497 38.4164 83.7913 38.4164C88.1247 38.4164 91.708 41.9581 91.708 46.3331V53.6664C91.708 57.9997 88.1663 61.5831 83.7913 61.5831C76.2497 61.5831 73.1663 66.9164 76.958 73.4581C79.1247 77.2497 77.833 82.0831 74.0413 84.2497L66.833 88.3747C63.5413 90.3331 59.2913 89.1664 57.333 85.8747L56.8747 85.0831C53.1247 78.5414 46.958 78.5414 43.1663 85.0831L42.708 85.8747C40.7497 89.1664 36.4997 90.3331 33.208 88.3747L25.9997 84.2497C22.208 82.0831 20.9163 77.2081 23.083 73.4581C26.8747 66.9164 23.7913 61.5831 16.2497 61.5831C11.8747 61.5831 8.33301 57.9997 8.33301 53.6664V46.3331Z" stroke="#925AFF" stroke-width="3" stroke-linecap="round" stroke-linejoin="round"/>
</g>
</svg>
