<svg width="30" height="30" viewBox="0 0 30 30" fill="none" xmlns="http://www.w3.org/2000/svg">
<rect x="0.5" y="0.5" width="29" height="29" rx="8.73077" stroke="#925AFF"/>
<path d="M22.2834 19.4846C22.2834 19.7615 22.2219 20.0461 22.0911 20.323C21.9603 20.6 21.7911 20.8615 21.568 21.1076C21.1911 21.523 20.7757 21.823 20.3065 22.0153C19.845 22.2076 19.345 22.3076 18.8065 22.3076C18.0219 22.3076 17.1834 22.123 16.2988 21.7461C15.4142 21.3692 14.5296 20.8615 13.6526 20.223C12.768 19.5769 11.9296 18.8615 11.1296 18.0692C10.3373 17.2692 9.62187 16.4307 8.98341 15.5538C8.35264 14.6769 7.84495 13.8 7.47572 12.9307C7.10649 12.0538 6.92188 11.2153 6.92188 10.4153C6.92188 9.89227 7.01418 9.39227 7.1988 8.93073C7.38341 8.4615 7.67572 8.03073 8.08341 7.64611C8.57572 7.1615 9.11418 6.92303 9.68341 6.92303C9.8988 6.92303 10.1142 6.96919 10.3065 7.0615C10.5065 7.1538 10.6834 7.29227 10.8219 7.49227L12.6065 10.0077C12.745 10.2 12.845 10.3769 12.9142 10.5461C12.9834 10.7076 13.0219 10.8692 13.0219 11.0153C13.0219 11.2 12.968 11.3846 12.8603 11.5615C12.7603 11.7384 12.6142 11.923 12.4296 12.1076L11.845 12.7153C11.7603 12.8 11.7219 12.9 11.7219 13.023C11.7219 13.0846 11.7296 13.1384 11.745 13.2C11.768 13.2615 11.7911 13.3076 11.8065 13.3538C11.945 13.6076 12.1834 13.9384 12.5219 14.3384C12.868 14.7384 13.2373 15.1461 13.6373 15.5538C14.0526 15.9615 14.4526 16.3384 14.8603 16.6846C15.2603 17.023 15.5911 17.2538 15.8526 17.3923C15.8911 17.4076 15.9373 17.4307 15.9911 17.4538C16.0526 17.4769 16.1142 17.4846 16.1834 17.4846C16.3142 17.4846 16.4142 17.4384 16.4988 17.3538L17.0834 16.7769C17.2757 16.5846 17.4603 16.4384 17.6373 16.3461C17.8142 16.2384 17.9911 16.1846 18.1834 16.1846C18.3296 16.1846 18.4834 16.2153 18.6526 16.2846C18.8219 16.3538 18.9988 16.4538 19.1911 16.5846L21.7373 18.3923C21.9373 18.5307 22.0757 18.6923 22.1603 18.8846C22.2373 19.0769 22.2834 19.2692 22.2834 19.4846Z" stroke="#925AFF" stroke-miterlimit="10"/>
</svg>
