<svg width="40" height="39" viewBox="0 0 40 39" fill="none" xmlns="http://www.w3.org/2000/svg">
<rect x="1.25" y="0.75" width="37.5" height="37.5" rx="11.25" stroke="#925AFF" stroke-width="1.5"/>
<path d="M24.0303 21.4697C23.7374 21.1768 23.2626 21.1768 22.9697 21.4697C22.6768 21.7626 22.6768 22.2374 22.9697 22.5303L24.0303 21.4697ZM28.9697 28.5303C29.2626 28.8232 29.7374 28.8232 30.0303 28.5303C30.3232 28.2374 30.3232 27.7626 30.0303 27.4697L28.9697 28.5303ZM18.5 23.25C15.0482 23.25 12.25 20.4518 12.25 17H10.75C10.75 21.2802 14.2198 24.75 18.5 24.75V23.25ZM12.25 17C12.25 13.5482 15.0482 10.75 18.5 10.75V9.25C14.2198 9.25 10.75 12.7198 10.75 17H12.25ZM18.5 10.75C21.9518 10.75 24.75 13.5482 24.75 17H26.25C26.25 12.7198 22.7802 9.25 18.5 9.25V10.75ZM24.75 17C24.75 20.4518 21.9518 23.25 18.5 23.25V24.75C22.7802 24.75 26.25 21.2802 26.25 17H24.75ZM22.9697 22.5303L28.9697 28.5303L30.0303 27.4697L24.0303 21.4697L22.9697 22.5303Z" fill="#925AFF"/>
</svg>
