<svg width="146" height="146" viewBox="0 0 146 146" fill="none" xmlns="http://www.w3.org/2000/svg">
<path d="M72.9991 99.8931C32.3449 99.8931 0.402344 87.8904 0.402344 72.7903C0.402344 57.4966 32.3449 45.4939 72.9991 45.4939C113.653 45.4939 145.596 57.4966 145.596 72.7903C145.402 87.8904 113.653 99.8931 72.9991 99.8931ZM72.9991 48.3978C35.2488 48.3978 3.30622 59.6261 3.30622 72.7903C3.30622 85.9545 35.2488 97.1828 72.9991 97.1828C110.749 97.1828 142.692 85.9545 142.692 72.7903C142.692 59.4325 110.749 48.3978 72.9991 48.3978Z" fill="#925AFF"/>
<path d="M72.9956 145.194C57.7019 145.194 45.6992 113.251 45.6992 72.5968C45.6992 31.9426 57.7019 0 72.9956 0C88.2893 0 100.292 31.9426 100.292 72.5968C100.098 113.445 88.0957 145.194 72.9956 145.194ZM72.9956 3.09746C59.8314 3.09746 48.6031 35.0401 48.6031 72.7904C48.6031 110.541 59.8314 142.483 72.9956 142.483C86.1598 142.483 97.3881 110.541 97.3881 72.7904C97.3881 35.0401 86.1598 3.09746 72.9956 3.09746Z" fill="#925AFF"/>
<path d="M114.036 127.577C99.5169 127.577 75.8987 114.219 53.8293 91.9558C24.9841 63.1107 10.852 32.136 21.6931 21.4885C32.5342 10.6474 63.5088 24.7796 92.1604 53.6247C121.006 82.4698 134.944 113.444 124.297 124.092C121.78 126.415 118.295 127.577 114.036 127.577ZM31.7598 20.5205C28.2752 20.5205 25.5649 21.4885 23.629 23.4244C14.3366 32.7168 29.0496 63.3043 55.7652 90.0199C82.4808 116.736 112.875 131.448 122.361 122.156C131.653 112.864 116.94 82.2762 90.2245 55.5606C68.9294 34.2655 45.3112 20.5205 31.7598 20.5205Z" fill="#925AFF"/>
<path d="M31.9534 127.577C27.6944 127.577 24.2098 126.415 21.6931 123.899C10.852 113.058 24.9841 82.083 53.8293 53.4314C82.4808 24.7799 113.455 10.6477 124.103 21.4888C134.944 32.33 120.812 63.3046 91.9668 91.9561C69.8974 114.219 46.4728 127.577 31.9534 127.577ZM114.036 20.5209C100.485 20.5209 76.8667 34.0723 55.7652 55.3673C29.0496 82.2765 14.3366 112.67 23.629 121.963C32.9214 131.255 63.5088 116.542 90.2245 89.8266C116.94 63.111 131.459 32.7171 122.167 23.4247C120.231 21.4888 117.521 20.5209 114.036 20.5209Z" fill="#925AFF"/>
</svg>
