<svg width="24" height="24" viewBox="0 0 24 24" fill="none" xmlns="http://www.w3.org/2000/svg">
<path d="M18.3845 14.8035C18.2104 14.7372 18.0211 14.7208 17.8382 14.7562L14.3342 15.4352C14.1174 15.4772 13.8921 15.4469 13.6963 15.3446C11.1903 14.0354 9.58687 12.526 8.61133 10.2681C8.53616 10.0941 8.51829 9.90107 8.55303 9.71475L9.21868 6.1441C9.25212 5.96472 9.23584 5.77961 9.17161 5.60882L8.05806 2.64798C7.91145 2.25815 7.53857 2 7.12207 2L4.06344 2C2.9359 2 2.04799 2.93178 2.21639 4.04668C2.63679 6.83 3.87638 11.8765 7.49985 15.5C11.305 19.3052 16.7856 20.9564 19.8019 21.6127C20.9666 21.8662 21.9998 20.9575 21.9998 19.7655L21.9998 16.8703C21.9998 16.4554 21.7436 16.0836 21.3559 15.9359L18.3845 14.8035Z" stroke="#925AFF" stroke-width="1.5" stroke-linecap="round" stroke-linejoin="round"/>
<path d="M16 5.6543L18.1926 7.84687L21.8469 4.19258" stroke="#925AFF" stroke-width="1.5" stroke-linecap="round" stroke-linejoin="round"/>
</svg>
