<svg width="25" height="24" viewBox="0 0 25 24" fill="none" xmlns="http://www.w3.org/2000/svg">
<g id="vuesax/linear/sms-notification">
<g id="sms-notification">
<path id="Vector" d="M22.5 10.5V15.5C22.5 19 20.5 20.5 17.5 20.5H7.5C4.5 20.5 2.5 19 2.5 15.5V8.5C2.5 5 4.5 3.5 7.5 3.5H14.5" stroke="#925AFF" stroke-width="1.5" stroke-miterlimit="10" stroke-linecap="round" stroke-linejoin="round"/>
<path id="Vector_2" d="M7.5 9L10.63 11.5C11.66 12.32 13.35 12.32 14.38 11.5L15.56 10.56" stroke="#925AFF" stroke-width="1.5" stroke-miterlimit="10" stroke-linecap="round" stroke-linejoin="round"/>
<path id="Vector_3" d="M20 8C21.3807 8 22.5 6.88071 22.5 5.5C22.5 4.11929 21.3807 3 20 3C18.6193 3 17.5 4.11929 17.5 5.5C17.5 6.88071 18.6193 8 20 8Z" stroke="#925AFF" stroke-width="1.5" stroke-miterlimit="10" stroke-linecap="round" stroke-linejoin="round"/>
</g>
</g>
</svg>
