<svg width="140" height="140" viewBox="0 0 140 140" fill="none" xmlns="http://www.w3.org/2000/svg">
<path d="M70.6683 140.232C70.4475 140.232 70.2266 140.232 70.0058 140.018L0.662515 102.422C0.220838 102.207 0 101.777 0 101.133C0 100.703 0.220838 100.273 0.662515 99.8438L68.6808 60.3144C69.1224 60.0996 69.5641 60.0996 70.0058 60.3144L139.349 97.9103C139.791 98.1251 140.012 98.5548 140.012 98.9844C140.012 99.4141 139.791 99.8438 139.349 100.273L71.3308 140.018C71.11 140.018 70.8891 140.232 70.6683 140.232ZM4.19593 101.133L70.6683 137.225L136.036 99.4141L69.5641 63.3221L4.19593 101.133Z" fill="#925AFF"/>
<path d="M70.6683 124.979C70.4475 124.979 70.2266 124.979 70.0058 124.764L0.662515 87.3834C0.220838 86.9538 0 86.5241 0 86.0944C0 85.6648 0.220838 85.2351 0.662515 84.8054L68.6808 45.2761C69.1224 45.0613 69.5641 45.0613 70.0058 45.2761L139.349 82.8719C139.791 83.0868 140.012 83.5164 140.012 83.9461C140.012 84.3758 139.791 84.8054 139.349 85.2351L71.3308 124.979C71.11 124.979 70.8891 124.979 70.6683 124.979ZM4.19593 86.0944L70.6683 122.186L136.036 84.3758L69.5641 48.0689L4.19593 86.0944Z" fill="#925AFF"/>
<path d="M70.6683 109.941C70.4475 109.941 70.2266 109.941 70.0058 109.726L0.662515 72.1303C0.220838 71.9154 0 71.4858 0 71.0561C0 70.6264 0.220838 70.1968 0.662515 69.7671L68.6808 30.2378C69.1224 30.023 69.5641 30.023 70.0058 30.2378L139.349 67.8336C139.791 68.0484 140.012 68.4781 140.012 68.9078C140.012 69.3374 139.791 69.7671 139.349 70.1968L71.3308 109.726C71.11 109.941 70.8891 109.941 70.6683 109.941ZM4.19593 71.0561L70.6683 106.933L136.036 69.1226L69.5641 33.0306L4.19593 71.0561Z" fill="#925AFF"/>
<path d="M70.6683 94.9026C70.4475 94.9026 70.2266 94.9026 70.0058 94.6877L0.662515 57.0919C0.220838 56.8771 0 56.4474 0 56.0178C0 55.5881 0.220838 55.1584 0.662515 54.7288L68.9016 15.1995C69.3433 14.9846 69.785 14.9846 70.2266 15.1995L139.57 52.7953C140.012 53.0101 140.232 53.4398 140.232 53.8694C140.232 54.2991 140.012 54.7288 139.57 55.1584L71.3308 94.6877C71.11 94.9026 70.8891 94.9026 70.6683 94.9026ZM4.19593 55.8029L70.6683 91.8949L136.036 54.0843L69.5641 17.9923L4.19593 55.8029Z" fill="#925AFF"/>
<path d="M70.6683 79.8643C70.4475 79.8643 70.2266 79.8643 70.0058 79.6494L0.662515 42.0536C0.220838 41.8388 0 41.4091 0 40.7646C0 40.3349 0.220838 39.9053 0.662515 39.4756L68.9016 0.161125C69.3433 -0.0537083 69.785 -0.0537083 70.2266 0.161125L139.57 37.7569C140.012 37.9718 140.232 38.4014 140.232 38.8311C140.232 39.2608 140.012 39.6904 139.57 40.1201L71.3308 79.6494C71.11 79.8643 70.8891 79.8643 70.6683 79.8643ZM4.19593 40.7646L70.6683 76.8566L136.036 39.0459L69.5641 2.95396L4.19593 40.7646Z" fill="#925AFF"/>
</svg>
