<svg width="210" height="46" viewBox="0 0 210 46" fill="none" xmlns="http://www.w3.org/2000/svg">
<path d="M209.376 42.8013C209.376 44.274 208.182 45.4679 206.709 45.4679C205.236 45.4679 204.042 44.274 204.042 42.8013C204.042 41.3285 205.236 40.1346 206.709 40.1346C208.182 40.1346 209.376 41.3285 209.376 42.8013ZM5.66667 3C5.66667 4.47276 4.47276 5.66667 3 5.66667C1.52724 5.66667 0.333328 4.47276 0.333328 3C0.333328 1.52724 1.52724 0.333333 3 0.333333C4.47276 0.333333 5.66667 1.52724 5.66667 3ZM192.282 10.1501L192.739 9.94802L192.282 10.1501ZM206.252 43.0033L191.825 10.3522L192.739 9.94802L207.166 42.5992L206.252 43.0033ZM181.306 3.5H3V2.5H181.306V3.5ZM191.825 10.3522C189.984 6.18696 185.859 3.5 181.306 3.5V2.5C186.255 2.5 190.739 5.4206 192.739 9.94802L191.825 10.3522Z" fill="#373144"/>
</svg>
