<svg width="162" height="57" viewBox="0 0 162 57" fill="none" xmlns="http://www.w3.org/2000/svg">
<path d="M61.1119 29.6604C60.9163 29.326 60.623 29.09 60.2319 28.972C59.743 28.8147 59.2345 28.7163 58.7456 28.7163C57.9438 28.7163 57.0834 28.9327 56.1838 29.3457C55.7145 29.5621 55.3038 29.8374 54.9714 30.1718C54.9127 29.7194 54.6976 29.4441 54.502 29.2867C54.2087 29.0703 53.8958 28.9523 53.5633 28.9523C53.1918 28.9523 52.8593 29.0703 52.5855 29.2867C52.3704 29.4637 52.1162 29.7784 52.1162 30.3685V41.6977C52.1162 42.1107 52.2531 42.4648 52.5269 42.7401C52.8007 43.0155 53.1527 43.1532 53.5633 43.1532C53.974 43.1532 54.326 42.9958 54.5998 42.7204C54.854 42.4451 54.9909 42.091 54.9909 41.678V35.8757C54.9909 34.6169 55.2842 33.5548 55.8709 32.7484C56.438 31.9617 57.2203 31.5879 58.2567 31.5879C58.5696 31.5879 58.9998 31.6666 59.4887 31.8043H59.5278C60.3492 31.9616 60.9359 31.6076 61.2292 30.7815C61.3465 30.3882 61.3074 29.9948 61.1119 29.6604Z" fill="#373144"/>
<path d="M64.5339 25.9036C63.6539 25.9036 62.9499 25.6479 62.4414 25.1169C61.9134 24.5858 61.6592 23.9171 61.6592 23.091C61.6592 22.2059 61.9134 21.4978 62.4414 20.9865C62.9694 20.4554 63.6539 20.1997 64.5339 20.1997C65.4139 20.1997 66.1179 20.4554 66.6263 20.9865C67.1544 21.5175 67.4086 22.2256 67.4086 23.091C67.4086 23.9171 67.1544 24.6055 66.6263 25.1169C66.0983 25.6479 65.4139 25.9036 64.5339 25.9036Z" fill="#925AFF"/>
<path d="M65.4922 29.0507C65.1989 28.8343 64.886 28.7163 64.5536 28.7163C64.182 28.7163 63.8496 28.8343 63.5758 29.0507C63.3607 29.2277 63.1064 29.5424 63.1064 30.1325V41.6977C63.1064 42.1107 63.2433 42.4648 63.5171 42.7401C63.7909 43.0155 64.1429 43.1532 64.5536 43.1532C64.9642 43.1532 65.3162 42.9958 65.59 42.7204C65.8442 42.4451 65.9811 42.091 65.9811 41.678V30.1128C65.9616 29.5424 65.7074 29.2277 65.4922 29.0507Z" fill="#373144"/>
<path d="M81.5476 29.2867C81.2543 29.0703 80.9414 28.9523 80.6089 28.9523C80.2374 28.9523 79.9049 29.0703 79.6311 29.2867C79.4356 29.4441 79.2205 29.7194 79.1618 30.1718C78.008 29.208 76.6 28.7163 74.9378 28.7163C72.9626 28.7163 71.3199 29.385 70.0293 30.7225C68.7581 32.06 68.1128 33.7712 68.1128 35.8364C68.1128 37.9606 68.7581 39.7308 70.0293 41.0879C71.3004 42.4648 72.9626 43.1532 74.9378 43.1532C75.9547 43.1532 76.9129 42.9565 77.7538 42.5434C78.2622 42.3074 78.7316 41.9927 79.1618 41.6387V42.7401C79.1618 43.8219 78.7902 44.6283 78.008 45.2184C77.2062 45.8281 76.2089 46.1231 75.0746 46.1231C74.4489 46.1231 73.8035 46.0248 73.1191 45.8281C72.4346 45.6314 71.8284 45.3954 71.3591 45.1397C71.0853 44.9824 70.8115 44.9037 70.5182 44.9037C69.7164 44.9037 69.247 45.4151 69.247 46.2805C69.247 46.8115 69.4817 47.2639 69.9315 47.5393C70.5768 47.9523 71.3591 48.2867 72.2977 48.5031C73.2169 48.7194 74.0969 48.8374 74.9378 48.8374C76.8933 48.8374 78.5751 48.2867 79.9245 47.2246C81.3129 46.1231 82.0169 44.53 82.0169 42.4648V30.3488C82.0169 29.7784 81.7627 29.4441 81.5476 29.2867ZM79.1618 35.8364C79.1618 37.3706 78.7707 38.5507 78.0276 39.2981C77.2649 40.0652 76.248 40.4389 74.9378 40.4389C73.7644 40.4389 72.8453 40.0062 72.1217 39.1407C71.3786 38.236 71.0266 37.1542 71.0266 35.8364C71.0266 34.5776 71.3786 33.5352 72.1217 32.6697C72.8453 31.824 73.7644 31.4109 74.9378 31.4109C76.248 31.4109 77.2649 31.765 78.0276 32.5124C78.7707 33.2598 79.1618 34.3612 79.1618 35.8364Z" fill="#373144"/>
<path d="M96.8209 30.3487C95.7257 29.2669 94.3373 28.7161 92.6946 28.7161C91.0324 28.7161 89.5657 29.2669 88.3337 30.3487V23.799C88.3337 23.2089 88.0794 22.8942 87.8643 22.7172C87.571 22.5008 87.2581 22.3828 86.9256 22.3828C86.5541 22.3828 86.2216 22.5008 85.9479 22.7172C85.7327 22.8942 85.4785 23.2089 85.4785 23.799V41.6975C85.4785 42.1106 85.6154 42.4646 85.8892 42.74C86.163 43.0153 86.515 43.153 86.9256 43.153C87.3363 43.153 87.6883 42.9956 87.9621 42.7203C88.2163 42.4449 88.3532 42.0909 88.3532 41.6778V35.8756C88.3532 35.2068 88.4901 34.5381 88.7639 33.8694C89.0377 33.2203 89.4679 32.6696 90.0937 32.2368C90.6999 31.8041 91.4821 31.5878 92.4404 31.5878C93.4573 31.5878 94.2395 31.9025 94.7871 32.5319C95.3542 33.1809 95.628 34.2037 95.628 35.6002V41.6975C95.628 42.1106 95.7649 42.4646 96.0386 42.74C96.3124 43.0153 96.6644 43.153 97.0751 43.153C97.4858 43.153 97.8378 42.9956 98.1115 42.7203C98.3658 42.4449 98.5027 42.0909 98.5027 41.6778V35.3248C98.4831 33.1219 97.916 31.4501 96.8209 30.3487Z" fill="#373144"/>
<path d="M108.437 40.0849C108.222 40.0849 107.987 40.1439 107.713 40.2422C107.537 40.3209 107.303 40.3406 106.99 40.3406C105.777 40.3406 105.249 39.7505 105.249 38.413V31.8633C105.249 31.8437 105.249 31.8437 105.249 31.8437H105.269H108.417C108.769 31.8437 109.082 31.706 109.356 31.4503C109.61 31.1946 109.747 30.8799 109.747 30.5259C109.747 30.1718 109.61 29.8571 109.356 29.6014C109.102 29.3457 108.769 29.2081 108.437 29.2081H105.288C105.269 29.2081 105.269 29.2081 105.269 29.2081C105.269 29.2081 105.269 29.1884 105.269 29.1687V24.9596C105.269 24.3695 105.015 24.0548 104.8 23.8778C104.506 23.6615 104.193 23.5435 103.822 23.5435C103.489 23.5435 103.176 23.6615 102.883 23.8778C102.668 24.0548 102.414 24.3695 102.414 24.9596V29.1687C102.414 29.1884 102.414 29.1884 102.414 29.2081H102.394H101.26C100.908 29.2081 100.595 29.3457 100.341 29.6014C100.087 29.8571 99.9497 30.1915 99.9497 30.5259C99.9497 30.8799 100.087 31.1946 100.341 31.4503C100.595 31.706 100.927 31.8437 101.28 31.8437H102.414C102.433 31.8437 102.433 31.8437 102.433 31.8437V31.8633V38.5704C102.433 39.9669 102.824 41.1076 103.587 41.9141C104.35 42.7401 105.425 43.1532 106.775 43.1532C107.088 43.1532 107.44 43.1335 107.792 43.0745C108.163 43.0352 108.515 42.9368 108.848 42.7992C109.473 42.6221 109.806 42.1501 109.806 41.4813C109.806 41.147 109.688 40.8323 109.473 40.5372C109.16 40.2619 108.828 40.0849 108.437 40.0849Z" fill="#373144"/>
<path d="M129.831 29.0705C129.557 28.8345 129.225 28.7164 128.853 28.7164C128.11 28.7164 127.621 29.0902 127.465 29.7589L124.707 39.4556C124.688 39.5146 124.668 39.5539 124.668 39.5736C124.649 39.5539 124.629 39.5146 124.629 39.4556L122.204 30.8997C122.106 30.5456 121.891 30.2506 121.52 30.0343C121.187 29.8376 120.796 29.7196 120.405 29.7196C119.994 29.7196 119.623 29.8179 119.29 30.0343C118.919 30.2506 118.684 30.5456 118.606 30.8997L116.181 39.4556C116.161 39.5146 116.142 39.5539 116.142 39.5736C116.122 39.5539 116.103 39.5146 116.103 39.4556L113.306 29.6999C113.13 29.0508 112.661 28.6968 111.957 28.6968C111.546 28.6968 111.194 28.8345 110.92 29.1098C110.647 29.3852 110.51 29.7196 110.51 30.1129C110.51 30.349 110.529 30.526 110.568 30.644L113.952 41.4815C114.284 42.5632 115.027 43.1336 116.122 43.1336C117.257 43.1336 118 42.5632 118.293 41.4618L120.405 33.732L122.517 41.4618C122.81 42.5632 123.553 43.1336 124.688 43.1336C125.783 43.1336 126.526 42.5632 126.839 41.4815L130.222 30.5653C130.261 30.4276 130.281 30.2703 130.281 30.0736C130.261 29.6605 130.105 29.3065 129.831 29.0705Z" fill="#925AFF"/>
<path d="M144.889 29.2867C144.596 29.0703 144.283 28.9523 143.911 28.9523C143.579 28.9523 143.266 29.0703 142.972 29.2867C142.777 29.4441 142.562 29.7194 142.503 30.1718C141.349 29.208 139.941 28.7163 138.279 28.7163C136.304 28.7163 134.661 29.385 133.371 30.7225C132.099 32.06 131.454 33.7712 131.454 35.8364C131.454 37.9606 132.099 39.7308 133.371 41.0879C134.642 42.4648 136.304 43.1532 138.279 43.1532C139.296 43.1532 140.254 42.9565 141.095 42.5434C141.604 42.3074 142.073 41.9927 142.503 41.6387V41.6977C142.503 42.1107 142.64 42.4648 142.894 42.7401C143.148 43.0155 143.5 43.1728 143.931 43.1728C144.341 43.1728 144.693 43.0351 144.967 42.7598C145.241 42.4844 145.378 42.1304 145.378 41.7173V30.3882C145.378 29.7784 145.104 29.4441 144.889 29.2867ZM141.369 39.3178C140.606 40.0848 139.589 40.4585 138.279 40.4585C137.106 40.4585 136.187 40.0258 135.463 39.1604C134.72 38.2556 134.368 37.1739 134.368 35.8561C134.368 34.5973 134.72 33.5548 135.463 32.6894C136.187 31.8436 137.106 31.4306 138.279 31.4306C139.589 31.4306 140.606 31.7846 141.369 32.532C142.112 33.2598 142.503 34.3809 142.503 35.8561C142.503 37.3902 142.112 38.5507 141.369 39.3178Z" fill="#925AFF"/>
<path d="M160.357 29.0703C160.025 28.8343 159.692 28.7163 159.379 28.7163C159.027 28.7163 158.402 28.854 158.089 29.7194L154.256 39.5931C154.177 39.6128 154.138 39.6128 154.099 39.6128C154.021 39.6128 153.825 39.6128 153.63 39.1997L149.836 29.6801C149.504 28.854 148.917 28.736 148.585 28.736C148.311 28.736 147.998 28.8147 147.665 28.972C147.235 29.1687 147 29.5817 147 30.0931C147 30.2308 147.04 30.4078 147.118 30.6438L151.733 41.7763C151.85 42.0517 152.065 42.3074 152.359 42.5434C152.515 42.6811 152.691 42.7598 152.867 42.8385L150.97 47.0476C150.873 47.2246 150.833 47.4409 150.833 47.6966C150.833 47.9917 150.931 48.385 151.401 48.7194C151.733 48.9554 152.065 49.0735 152.378 49.0735C152.73 49.0735 153.356 48.9358 153.669 48.09L160.787 30.7225L160.807 30.7029C160.885 30.4668 160.924 30.2898 160.924 30.1128C160.924 29.7981 160.826 29.385 160.357 29.0703Z" fill="#925AFF"/>
<path d="M22.9195 50.7451C34.9835 50.7451 44.7633 40.9088 44.7633 28.7752C44.7633 16.6415 34.9835 6.80518 22.9195 6.80518C10.8555 6.80518 1.07568 16.6415 1.07568 28.7752C1.07568 40.9088 10.8555 50.7451 22.9195 50.7451Z" fill="#373144"/>
<path d="M30.7026 34.5973L26.9479 29.7981C26.3612 29.1294 25.5594 28.677 24.6598 28.559C21.2767 28.1066 18.9496 32.1977 21.1985 34.7743L24.2492 38.1967L30.7026 34.5973Z" fill="white"/>
<path d="M30.6247 34.4986C32.2869 33.6135 33.5971 32.3743 34.5358 30.7222C35.4745 29.0897 35.9438 27.2605 35.9438 25.2346C35.9438 21.6549 34.7705 18.8816 32.4238 16.9344C30.3313 15.2429 27.6131 14.3774 24.269 14.3774H13.5916C12.692 14.3774 11.8316 14.6921 11.1667 15.2822C8.60486 17.5834 10.1889 21.8319 13.5916 21.8319H24.8948C27.6913 21.8319 29.0993 22.953 29.0993 25.2149C29.0993 26.3754 28.63 27.2408 27.6913 27.8309C26.9482 28.2832 26.0291 28.5193 24.8948 28.5193C23.4672 28.5193 22.3135 29.6797 22.3135 31.1155V35.069C22.3135 35.718 22.5481 36.3278 22.9784 36.7998L27.6326 41.9727C28.3171 42.7201 29.2753 43.1528 30.2922 43.1528C33.4016 43.1528 35.0443 39.4354 32.9518 37.1145L30.6247 34.4986Z" fill="white"/>
<path d="M13.7089 36.2297C15.8258 36.2297 17.5418 34.5037 17.5418 32.3746C17.5418 30.2455 15.8258 28.5195 13.7089 28.5195C11.592 28.5195 9.87598 30.2455 9.87598 32.3746C9.87598 34.5037 11.592 36.2297 13.7089 36.2297Z" fill="#925AFF"/>
</svg>
