<svg xmlns="http://www.w3.org/2000/svg" width="799" height="799" viewBox="0 0 799 799" fill="none">
<circle opacity="0.2" cx="399.499" cy="399.499" r="398.999" stroke="#925AFF"/>
<circle opacity="0.9" cx="399.498" cy="399.499" r="196.419" stroke="#925AFF"/>
<circle opacity="0.9" cx="399.501" cy="399.499" r="212.876" stroke="#925AFF"/>
<circle opacity="0.9" cx="399.501" cy="399.499" r="233.271" stroke="#925AFF"/>
<circle opacity="0.9" cx="399.503" cy="399.499" r="258.643" stroke="#925AFF"/>
<circle opacity="0.3" cx="399.5" cy="399.499" r="339" stroke="#925AFF"/>
<circle opacity="0.5" cx="399.5" cy="399.499" r="291" stroke="#925AFF"/>
<path d="M399.502 579.724C498.466 579.724 578.692 499.035 578.692 399.499C578.692 299.964 498.466 219.274 399.502 219.274C300.538 219.274 220.312 299.964 220.312 399.499C220.312 499.035 300.538 579.724 399.502 579.724Z" fill="#373144"/>
<path d="M463.346 447.259L432.546 407.89C427.733 402.404 421.156 398.693 413.776 397.725C386.024 394.014 366.934 427.574 385.382 448.711L410.408 476.785L463.346 447.259Z" fill="white"/>
<path d="M462.709 446.452C476.345 439.191 487.093 429.026 494.793 415.473C502.493 402.081 506.344 387.076 506.344 370.457C506.344 341.092 496.718 318.342 477.468 302.369C460.303 288.493 438.004 281.394 410.573 281.394H322.983C315.604 281.394 308.545 283.975 303.091 288.816C282.076 307.693 295.07 342.544 322.983 342.544H415.706C438.646 342.544 450.196 351.741 450.196 370.296C450.196 379.815 446.346 386.915 438.646 391.755C432.55 395.466 425.01 397.402 415.706 397.402C403.995 397.402 394.53 406.922 394.53 418.7V451.131C394.53 456.455 396.456 461.457 399.985 465.329L438.165 507.764C443.78 513.895 451.64 517.444 459.982 517.444C485.489 517.444 498.964 486.95 481.799 467.911L462.709 446.452Z" fill="white"/>
<path d="M323.95 460.649C341.315 460.649 355.393 446.491 355.393 429.025C355.393 411.56 341.315 397.401 323.95 397.401C306.585 397.401 292.508 411.56 292.508 429.025C292.508 446.491 306.585 460.649 323.95 460.649Z" fill="#925AFF"/>
</svg>