<svg width="360" height="361" viewBox="0 0 360 361" fill="none" xmlns="http://www.w3.org/2000/svg">
<path d="M180.002 360.725C278.966 360.725 359.192 280.036 359.192 180.5C359.192 80.9648 278.966 0.275391 180.002 0.275391C81.0384 0.275391 0.8125 80.9648 0.8125 180.5C0.8125 280.036 81.0384 360.725 180.002 360.725Z" fill="#373144"/>
<path d="M243.846 228.26L213.046 188.891C208.233 183.405 201.656 179.694 194.276 178.726C166.524 175.015 147.434 208.575 165.882 229.712L190.908 257.786L243.846 228.26Z" fill="white"/>
<path d="M243.209 227.453C256.845 220.192 267.593 210.027 275.293 196.474C282.993 183.082 286.844 168.077 286.844 151.458C286.844 122.093 277.218 99.343 257.968 83.3697C240.803 69.4938 218.504 62.3945 191.073 62.3945H103.483C96.1036 62.3945 89.0451 64.9761 83.5908 69.8165C62.5757 88.6941 75.5698 123.545 103.483 123.545H196.206C219.146 123.545 230.696 132.742 230.696 151.297C230.696 160.816 226.846 167.916 219.146 172.756C213.05 176.467 205.51 178.403 196.206 178.403C184.495 178.403 175.03 187.923 175.03 199.701V232.132C175.03 237.456 176.956 242.458 180.485 246.33L218.665 288.765C224.28 294.896 232.14 298.445 240.482 298.445C265.989 298.445 279.464 267.951 262.299 248.912L243.209 227.453Z" fill="white"/>
<path d="M104.45 241.65C121.815 241.65 135.893 227.492 135.893 210.026C135.893 192.561 121.815 178.402 104.45 178.402C87.0851 178.402 73.0078 192.561 73.0078 210.026C73.0078 227.492 87.0851 241.65 104.45 241.65Z" fill="#925AFF"/>
</svg>
