<svg width="30" height="30" viewBox="0 0 30 30" fill="none" xmlns="http://www.w3.org/2000/svg">
<g id="vuesax/linear/personalcard">
<g id="personalcard">
<path id="Vector" d="M21.25 26.25H8.75C3.75 26.25 2.5 25 2.5 20V10C2.5 5 3.75 3.75 8.75 3.75H21.25C26.25 3.75 27.5 5 27.5 10V20C27.5 25 26.25 26.25 21.25 26.25Z" stroke="white" stroke-width="1.5" stroke-linecap="round" stroke-linejoin="round"/>
<path id="Vector_2" d="M10.6248 14.1125C11.8743 14.1125 12.8873 13.0996 12.8873 11.85C12.8873 10.6005 11.8743 9.58752 10.6248 9.58752C9.37526 9.58752 8.3623 10.6005 8.3623 11.85C8.3623 13.0996 9.37526 14.1125 10.6248 14.1125Z" stroke="white" stroke-width="1.5" stroke-linecap="round" stroke-linejoin="round"/>
<path id="Vector_3" d="M15 20.4125C14.825 18.6 13.3875 17.175 11.575 17.0125C10.95 16.95 10.3125 16.95 9.675 17.0125C7.8625 17.1875 6.425 18.6 6.25 20.4125" stroke="white" stroke-width="1.5" stroke-linecap="round" stroke-linejoin="round"/>
</g>
</g>
</svg>
