<svg width="210" height="46" viewBox="0 0 210 46" fill="none" xmlns="http://www.w3.org/2000/svg">
<path d="M0.333333 42.8013C0.333333 44.274 1.52724 45.4679 3 45.4679C4.47276 45.4679 5.66667 44.274 5.66667 42.8013C5.66667 41.3285 4.47276 40.1346 3 40.1346C1.52724 40.1346 0.333333 41.3285 0.333333 42.8013ZM204.042 3C204.042 4.47276 205.236 5.66667 206.709 5.66667C208.182 5.66667 209.376 4.47276 209.376 3C209.376 1.52724 208.182 0.333333 206.709 0.333333C205.236 0.333333 204.042 1.52724 204.042 3ZM3.45734 43.0033L17.8844 10.3522L16.9697 9.94802L2.54266 42.5992L3.45734 43.0033ZM28.4033 3.5H206.709V2.5H28.4033V3.5ZM17.8844 10.3522C19.7248 6.18696 23.8496 3.5 28.4033 3.5V2.5C23.4536 2.5 18.9702 5.4206 16.9697 9.94802L17.8844 10.3522Z" fill="#373144"/>
</svg>
