<svg width="80" height="80" viewBox="0 0 80 80" fill="none" xmlns="http://www.w3.org/2000/svg">
<path d="M6.66699 6.66675H12.467C16.067 6.66675 18.9003 9.76675 18.6003 13.3334L15.8337 46.5334C15.367 51.9667 19.667 56.6334 25.1336 56.6334H60.6337C65.4337 56.6334 69.6337 52.7001 70.0003 47.9334L71.8003 22.9334C72.2003 17.4001 68.0003 12.9001 62.4336 12.9001H19.4003" stroke="#925AFF" stroke-width="2" stroke-miterlimit="10" stroke-linecap="round" stroke-linejoin="round"/>
<path d="M54.1667 73.3333C56.4679 73.3333 58.3333 71.4679 58.3333 69.1667C58.3333 66.8655 56.4679 65 54.1667 65C51.8655 65 50 66.8655 50 69.1667C50 71.4679 51.8655 73.3333 54.1667 73.3333Z" stroke="#925AFF" stroke-width="2" stroke-miterlimit="10" stroke-linecap="round" stroke-linejoin="round"/>
<path d="M27.4997 73.3333C29.8009 73.3333 31.6663 71.4679 31.6663 69.1667C31.6663 66.8655 29.8009 65 27.4997 65C25.1985 65 23.333 66.8655 23.333 69.1667C23.333 71.4679 25.1985 73.3333 27.4997 73.3333Z" stroke="#925AFF" stroke-width="2" stroke-miterlimit="10" stroke-linecap="round" stroke-linejoin="round"/>
<path d="M30 26.6667H70" stroke="#925AFF" stroke-width="2" stroke-miterlimit="10" stroke-linecap="round" stroke-linejoin="round"/>
</svg>
