<svg width="80" height="80" viewBox="0 0 80 80" fill="none" xmlns="http://www.w3.org/2000/svg">
<path d="M8.33301 44.1332V38.3666C8.33301 31.4666 13.9663 25.8333 20.8663 25.8333H59.133C66.033 25.8333 71.6663 31.4666 71.6663 38.3666V43.1666H64.933C63.0663 43.1666 61.3663 43.8999 60.133 45.1665C58.733 46.5332 57.933 48.4999 58.133 50.5999C58.433 54.1999 61.733 56.8332 65.333 56.8332H71.6663V60.7999C71.6663 67.6999 66.033 73.3333 59.133 73.3333H40.8663" stroke="#925AFF" stroke-width="2" stroke-linecap="round" stroke-linejoin="round"/>
<path d="M8.33301 41.3666V26.1334C8.33301 22.1668 10.7663 18.6333 14.4663 17.2333L40.933 7.23329C45.0663 5.66662 49.4997 8.73339 49.4997 13.1667V25.8333" stroke="#925AFF" stroke-width="2" stroke-linecap="round" stroke-linejoin="round"/>
<path d="M75.1957 46.5671V53.434C75.1957 55.2673 73.729 56.7672 71.8624 56.8338H65.3291C61.7291 56.8338 58.429 54.2005 58.129 50.6005C57.929 48.5005 58.729 46.5338 60.129 45.1672C61.3623 43.9005 63.0624 43.1672 64.929 43.1672H71.8624C73.729 43.2339 75.1957 44.7338 75.1957 46.5671Z" stroke="#925AFF" stroke-width="2" stroke-linecap="round" stroke-linejoin="round"/>
<path d="M23.333 40H46.6663" stroke="#925AFF" stroke-width="2" stroke-linecap="round" stroke-linejoin="round"/>
<path d="M10 55H27.8C29.9333 55 31.6667 56.7332 31.6667 58.8666V63.1333" stroke="#925AFF" stroke-width="2" stroke-miterlimit="10" stroke-linecap="round" stroke-linejoin="round"/>
<path d="M14.0667 50.9333L10 54.9999L14.0667 59.0665" stroke="#925AFF" stroke-width="2" stroke-miterlimit="10" stroke-linecap="round" stroke-linejoin="round"/>
<path d="M31.6667 72.6001H13.8667C11.7333 72.6001 10 70.8667 10 68.7334V64.4668" stroke="#925AFF" stroke-width="2" stroke-miterlimit="10" stroke-linecap="round" stroke-linejoin="round"/>
<path d="M27.6045 76.6675L31.6712 72.601L27.6045 68.5342" stroke="#925AFF" stroke-width="2" stroke-miterlimit="10" stroke-linecap="round" stroke-linejoin="round"/>
</svg>
