<svg width="80" height="80" viewBox="0 0 80 80" fill="none" xmlns="http://www.w3.org/2000/svg">
<path d="M70.0334 37.3999V52.3665C70.0334 67.3332 64.0666 73.3333 49.0666 73.3333H31.1001C29.1667 73.3333 27.3999 73.2334 25.7666 73.0001" stroke="#925AFF" stroke-width="2" stroke-linecap="round" stroke-linejoin="round"/>
<path d="M10.1328 51.7334V37.3999" stroke="#925AFF" stroke-width="2" stroke-linecap="round" stroke-linejoin="round"/>
<path d="M40.1004 40.0001C46.2004 40.0001 50.7004 35.0336 50.1004 28.9336L47.8669 6.66675H32.3003L30.067 28.9336C29.467 35.0336 34.0004 40.0001 40.1004 40.0001Z" stroke="#925AFF" stroke-width="2" stroke-linecap="round" stroke-linejoin="round"/>
<path d="M61.1001 40.0001C67.8334 40.0001 72.7667 34.5333 72.1001 27.8333L71.1666 18.6667C69.9666 10 66.6334 6.66675 57.9 6.66675H47.7334L50.0668 30.0334C50.6668 35.5334 55.6001 40.0001 61.1001 40.0001Z" stroke="#925AFF" stroke-width="2" stroke-linecap="round" stroke-linejoin="round"/>
<path d="M18.9 40.0001C24.4 40.0001 29.3666 35.5334 29.8999 30.0334L30.6334 22.6669L32.2333 6.66675H22.0667C13.3333 6.66675 10.0001 10 8.80007 18.6667L7.86664 27.8333C7.19997 34.5333 12.1666 40.0001 18.9 40.0001Z" stroke="#925AFF" stroke-width="2" stroke-linecap="round" stroke-linejoin="round"/>
<path d="M29.9997 63.3333C29.9997 65.8333 29.2996 68.2002 28.0663 70.2002C27.433 71.2669 26.6663 72.2334 25.7663 73.0001C25.6663 73.1334 25.5664 73.2333 25.433 73.3333C23.0997 75.4333 20.033 76.6667 16.6663 76.6667C12.5997 76.6667 8.96624 74.8332 6.56624 71.9666C6.49958 71.8666 6.39976 71.8 6.33309 71.7C5.93309 71.2334 5.5664 70.7335 5.2664 70.2002C4.03306 68.2002 3.33301 65.8333 3.33301 63.3333C3.33301 59.1333 5.26634 55.3667 8.33301 52.9333C8.89967 52.4667 9.4996 52.0667 10.1329 51.7334C12.0663 50.6334 14.2997 50 16.6663 50C19.9997 50 22.9996 51.1999 25.3329 53.2332C25.7329 53.5332 26.0996 53.9001 26.433 54.2668C28.633 56.6668 29.9997 59.8333 29.9997 63.3333Z" stroke="#925AFF" stroke-width="2" stroke-miterlimit="10" stroke-linecap="round" stroke-linejoin="round"/>
<path d="M21.6335 63.2666H11.7002" stroke="#925AFF" stroke-width="2" stroke-miterlimit="10" stroke-linecap="round" stroke-linejoin="round"/>
<path d="M16.667 58.4001V68.3668" stroke="#925AFF" stroke-width="2" stroke-miterlimit="10" stroke-linecap="round" stroke-linejoin="round"/>
</svg>
