<svg width="80" height="80" viewBox="0 0 80 80" fill="none" xmlns="http://www.w3.org/2000/svg">
<path d="M41.6654 73.3338H13.5988C9.7321 73.3338 6.56543 70.2338 6.56543 66.4338V16.9672C6.56543 8.23385 13.0654 4.26718 21.0321 8.16718L35.8321 15.4338C39.0321 17.0005 41.6654 21.1672 41.6654 24.7005V73.3338Z" stroke="#925AFF" stroke-width="2" stroke-linecap="round" stroke-linejoin="round"/>
<path d="M73.2337 50.2003V62.8003C73.2337 70.0003 69.9003 73.3336 62.7003 73.3336H41.667V34.7336L43.2337 35.067L58.2337 38.4336L65.0003 39.9336C69.4003 40.9003 73.0003 43.167 73.2003 49.567C73.2337 49.767 73.2337 49.967 73.2337 50.2003Z" stroke="#925AFF" stroke-width="2" stroke-linecap="round" stroke-linejoin="round"/>
<path d="M18.333 30.0002H29.8997" stroke="#925AFF" stroke-width="2" stroke-linecap="round" stroke-linejoin="round"/>
<path d="M18.333 43.3337H29.8997" stroke="#925AFF" stroke-width="2" stroke-linecap="round" stroke-linejoin="round"/>
<path d="M58.2324 38.4338V49.1671C58.2324 53.3005 54.8658 56.6671 50.7324 56.6671C46.5991 56.6671 43.2324 53.3005 43.2324 49.1671V35.0671L58.2324 38.4338Z" stroke="#925AFF" stroke-width="2" stroke-linecap="round" stroke-linejoin="round"/>
<path d="M73.1991 49.5672C72.9991 53.5005 69.7324 56.6672 65.7324 56.6672C61.5991 56.6672 58.2324 53.3005 58.2324 49.1672V38.4338L64.9991 39.9338C69.3991 40.9005 72.9991 43.1672 73.1991 49.5672Z" stroke="#925AFF" stroke-width="2" stroke-linecap="round" stroke-linejoin="round"/>
</svg>
