<svg width="88" height="88" viewBox="0 0 88 88" fill="none" xmlns="http://www.w3.org/2000/svg">
<path d="M36.4937 85.8271L36.4526 86.0539L36.4936 85.8271C13.3661 81.6466 -2.03016 59.4402 2.15025 36.3125C5.88114 15.7701 23.862 1.31734 44.068 1.31734C46.5642 1.31734 49.126 1.51975 51.6638 1.99137L51.665 1.99159C74.7925 6.17208 90.1889 28.4011 86.0084 51.5063C81.8279 74.6112 59.5989 90.0076 36.4937 85.8271ZM36.3586 86.545C38.9512 87.0226 41.5437 87.25 44.0906 87.25C64.6243 87.25 82.9063 72.5384 86.7038 51.6407L86.7039 51.6405C90.9561 28.1282 75.3118 5.54838 51.7992 1.2961C28.2869 -2.95612 5.70707 12.6881 1.4548 36.2007C-2.7974 59.6901 12.8464 82.2924 36.3586 86.545Z" fill="#925AFF" stroke="#925AFF" stroke-width="0.5"/>
<path d="M27.208 19.0722L27.2079 19.0723L27.2143 19.0745C27.3741 19.1277 27.5364 19.1551 27.7003 19.1551C28.0513 19.1551 28.418 19.0799 28.7612 18.8451C29.2329 18.5694 29.5946 18.1383 29.7273 17.6608L29.7273 17.6608L29.7289 17.6545C29.8091 17.3339 29.7866 17.0407 29.6371 16.7716L29.6371 16.7716L29.6351 16.7681C29.4258 16.4053 29.0866 16.1873 28.6893 16.1285C28.2976 16.0706 27.8634 16.1684 27.4427 16.4035L27.4427 16.4035L27.4392 16.4055C27.0472 16.6331 26.7451 16.9643 26.5753 17.3267C26.4061 17.688 26.3615 18.0985 26.522 18.4632L26.5217 18.4633L26.5272 18.4743C26.6703 18.7605 26.9023 18.9611 27.208 19.0722ZM28.4916 16.8717C28.7447 16.8717 28.9166 16.9646 29.0496 17.1415C29.0987 17.2335 29.1124 17.3373 29.0683 17.4696L29.0653 17.4787L29.063 17.488C28.9933 17.7665 28.7559 18.0541 28.4199 18.232L28.4198 18.232L28.4154 18.2344C28.0458 18.4397 27.6933 18.4789 27.4679 18.3984L27.4564 18.3943L27.4445 18.3913C27.3369 18.3644 27.2427 18.2804 27.2067 18.1962L27.2038 18.1895L27.2005 18.1829C27.1338 18.0495 27.1381 17.8591 27.2481 17.6416C27.3567 17.4266 27.5571 17.2134 27.8218 17.0663L27.8218 17.0664L27.8263 17.0637C28.0611 16.9268 28.2892 16.8717 28.4916 16.8717Z" fill="#925AFF" stroke="#925AFF" stroke-width="0.5"/>
<path d="M33.6558 51.3095L33.656 51.3099C36.1908 59.3218 39.5596 67.9243 43.2161 74.5287C45.0439 77.8299 46.9495 80.6431 48.8665 82.6343C50.777 84.6189 52.7363 85.8259 54.671 85.8259C54.8623 85.8259 55.0573 85.8032 55.2348 85.7553C55.4253 85.7313 55.5314 85.5518 55.5314 85.395C55.5314 85.1769 55.3367 85.0546 55.1684 85.0546H55.1523L55.1365 85.0566C53.66 85.2465 51.9957 84.5448 50.179 82.8954C48.3661 81.2496 46.4369 78.6912 44.4424 75.2542L44.442 75.2536C40.9278 69.2389 37.3398 60.6443 34.3363 51.0692L34.3363 51.0691C30.0638 37.4677 28.8894 25.3293 28.5806 20.2182C30.6395 26.3338 36.4291 42.7899 43.6642 56.9773C48.4016 66.2823 52.1883 73.0363 55.1221 77.393C56.588 79.5699 57.8484 81.1597 58.9149 82.1708C59.4481 82.6763 59.9417 83.0457 60.3968 83.2698C60.8521 83.494 61.287 83.5813 61.6889 83.4912L61.7013 83.4884L61.7133 83.4844C61.7732 83.4645 61.8543 83.4251 61.9134 83.3464C61.9822 83.2546 61.9976 83.14 61.9618 83.0326C61.9419 82.9726 61.9025 82.8915 61.8238 82.8325C61.7364 82.767 61.6284 82.7498 61.5256 82.7792C61.2954 82.8289 60.9993 82.7804 60.6203 82.5816C60.2377 82.3809 59.7937 82.0388 59.287 81.5423C58.274 80.5498 57.0461 78.9764 55.5968 76.8037C52.6999 72.4613 48.9467 65.7686 44.2905 56.6596C35.4857 39.4242 28.8461 18.8367 28.4523 17.6156C28.4484 17.6036 28.4451 17.5935 28.4425 17.5853C28.4194 17.4549 28.3157 17.3878 28.2694 17.3646C28.2081 17.334 28.1409 17.3213 28.0841 17.3213H28.0251L27.9723 17.3477C27.9226 17.3725 27.8726 17.4093 27.8321 17.4566C27.794 17.5011 27.7437 17.5796 27.7437 17.6843C27.7437 17.858 27.9937 33.3039 33.6558 51.3095Z" fill="#925AFF" stroke="#925AFF" stroke-width="0.5"/>
<path d="M66.9922 80.6258H67.0957L67.1617 80.5598C67.3133 80.4722 67.3876 80.2842 67.3118 80.1174C66.9465 79.2156 66.0614 77.57 64.8769 75.5068C63.6863 73.433 62.1844 70.9222 60.5816 68.289C57.6574 63.485 54.3947 58.2696 52.0684 54.5511C51.8447 54.1935 51.6296 53.8497 51.4244 53.5215C51.4242 53.5212 51.424 53.521 51.4238 53.5207L51.0631 52.9344L51.062 52.9327C47.4955 47.2427 34.2518 26.558 29.8504 19.6939C33.9788 23.4558 43.797 32.6394 51.4476 42.0098C58.9052 51.1623 64.464 58.7763 67.9593 64.5775C69.7075 67.4789 70.9344 69.9185 71.6258 71.8649C72.3215 73.8233 72.4534 75.2244 72.0986 76.0929C72.0417 76.2189 72.0871 76.3361 72.1176 76.391C72.1524 76.4536 72.2095 76.5155 72.2837 76.5526L72.3955 76.329L72.2837 76.5526C72.4139 76.6177 72.5366 76.5705 72.5932 76.539C72.6558 76.5042 72.7176 76.4472 72.7547 76.3729L72.7587 76.365L72.7621 76.3569C73.047 75.6693 73.0784 74.8092 72.9192 73.828C72.7595 72.8439 72.4044 71.7154 71.8914 70.4751C70.8653 67.9944 69.1937 65.0345 67.1317 61.8347C63.0066 55.4333 57.2967 48.0376 51.9934 41.5356C42.1772 29.5007 28.773 17.7373 28.3655 17.3861C28.315 17.3384 28.2355 17.2871 28.1292 17.2871C28.0344 17.2871 27.9608 17.328 27.9102 17.3707C27.8172 17.4352 27.7838 17.5338 27.7762 17.6028C27.7676 17.6796 27.784 17.7561 27.8152 17.8185L27.8201 17.8283L27.8259 17.8377C27.8672 17.9049 28.8558 19.4501 30.4064 21.8738C35.6155 30.0157 47.1672 48.0713 50.457 53.3105C50.4572 53.3108 50.4574 53.3111 50.4576 53.3114L50.8181 53.8973L50.8191 53.899C52.9783 57.3468 56.5834 63.1049 59.8295 68.4388C61.4526 71.1058 62.9853 73.6657 64.2022 75.777C65.409 77.8708 66.2968 79.5092 66.6589 80.375C66.6777 80.4613 66.7314 80.5269 66.7914 80.5668C66.8585 80.6116 66.9325 80.6258 66.9922 80.6258Z" fill="#925AFF" stroke="#925AFF" stroke-width="0.5"/>
<path d="M77.2652 71.4469L77.2124 71.4205C77.1382 71.3834 77.0811 71.3216 77.0463 71.259C77.0159 71.2043 76.9708 71.0879 77.0266 70.9626C77.7197 69.2135 77.6955 67.0675 76.9183 64.5214C76.1401 61.9721 74.6122 59.0399 72.3258 55.7398L72.3253 55.7391C68.6542 50.4014 63.1519 44.2884 55.9467 37.5124L56.1112 37.3374L55.9467 37.5124C43.9431 26.2225 29.3474 18.7275 28.0123 18.0419C27.9712 18.0208 27.9426 18.0061 27.9271 17.998L27.9271 17.998C27.8318 17.9504 27.7779 17.8666 27.7537 17.7941C27.7296 17.7216 27.7225 17.6223 27.7701 17.527C27.7936 17.48 27.834 17.4206 27.8965 17.376C27.9577 17.3323 28.0642 17.2901 28.1818 17.3317C28.1821 17.3318 28.1825 17.3318 28.1828 17.3319L28.2288 17.3422C28.268 17.3511 28.3236 17.3636 28.395 17.38C28.5379 17.4128 28.7435 17.461 29.0069 17.5252C29.5337 17.6536 30.2912 17.8465 31.2386 18.1101C33.1333 18.6372 35.788 19.4476 38.8759 20.5921C45.0497 22.8804 52.9649 26.5081 60.0001 31.8866L60.0001 31.8866C68.4192 38.3254 74.4058 44.1262 78.073 49.4763C81.738 54.8232 83.0992 59.74 82.2302 64.3992C82.2198 64.5216 82.1463 64.6108 82.0604 64.6585C81.9828 64.7016 81.9008 64.7098 81.8458 64.7098C81.708 64.7098 81.6081 64.6314 81.5566 64.5388C81.5135 64.4611 81.5053 64.3791 81.5053 64.3241V64.3009L81.5096 64.2781C82.3413 59.8316 81.0454 55.0831 77.4375 49.8327C73.8277 44.5796 67.9168 38.8446 59.5608 32.4421C49.0186 24.3793 36.4388 20.2718 30.8908 18.7319C35.8507 21.4641 46.9506 28.0382 56.4474 36.9672L77.2652 71.4469ZM77.2652 71.4469H77.3242H77.3243H77.3245H77.3246H77.3247H77.3248H77.325H77.3251H77.3252H77.3254H77.3255H77.3256H77.3257H77.3259H77.326H77.3261H77.3262H77.3264H77.3265H77.3266H77.3267H77.3269H77.327H77.3271H77.3272H77.3273H77.3275H77.3276H77.3277H77.3278H77.3279H77.3281H77.3282H77.3283H77.3284H77.3285H77.3286H77.3288H77.3289H77.329H77.3291H77.3292H77.3293H77.3294H77.3295H77.3297H77.3298H77.3299H77.33H77.3301H77.3302H77.3303H77.3304H77.3305H77.3306H77.3307H77.3309H77.331H77.3311H77.3312H77.3313H77.3314H77.3315H77.3316H77.3317H77.3318H77.3319H77.332H77.3321H77.3322H77.3323H77.3324H77.3325H77.3326H77.3327H77.3328H77.3329H77.333H77.3331H77.3332H77.3333H77.3334H77.3335H77.3336H77.3337H77.3338H77.3339H77.334H77.3341H77.3342H77.3343H77.3344H77.3344H77.3345H77.3346H77.3347H77.3348H77.3349H77.335H77.3351H77.3352H77.3353H77.3354H77.3355H77.3355H77.3356H77.3357H77.3358H77.3359H77.336H77.3361H77.3362H77.3363H77.3363H77.3364H77.3365H77.3366H77.3367H77.3368H77.3369H77.3369H77.337H77.3371H77.3372H77.3373H77.3374H77.3374H77.3375H77.3376H77.3377H77.3378H77.3379H77.3379H77.338H77.3381H77.3382H77.3383H77.3383H77.3384H77.3385H77.3386H77.3387H77.3387H77.3388H77.3389H77.339H77.3391H77.3391H77.3392H77.3393H77.3394H77.3395H77.3395H77.3396H77.3397H77.3398H77.3398H77.3399H77.34H77.3401H77.3401H77.3402H77.3403H77.3404H77.3404H77.3405H77.3406H77.3407H77.3407H77.3408H77.3409H77.341H77.341H77.3411H77.3412H77.3413H77.3413H77.3414H77.3415H77.3415H77.3416H77.3417H77.3418H77.3418H77.3419H77.342H77.342H77.3421H77.3422H77.3423H77.3423H77.3424H77.3425H77.3425H77.3426H77.3427H77.3428H77.3428H77.3429H77.343H77.343H77.3431H77.3432H77.3432H77.3433H77.3434H77.3434H77.3435H77.3436H77.3436H77.3437H77.3438H77.3439H77.3439H77.344H77.3441H77.3441H77.3442H77.3443H77.3443H77.3444H77.3445H77.3445H77.3446H77.3447H77.3447H77.3448H77.3449H77.3449H77.345H77.3451H77.3451H77.3452H77.3453H77.3453H77.3454H77.3455H77.3455H77.3456H77.3457H77.3457H77.3458H77.3459H77.3459H77.346H77.3461H77.3461H77.3462H77.3463H77.3463H77.3464H77.3465H77.3465H77.3466H77.3467H77.3467H77.3468H77.3469H77.3469H77.347H77.3471H77.3471H77.3472H77.3473H77.3473H77.3474H77.3475H77.3475H77.3476H77.3477H77.3477H77.3478H77.3479H77.3479H77.348H77.3481H77.3481H77.3482H77.3483H77.3483H77.3484H77.3485H77.3485H77.3486H77.3487H77.3487H77.3488H77.3489H77.3489H77.349H77.3491H77.3491H77.3492H77.3493H77.3493H77.3494H77.3495H77.3495H77.3496H77.3497H77.3497H77.3498H77.3499H77.3499H77.35H77.3501H77.3501H77.3502H77.3503H77.3504H77.3504H77.3505H77.3506H77.3506H77.3507H77.3508H77.3508H77.3509H77.351H77.3511H77.3511H77.3512H77.3513H77.3513H77.3514H77.3515H77.3515H77.3516H77.3517H77.3518H77.3518H77.3519H77.352H77.352H77.3521H77.3522H77.3523H77.3523H77.3524H77.3525H77.3526H77.3526H77.3527H77.3528H77.3529H77.3529H77.353H77.3531H77.3531H77.3532H77.3533H77.3534H77.3535H77.3535H77.3536H77.3537H77.3538H77.3538H77.3539H77.354H77.3541H77.3541H77.3542H77.3543H77.3544H77.3545H77.3545H77.3546H77.3547H77.3548H77.3548H77.3549H77.355H77.3551H77.3552H77.3552H77.3553H77.3554H77.3555H77.3556H77.3556H77.3557H77.3558H77.3559H77.356H77.3561H77.3561H77.3562H77.3563H77.3564H77.3565H77.3566H77.3566H77.3567H77.3568H77.3569H77.357H77.3571H77.3572H77.3573H77.3573H77.3574H77.3575H77.3576H77.3577H77.3578H77.3579H77.358H77.358H77.3581H77.3582H77.3583H77.3584H77.3585H77.3586H77.3587H77.3588H77.3589H77.359H77.359H77.3591H77.3592H77.3593H77.3594H77.3595H77.3596H77.3597H77.3598H77.3599H77.36H77.3601H77.3602H77.3603H77.3604H77.3605H77.3606H77.3607H77.3608H77.3609H77.361H77.3611H77.3612H77.3613H77.3614H77.3615H77.3616H77.3617H77.3618H77.3619H77.362H77.3621H77.3622H77.3623H77.3624H77.3625H77.3626H77.3627H77.3628H77.3629H77.3631H77.3632H77.3633H77.3634H77.3635H77.3636H77.3637H77.3638H77.3639H77.364H77.3642H77.3643H77.3644H77.3645H77.3646H77.3647H77.3648H77.365H77.3651H77.3652H77.3653H77.3654H77.3655H77.3657H77.3658H77.3659H77.366H77.3661H77.3662H77.3664H77.3665H77.3666H77.3667H77.3669H77.367H77.3671H77.3672H77.3673H77.3675H77.3676H77.3677H77.3678H77.368H77.3681H77.3682H77.3684H77.3685H77.3686H77.3687H77.3689H77.369H77.3691H77.3693H77.3694C77.4704 71.4469 77.5479 71.4 77.5916 71.3635C77.6158 71.3434 77.6399 71.3182 77.6601 71.2879C77.6702 71.2727 77.6884 71.2431 77.6997 71.2023M77.2652 71.4469L77.6997 71.2023M72.5313 55.5975C73.7443 57.3482 74.7472 58.9994 75.5397 60.5486L72.5313 55.5975ZM72.5313 55.5975C71.2666 53.7586 69.7862 51.8292 68.0956 49.8138L72.5313 55.5975ZM77.6997 71.2023C78.5636 69.0161 78.3638 66.4529 77.4292 63.6953C76.4913 60.9279 74.8045 57.9379 72.6596 54.8857C68.3693 48.7806 62.2168 42.3859 56.4475 36.9673L77.6997 71.2023Z" fill="#925AFF" stroke="#925AFF" stroke-width="0.5"/>
<path d="M84.9656 57.4979C85.1715 57.4979 85.2921 57.3243 85.3049 57.1632C86.4935 50.4044 83.264 43.2094 76.0719 36.3804L76.0718 36.3803C68.1716 28.8887 58.5078 24.3983 54.7224 22.8116L54.7221 22.8115C45.8475 19.1046 37.1229 17.8818 32.198 17.4747C38.4998 16.9119 51.2153 16.6995 63.525 21.9832C73.7198 26.3653 79.4326 31.5433 82.6172 36.197C85.8003 40.8486 86.4685 44.9926 86.5469 47.3283C86.548 47.4174 86.5796 47.5102 86.6511 47.5818C86.7241 47.6547 86.8191 47.6861 86.9099 47.6861C87.0006 47.6861 87.0956 47.6547 87.1686 47.5818C87.2416 47.5088 87.2729 47.4138 87.2729 47.323H87.273L87.2728 47.3148C87.1924 44.8797 86.4977 40.6038 83.2305 35.8243C79.9634 31.0449 74.1348 25.778 63.8128 21.3429L63.8128 21.3429C55.1139 17.6067 46.2162 16.5865 39.4759 16.5043C32.976 16.4251 28.4652 17.218 28.0522 17.2999C27.9344 17.3105 27.849 17.3795 27.8014 17.4555C27.7565 17.5273 27.7437 17.6046 27.7437 17.6615C27.7437 17.8032 27.8392 17.8907 27.8832 17.9236C27.9343 17.9619 28.014 18.0019 28.1067 18.0019C28.1076 18.0019 28.1091 18.0019 28.1112 18.0019C28.4146 18.0012 41.2851 17.9731 54.4616 23.4763C60.2869 25.9101 68.5233 30.4574 74.954 36.3364C81.3937 42.2238 85.9623 49.3887 84.6063 57.0688L84.6025 57.0904V57.1123C84.6025 57.3239 84.7557 57.4415 84.8865 57.4851L84.9486 57.2988V57.4979H84.9487H84.9487H84.9487H84.9488H84.9488H84.9488H84.9489H84.9489H84.9489H84.949H84.949H84.9491H84.9491H84.9491H84.9492H84.9492H84.9493H84.9493H84.9494H84.9494H84.9495H84.9495H84.9495H84.9496H84.9496H84.9496H84.9496H84.9497H84.9497H84.9497H84.9498H84.9498H84.9499H84.9499H84.9499H84.95H84.95H84.95H84.9501H84.9501H84.9502H84.9502H84.9502H84.9503H84.9503H84.9504H84.9504H84.9504H84.9505H84.9505H84.9506H84.9506H84.9507H84.9507H84.9508H84.9508H84.9509H84.9509H84.951H84.951H84.9511H84.9511H84.9512H84.9512H84.9513H84.9513H84.9514H84.9514H84.9515H84.9515H84.9516H84.9516H84.9517H84.9518H84.9518H84.9519H84.9519H84.952H84.952H84.9521H84.9522H84.9522H84.9523H84.9523H84.9524H84.9525H84.9525H84.9526H84.9527H84.9527H84.9528H84.9529H84.9529H84.953H84.9531H84.9531H84.9532H84.9533H84.9533H84.9534H84.9535H84.9535H84.9536H84.9537H84.9538H84.9538H84.9539H84.954H84.9541H84.9541H84.9542H84.9543H84.9544H84.9544H84.9545H84.9546H84.9547H84.9548H84.9548H84.9549H84.955H84.9551H84.9552H84.9552H84.9553H84.9554H84.9555H84.9556H84.9557H84.9558H84.9558H84.9559H84.956H84.9561H84.9562H84.9563H84.9564H84.9565H84.9565H84.9566H84.9567H84.9568H84.9569H84.957H84.9571H84.9572H84.9573H84.9574H84.9575H84.9576H84.9577H84.9578H84.9579H84.958H84.9581H84.9582H84.9583H84.9584H84.9585H84.9586H84.9587H84.9588H84.9589H84.959H84.9591H84.9592H84.9593H84.9594H84.9595H84.9596H84.9597H84.9598H84.9599H84.96H84.9601H84.9603H84.9604H84.9605H84.9606H84.9607H84.9608H84.9609H84.961H84.9611H84.9613H84.9614H84.9615H84.9616H84.9617H84.9618H84.962H84.9621H84.9622H84.9623H84.9624H84.9626H84.9627H84.9628H84.9629H84.963H84.9632H84.9633H84.9634H84.9635H84.9636H84.9638H84.9639H84.964H84.9642H84.9643H84.9644H84.9645H84.9647H84.9648H84.9649H84.9651H84.9652H84.9653H84.9654H84.9656Z" fill="#925AFF" stroke="#925AFF" stroke-width="0.5"/>
<path d="M86.4011 36.279C86.5951 36.2143 86.7036 35.9998 86.6211 35.8108C81.0293 20.6004 67.7188 16.8737 55.8033 14.5901C47.4616 12.9845 37.7895 14.7608 32.3338 16.1045C34.3025 15.276 36.8595 14.2994 39.7219 13.4503C44.3288 12.0837 49.7089 11.053 54.6943 11.49L54.6943 11.49C60.5055 11.9987 65.2821 12.5848 69.5824 14.2797C73.8734 15.971 77.7047 18.7727 81.6038 23.7392L81.613 23.751L81.6236 23.7616C81.6725 23.8105 81.7431 23.8577 81.8305 23.8752C81.9267 23.8944 82.0443 23.8754 82.1354 23.7842C82.1843 23.7354 82.2315 23.6648 82.249 23.5774C82.2673 23.4861 82.2511 23.3755 82.1714 23.2865C78.1939 18.2203 74.267 15.3384 69.8591 13.5998C65.4582 11.8639 60.5923 11.2744 54.7605 10.7658C48.6271 10.23 41.9522 11.8596 36.8088 13.6213C34.234 14.5032 32.0367 15.4204 30.4742 16.1215C29.6929 16.4721 29.07 16.7688 28.6379 16.9802C28.4219 17.0858 28.2535 17.1702 28.1368 17.2293C28.0784 17.2588 28.0331 17.282 28.0012 17.2984L27.9637 17.3177L27.953 17.3232C27.9511 17.3241 27.9501 17.3246 27.9497 17.3249C27.9496 17.3249 27.9495 17.325 27.9495 17.325C27.8542 17.3726 27.8004 17.4563 27.7762 17.5288C27.7535 17.597 27.7458 17.6889 27.7846 17.7789C27.8545 17.9607 28.0581 18.061 28.2402 17.9863C28.2487 17.9836 28.2598 17.9801 28.2733 17.9757C28.7573 17.8216 32.4342 16.6503 37.4514 15.7429C42.784 14.7784 49.6043 14.1175 55.6864 15.2846C67.5228 17.566 80.4937 21.2282 85.9647 36.0341C85.9821 36.1238 86.037 36.1919 86.0985 36.2329C86.1657 36.2776 86.2397 36.2918 86.2994 36.2918H86.2995H86.2996H86.2998H86.2999H86.3H86.3002H86.3003H86.3004H86.3006H86.3007H86.3008H86.3009H86.3011H86.3012H86.3013H86.3014H86.3016H86.3017H86.3018H86.3019H86.3021H86.3022H86.3023H86.3024H86.3025H86.3027H86.3028H86.3029H86.303H86.3031H86.3032H86.3034H86.3035H86.3036H86.3037H86.3038H86.3039H86.3041H86.3042H86.3043H86.3044H86.3045H86.3046H86.3047H86.3048H86.3049H86.3051H86.3052H86.3053H86.3054H86.3055H86.3056H86.3057H86.3058H86.3059H86.306H86.3061H86.3062H86.3063H86.3064H86.3065H86.3066H86.3067H86.3068H86.3069H86.307H86.3071H86.3072H86.3073H86.3074H86.3075H86.3076H86.3077H86.3078H86.3079H86.308H86.3081H86.3082H86.3083H86.3084H86.3085H86.3086H86.3087H86.3088H86.3089H86.309H86.3091H86.3092H86.3092H86.3093H86.3094H86.3095H86.3096H86.3097H86.3098H86.3099H86.3099H86.31H86.3101H86.3102H86.3103H86.3104H86.3105H86.3105H86.3106H86.3107H86.3108H86.3109H86.311H86.311H86.3111H86.3112H86.3113H86.3114H86.3114H86.3115H86.3116H86.3117H86.3118H86.3118H86.3119H86.312H86.3121H86.3121H86.3122H86.3123H86.3124H86.3125H86.3125H86.3126H86.3127H86.3127H86.3128H86.3129H86.313H86.313H86.3131H86.3132H86.3132H86.3133H86.3134H86.3135H86.3135H86.3136H86.3137H86.3137H86.3138H86.3139H86.3139H86.314H86.3141H86.3141H86.3142H86.3143H86.3143H86.3144H86.3145H86.3145H86.3146H86.3146H86.3147H86.3148H86.3148H86.3149H86.3149H86.315H86.3151H86.3151H86.3152H86.3153H86.3153H86.3154H86.3154H86.3155H86.3155H86.3156H86.3157H86.3157H86.3158H86.3158H86.3159H86.3159H86.316H86.316H86.3161H86.3162H86.3162H86.3163H86.3163H86.3164H86.3164H86.3165H86.3165H86.3166H86.3166H86.3167H86.3167H86.3168H86.3168H86.3169H86.3169H86.317H86.317H86.3171H86.3171H86.3172H86.3172H86.3173H86.3173H86.3173H86.3174H86.3174H86.3175H86.3175H86.3176H86.3176H86.3177H86.3177H86.3178H86.3178H86.3178H86.3179H86.3179H86.318H86.318H86.3181H86.3181H86.3181H86.3182H86.3182H86.3183H86.3183H86.3183H86.3184H86.3184H86.3184H86.3185H86.3185H86.3186H86.3186H86.3186H86.3187H86.3187H86.3187H86.3188H86.3188H86.3189H86.3189H86.3189H86.319H86.319H86.319H86.3191H86.3191H86.3191H86.3192H86.3192H86.3192H86.3193H86.3193H86.3193H86.3194H86.3194H86.3194H86.3195H86.3195H86.3195H86.3195H86.3196H86.3196H86.3196H86.3197H86.3197H86.3198H86.3199H86.3199H86.32H86.32H86.3201H86.3201H86.3202H86.3202H86.3203H86.3203H86.3204H86.3204H86.3205H86.3205H86.3205H86.3206H86.3206H86.3207H86.3207H86.3207H86.3208H86.3208H86.3209H86.3209H86.3209H86.321H86.321H86.321H86.3211H86.3211H86.3211H86.3211H86.3212H86.3212H86.3213H86.3213H86.3213H86.3214H86.3214H86.3214H86.3215H86.3215H86.3215H86.3216H86.3216H86.3216H86.3217H86.3217H86.3217H86.3218H86.3218H86.3218H86.3219H86.3219H86.3219H86.322H86.322H86.3626L86.4011 36.279Z" fill="#925AFF" stroke="#925AFF" stroke-width="0.5"/>
<path d="M44.8821 9.6277C52.1792 7.5782 63.089 5.76974 74.0245 13.651C74.1126 13.7268 74.2208 13.7421 74.3103 13.7242C74.3978 13.7067 74.4684 13.6594 74.5172 13.6106C74.6084 13.5194 74.6274 13.4018 74.6082 13.3057C74.5907 13.2182 74.5434 13.1476 74.4946 13.0988L74.4803 13.0845L74.4638 13.0726C63.2477 5.00249 52.0749 6.8557 44.6788 8.94294C39.4964 10.3995 34.6098 13.064 31.4604 15.0128C33.3009 13.4392 35.8869 11.4653 39.0144 9.69501L39.015 9.69465C44.9752 6.29849 54.1617 2.98974 64.1436 6.34198C64.3262 6.41876 64.5313 6.31866 64.6017 6.13624C64.6839 5.94754 64.5758 5.73336 64.3822 5.66843C54.1345 2.22209 44.7196 5.62666 38.6551 9.05636L38.6548 9.05654C35.3702 10.9205 32.6778 12.9995 30.8011 14.6179C29.8624 15.4273 29.1272 16.1221 28.6232 16.6178C28.1987 17.0355 27.917 17.3341 27.8535 17.4023C27.7675 17.4685 27.7329 17.5683 27.7329 17.653C27.7329 17.7502 27.7746 17.8406 27.84 17.9061C27.8761 17.9421 27.9178 17.9678 27.9502 17.984C27.9703 17.9941 28.0143 18.0147 28.0689 18.022L28.1751 18.1281L28.3432 17.9599L28.3565 17.9496C28.3724 17.9374 28.3959 17.9196 28.427 17.8963C28.4892 17.8499 28.5803 17.7829 28.6987 17.6976C28.9354 17.527 29.2803 17.2837 29.7199 16.9857C30.5991 16.3896 31.856 15.5753 33.382 14.687C36.436 12.9093 40.5584 10.8406 44.882 9.62772L44.8821 9.6277ZM28.2106 18.0061C28.211 18.006 28.2109 18.006 28.2105 18.0062L28.2106 18.0061Z" fill="#925AFF" stroke="#925AFF" stroke-width="0.5"/>
<path d="M30.4111 15.1805C31.6957 13.612 33.5614 11.5553 35.9091 9.57832C40.246 5.9381 47.1307 1.83402 55.4279 2.82707C55.5401 2.85878 55.6451 2.81818 55.7083 2.77081C55.7875 2.7114 55.8478 2.61189 55.8478 2.49168C55.8478 2.43483 55.835 2.35754 55.7901 2.28571C55.7409 2.20705 55.6512 2.136 55.527 2.12918C46.9532 1.08175 39.8579 5.31259 35.4512 9.03781C33.4681 10.7085 31.8179 12.4356 30.568 13.8855C31.6786 12.0864 33.2131 9.90284 35.1412 7.8662C38.2306 4.60287 42.3052 1.74268 47.2437 1.40766C47.455 1.40133 47.5733 1.21032 47.5733 1.04478C47.5733 0.826725 47.3787 0.704346 47.2103 0.704346H47.202L47.1936 0.704901C40.9958 1.11886 36.1563 5.31166 32.8746 9.37412C29.6296 13.391 27.8701 17.3264 27.7887 17.5126C27.7453 17.6054 27.7527 17.7013 27.7762 17.7717C27.7921 17.8196 27.821 17.8723 27.8662 17.9163C27.8668 17.9171 27.8674 17.9178 27.868 17.9186C27.9098 17.9723 27.9617 17.9974 27.9965 18.009C28.0298 18.0201 28.0589 18.0228 28.0734 18.0237C28.0874 18.0247 28.1007 18.0246 28.1056 18.0246H28.1066C28.1758 18.0246 28.2507 18.0055 28.3165 17.9529C28.3621 17.9164 28.391 17.8732 28.4091 17.8406L28.4138 17.834L28.4434 17.7913C28.4493 17.7826 28.4559 17.7731 28.463 17.7628C28.485 17.7307 28.5126 17.6904 28.5463 17.6417C28.6351 17.5133 28.7649 17.3277 28.9341 17.0938C29.2725 16.626 29.7689 15.9645 30.4111 15.1805ZM27.9715 17.5986C27.9715 17.5986 27.9717 17.5982 27.9721 17.5975L27.9722 17.5975C27.9717 17.5983 27.9715 17.5986 27.9715 17.5986Z" fill="#925AFF" stroke="#925AFF" stroke-width="0.5"/>
<path d="M32.9599 2.0655C32.8707 2.04765 32.763 2.06275 32.6751 2.13789C31.4694 2.9957 30.5682 4.37565 29.8911 5.94211C29.2102 7.51711 28.746 9.30376 28.429 10.994C27.795 14.3744 27.7437 17.4034 27.7437 17.6614C27.7437 17.7521 27.775 17.8472 27.848 17.9201C27.9209 17.9931 28.016 18.0245 28.1067 18.0245C28.2077 18.0245 28.2829 17.9768 28.317 17.9525C28.354 17.926 28.3833 17.8966 28.3949 17.885L28.3965 17.8834L28.4423 17.8376L28.4601 17.7753C28.4612 17.7714 28.4643 17.7597 28.4692 17.7406C28.571 17.3486 29.4835 13.8328 31.3203 10.1484C32.2835 8.21639 33.4961 6.2483 34.971 4.66407C36.4461 3.07974 38.1713 1.89215 40.1606 1.49319L40.1758 1.49015L40.1905 1.48524C40.2505 1.46528 40.3316 1.42591 40.3906 1.3472C40.4595 1.2554 40.4749 1.14078 40.4391 1.03337C40.4191 0.973469 40.3798 0.892328 40.3011 0.8333C40.2145 0.768358 40.1076 0.750946 40.0056 0.779216C36.3286 1.52919 33.5711 4.72372 31.6264 8.07452C30.2764 10.4007 29.3 12.8334 28.6682 14.6542C28.8095 13.207 29.0572 11.4006 29.4859 9.60609C29.8253 8.18557 30.2763 6.77985 30.8736 5.56828C31.4718 4.35479 32.2087 3.3525 33.1111 2.7187L33.1288 2.70623L33.1442 2.69089C33.193 2.64206 33.2403 2.57145 33.2578 2.48402C33.277 2.38786 33.258 2.27027 33.1668 2.17908L32.99 2.35586L33.1668 2.17908C33.1179 2.13025 33.0473 2.08299 32.9599 2.0655Z" fill="#925AFF" stroke="#925AFF" stroke-width="0.5"/>
<path d="M27.8006 17.8553L27.8169 17.8832L27.8398 17.9061C27.8406 17.907 27.8416 17.9079 27.8426 17.909C27.8711 17.9377 27.9573 18.0245 28.107 18.0245H28.1071H28.1072H28.1074H28.1075H28.1076H28.1078H28.1079H28.108H28.1082H28.1083H28.1084H28.1086H28.1087H28.1088H28.109H28.1091H28.1092H28.1093H28.1095H28.1096H28.1097H28.1099H28.11H28.1101H28.1103H28.1104H28.1105H28.1107H28.1108H28.1109H28.1111H28.1112H28.1113H28.1115H28.1116H28.1117H28.1119H28.112H28.1121H28.1122H28.1124H28.1125H28.1126H28.1128H28.1129H28.113H28.1132H28.1133H28.1134H28.1135H28.1137H28.1138H28.1139H28.1141H28.1142H28.1143H28.1145H28.1146H28.1147H28.1148H28.115H28.1151H28.1152H28.1154H28.1155H28.1156H28.1157H28.1159H28.116H28.1161H28.1163H28.1164H28.1165H28.1166H28.1168H28.1169H28.117H28.1171H28.1173H28.1174H28.1175H28.1176H28.1178H28.1179H28.118H28.1181H28.1183H28.1184H28.1185H28.1186H28.1188H28.1189H28.119H28.1191H28.1193H28.1194H28.1195H28.1196H28.1198H28.1199H28.12H28.1201H28.1202H28.1204H28.1205H28.1206H28.1207H28.1208H28.121H28.1211H28.1212H28.1213H28.1214H28.1216H28.1217H28.1218H28.1219H28.122H28.1222H28.1223H28.1224H28.1225H28.1226H28.1228H28.1229H28.123H28.1231H28.1232H28.1233H28.1234H28.1236H28.1237H28.1238H28.1239H28.124H28.1241H28.1242H28.1244H28.1245H28.1246H28.1247H28.1248H28.1249H28.125H28.1251H28.1253H28.1254H28.1255H28.1256H28.1257H28.1258H28.1259H28.126H28.1261H28.1262H28.1264H28.1265H28.1266H28.1267H28.1268H28.1269H28.127H28.1271H28.1272H28.1273H28.1274H28.1275H28.1276H28.1277H28.1278H28.1279H28.128H28.1281H28.1282H28.1283H28.1284H28.1285H28.1286H28.1287H28.1288H28.1289H28.129H28.1291H28.1292H28.1293H28.1294H28.1295H28.1296H28.1296H28.1297H28.1297H28.1298H28.1298H28.1299H28.13H28.13H28.1301H28.1301H28.1302H28.1302H28.1303H28.1304H28.1304H28.1305H28.1305H28.1306H28.1306H28.1307H28.1307H28.1308H28.1308H28.1309H28.1309H28.131H28.131H28.1311H28.1311H28.1312H28.1312H28.1313H28.1313H28.1314H28.1314H28.1315H28.1316H28.1316H28.1317H28.1317H28.1318H28.1318H28.1318H28.1319H28.1319H28.132H28.1321H28.1321H28.1322H28.1322H28.1323H28.1324H28.1324H28.1325H28.1325H28.1326H28.1326H28.1327H28.1327H28.1328H28.1328H28.1329H28.1329H28.1329H28.133H28.133H28.1331H28.1332H28.1332H28.1333H28.1333H28.1333H28.1334H28.1334H28.1335H28.1336H28.1336H28.1336H28.1337H28.1337H28.1338H28.1338H28.1339H28.134H28.134H28.134H28.1341H28.1341H28.1342H28.1342H28.1343H28.1343H28.1343H28.1344H28.1344H28.1345H28.1345H28.1345H28.1346H28.1347H28.1347H28.1348H28.1348H28.1348H28.1349H28.1349H28.1349H28.135H28.135H28.1351H28.1351H28.1352H28.1352H28.1352H28.1353H28.1353H28.1354H28.1354H28.1354H28.1355H28.1355H28.1356H28.1356H28.1356H28.1357H28.1357H28.1357H28.1357H28.1358H28.1359H28.1359H28.1359H28.136H28.136H28.136H28.136H28.1361H28.1361H28.1362H28.1362H28.1362H28.1363H28.1363H28.1363H28.1364H28.1364H28.1364H28.1364H28.1365H28.1365H28.1366H28.1366H28.1366H28.1367H28.1367H28.1367H28.1367H28.1368H28.1368H28.1368H28.1369H28.1369H28.1369H28.137H28.137H28.137H28.1371H28.1371H28.1371H28.1371H28.1372H28.1372H28.1372H28.1373H28.1373H28.1373H28.1374H28.1374H28.1374H28.1374H28.1375H28.1375H28.1375H28.1375H28.1376H28.1376H28.1376H28.1376H28.1376H28.1377H28.1377H28.1377H28.1378H28.1378H28.1378H28.1378H28.1379H28.1379H28.1379H28.1379H28.1379H28.138H28.138H28.138H28.138H28.138H28.1381H28.1381H28.1381H28.1382H28.1382H28.1382H28.1382H28.1383H28.1383H28.1383H28.1383H28.1383H28.1383H28.1383H28.1384H28.1384H28.1384H28.1384H28.1384H28.1385H28.1385H28.1385H28.1385H28.1386H28.1386H28.1386H28.1386H28.1386H28.1387H28.1387H28.1387H28.1387H28.1387H28.1387H28.1387H28.1387H28.1387H28.1387H28.1388H28.1388H28.1388H28.1388H28.1388H28.1388H28.1388H28.1389H28.1389H28.1389H28.1389H28.1389H28.1389H28.1389H28.1389H28.1389H28.1389L28.1389 17.7933L28.2414 17.9981C28.3156 17.961 28.3727 17.8992 28.4075 17.8366C28.4362 17.785 28.478 17.6783 28.4356 17.5611C28.4305 17.5407 28.4227 17.5106 28.4126 17.4712C28.2797 16.9544 27.7376 14.8466 27.3508 12.3583C27.1328 10.956 26.9671 9.44812 26.9563 8.06425C26.9456 6.68899 27.0883 5.46328 27.4645 4.58726C27.5369 4.48057 27.5224 4.35898 27.4876 4.28065C27.452 4.20056 27.3873 4.13564 27.3145 4.09923L27.2027 4.32266L27.3145 4.09923C27.2191 4.05156 27.1198 4.05867 27.0473 4.08284C26.9748 4.10701 26.8911 4.16092 26.8434 4.25625L26.8431 4.25611L26.8382 4.26742C26.4694 5.10612 26.3019 6.17945 26.2597 7.33683C26.2174 8.49777 26.3007 9.76194 26.4457 10.9932C26.6338 12.5902 26.9269 14.1406 27.1903 15.3521L22.264 6.90978L22.2602 6.90333L22.2561 6.89711C22.1987 6.81105 22.1147 6.75347 22.0179 6.73412C21.9273 6.716 21.8427 6.73462 21.778 6.76696L21.7641 6.77392L21.7511 6.78255C21.6651 6.83992 21.6075 6.92391 21.5881 7.02066C21.57 7.11127 21.5886 7.19594 21.621 7.26063L21.6246 7.26783L21.6286 7.27479L27.8006 17.8553Z" fill="#925AFF" stroke="#925AFF" stroke-width="0.5"/>
<path d="M16.7212 10.9469C16.8043 10.9989 16.9087 11.0158 17.0143 10.9816C17.2501 10.9088 17.5549 10.9077 17.9279 10.9841C18.2998 11.0604 18.7227 11.2104 19.1829 11.4208C20.1036 11.8417 21.1461 12.4916 22.1863 13.2254C23.5509 14.188 24.8975 15.2848 25.9394 16.1738C24.4473 15.5037 22.4132 14.6847 20.308 14.1357C18.7893 13.7396 17.2222 13.481 15.7884 13.5251C14.3555 13.5692 13.0325 13.9166 12.0302 14.7569L12.0218 14.7639L12.014 14.7717C11.9652 14.8205 11.9179 14.8911 11.9004 14.9786C11.8812 15.0747 11.9002 15.1923 11.9914 15.2835C12.0403 15.3323 12.1109 15.3796 12.1983 15.3971C12.2909 15.4156 12.4034 15.3986 12.493 15.3159C13.4858 14.4851 14.9158 14.2006 16.5513 14.2724C18.1853 14.3441 19.9848 14.77 21.6687 15.3135C23.3505 15.8564 24.9058 16.5128 26.0485 17.0383C26.6195 17.3009 27.0868 17.5304 27.4144 17.6962C27.5782 17.7791 27.707 17.846 27.7963 17.8931C27.8363 17.9142 27.8672 17.9307 27.8894 17.9426C27.9265 17.98 27.9675 17.9991 27.9966 18.0088C28.03 18.0199 28.0591 18.0226 28.0735 18.0235C28.0876 18.0245 28.1009 18.0245 28.1058 18.0244L28.1068 18.0244C28.2599 18.0244 28.3519 17.9295 28.389 17.8912C28.3918 17.8882 28.3944 17.8856 28.3966 17.8834L28.4253 17.8547L28.4434 17.8184C28.4691 17.767 28.4928 17.694 28.482 17.6078C28.4709 17.5189 28.4272 17.4474 28.374 17.3942L28.3741 17.3941L28.3678 17.3882L28.3617 17.3825C28.1519 17.1867 26.0493 15.2236 23.6338 13.4063C22.4139 12.4886 21.1061 11.6018 19.9171 10.9991C19.3226 10.6977 18.7503 10.4634 18.2282 10.3333C17.7092 10.204 17.2174 10.1719 16.7973 10.3009L16.7774 10.307L16.7588 10.3163C16.7107 10.3404 16.6456 10.3841 16.5993 10.4583C16.5468 10.5423 16.5301 10.6479 16.5657 10.7546L16.5713 10.7715L16.5792 10.7874C16.6033 10.8355 16.647 10.9006 16.7212 10.9469Z" fill="#925AFF" stroke="#925AFF" stroke-width="0.5"/>
<path d="M4.84068 27.122C4.8976 27.0841 4.94894 27.0229 4.97006 26.9429C7.46664 22.0228 13.1413 19.7727 18.295 18.7633C23.1666 17.8092 27.49 17.979 28.0294 18.0002C28.0603 18.0014 28.0788 18.0021 28.0842 18.0021C28.1769 18.0021 28.2567 17.9622 28.3077 17.9239C28.345 17.8959 28.4194 17.8288 28.4412 17.7226C28.4747 17.6106 28.4342 17.5102 28.3922 17.4514C28.3476 17.389 28.2883 17.3486 28.2412 17.3251L28.2205 17.3147L28.1981 17.3083C28.1074 17.2824 24.4468 16.3108 20.1305 16.1402C17.9719 16.0549 15.6385 16.1694 13.501 16.7086C11.3637 17.2477 9.40525 18.2161 8.02106 19.8514L8.00168 19.8743L7.98827 19.9011C7.92926 20.0191 7.91939 20.2096 8.05771 20.348L8.0864 20.3766L8.12268 20.3948C8.24071 20.4538 8.43119 20.4637 8.56952 20.3253L8.5769 20.318L8.58365 20.31C10.738 17.762 14.4685 16.9165 18.1433 16.8208C20.5333 16.7586 22.8683 17.0143 24.6679 17.3027C22.3538 17.4084 19.149 17.7208 15.9134 18.5816C11.3113 19.806 6.58995 22.1557 4.32602 26.6604L4.32579 26.6609C4.27812 26.7562 4.28523 26.8555 4.3094 26.928C4.32961 26.9887 4.37061 27.0571 4.43924 27.1058C4.43976 27.1063 4.44028 27.1068 4.4408 27.1072C4.4509 27.1163 4.47316 27.1356 4.50542 27.1517C4.54195 27.17 4.57593 27.1768 4.60153 27.1793C4.61914 27.1811 4.63657 27.181 4.63946 27.1809L4.63983 27.1809C4.69952 27.1809 4.77351 27.1668 4.84068 27.122Z" fill="#925AFF" stroke="#925AFF" stroke-width="0.5"/>
<path d="M0.75247 44.123L0.75 44.1404V44.158C0.75 44.2532 0.791968 44.3379 0.842942 44.3961C0.858253 44.4136 0.87644 44.4311 0.897354 44.4471L0.893314 44.4759H0.940879C0.988562 44.5027 1.04633 44.5211 1.11304 44.5211C1.21031 44.5211 1.28645 44.4774 1.32856 44.4437C1.34425 44.4311 1.39027 44.3931 1.41693 44.3291C1.42409 44.3119 1.44099 44.2651 1.43606 44.2067C2.90812 33.8749 10.057 27.321 15.8296 23.6373L15.8301 23.637C21.8375 19.7828 27.5939 18.1976 28.1439 18.0462C28.1457 18.0457 28.1475 18.0452 28.1493 18.0447C28.2617 18.031 28.3434 17.9639 28.3895 17.8902C28.4344 17.8183 28.4473 17.741 28.4473 17.6842C28.4473 17.5498 28.373 17.4532 28.2903 17.4015C28.2184 17.3566 28.1411 17.3438 28.0843 17.3438C28.0677 17.3438 28.0467 17.3459 28.0392 17.3467L28.0377 17.3468C28.0239 17.3482 28.0054 17.3502 27.9826 17.3528C27.9368 17.3581 27.8718 17.366 27.7888 17.3768C27.6227 17.3985 27.3837 17.4321 27.0809 17.48C26.4753 17.5757 25.6142 17.7285 24.5717 17.9571C22.4874 18.4143 19.6749 19.1756 16.7301 20.3922L16.7299 20.3922C11.3084 22.638 4.24026 26.9689 1.71556 34.8224C1.6382 35.0098 1.7464 35.2203 1.9383 35.2842C2.00877 35.3077 2.11111 35.3221 2.21394 35.2707C2.31677 35.2192 2.36668 35.1288 2.39019 35.0583L2.391 35.0558C4.82087 27.4987 11.6744 23.2647 17.0113 21.0578C19.263 20.1291 21.4288 19.4667 23.2432 19.0055C21.0373 19.9099 18.2873 21.22 15.4927 23.0125C9.60944 26.7606 2.25933 33.4836 0.75247 44.123Z" fill="#925AFF" stroke="#925AFF" stroke-width="0.5"/>
<path d="M10.7395 71.5618L10.7532 71.5824L10.7707 71.5999C10.8068 71.636 10.8485 71.6616 10.8809 71.6779C10.9055 71.6901 10.966 71.7184 11.038 71.7184H11.0381H11.0382H11.0383H11.0385H11.0386H11.0387H11.0389H11.039H11.0391H11.0393H11.0394H11.0395H11.0397H11.0398H11.0399H11.0401H11.0402H11.0403H11.0405H11.0406H11.0407H11.0409H11.041H11.0411H11.0413H11.0414H11.0415H11.0417H11.0418H11.0419H11.0421H11.0422H11.0423H11.0424H11.0426H11.0427H11.0428H11.043H11.0431H11.0432H11.0434H11.0435H11.0436H11.0438H11.0439H11.044H11.0442H11.0443H11.0444H11.0446H11.0447H11.0448H11.0449H11.0451H11.0452H11.0453H11.0455H11.0456H11.0457H11.0459H11.046H11.0461H11.0463H11.0464H11.0465H11.0466H11.0468H11.0469H11.047H11.0472H11.0473H11.0474H11.0476H11.0477H11.0478H11.0479H11.0481H11.0482H11.0483H11.0485H11.0486H11.0487H11.0488H11.049H11.0491H11.0492H11.0494H11.0495H11.0496H11.0497H11.0499H11.05H11.0501H11.0503H11.0504H11.0505H11.0506H11.0508H11.0509H11.051H11.0512H11.0513H11.0514H11.0515H11.0517H11.0518H11.0519H11.052H11.0522H11.0523H11.0524H11.0526H11.0527H11.0528H11.0529H11.0531H11.0532H11.0533H11.0534H11.0536H11.0537H11.0538H11.0539H11.0541H11.0542H11.0543H11.0544H11.0546H11.0547H11.0548H11.0549H11.055H11.0552H11.0553H11.0554H11.0555H11.0557H11.0558H11.0559H11.056H11.0562H11.0563H11.0564H11.0565H11.0566H11.0568H11.0569H11.057H11.0571H11.0573H11.0574H11.0575H11.0576H11.0577H11.0579H11.058H11.0581H11.0582H11.0583H11.0585H11.0586H11.0587H11.0588H11.0589H11.0591H11.0592H11.0593H11.0594H11.0595H11.0596H11.0598H11.0599H11.06H11.0601H11.0602H11.0603H11.0605H11.0606H11.0607H11.0608H11.0609H11.061H11.0612H11.0613H11.0614H11.0615H11.0616H11.0617H11.0618H11.062H11.0621H11.0622H11.0623H11.0624H11.0625H11.0626H11.0628H11.0629H11.063H11.0631H11.0632H11.0633H11.0634H11.0635H11.0637H11.0638H11.0639H11.064H11.0641H11.0642H11.0643H11.0644H11.0645H11.0646H11.0648H11.0649H11.065H11.0651H11.0652H11.0653H11.0654H11.0655H11.0656H11.0657H11.0658H11.0659H11.066H11.0662H11.0663H11.0664H11.0665H11.0666H11.0667H11.0668H11.0669H11.067H11.0671H11.0672H11.0673H11.0674H11.0675H11.0676H11.0677H11.0678H11.0679H11.068H11.0681H11.0682H11.0683H11.0684H11.0685H11.0686H11.0687H11.0688H11.0689H11.069H11.0691H11.0692H11.0693H11.0694H11.0695H11.0696H11.0697H11.0698H11.0699H11.07H11.0701H11.0702H11.0703H11.0704H11.0705H11.0706H11.0707H11.0708H11.0709H11.071H11.0711H11.0712H11.0712H11.0713H11.0714H11.0715H11.0716H11.0717H11.0718H11.0719H11.072H11.0721H11.0722H11.0723H11.0723H11.0724H11.0725H11.0726H11.0727H11.0728H11.0729H11.073H11.0731H11.0731H11.0732H11.0733H11.0734H11.0735H11.0736H11.0737H11.0737H11.0738H11.0739H11.074H11.0741H11.0742H11.0742H11.0743H11.0744H11.0745H11.0746H11.0747H11.0747H11.0748H11.0749H11.075H11.0751H11.0751H11.0752H11.0753H11.0754H11.0755H11.0755H11.0756H11.0757H11.0758H11.0758H11.0759H11.076H11.0761H11.0761H11.0762H11.0763H11.0764H11.0764H11.0765H11.0766H11.0767H11.0767H11.0768H11.0769H11.077H11.077H11.0771H11.0772H11.0772H11.0773H11.0774H11.0774H11.0775H11.0776H11.0776H11.0777H11.0778H11.0778H11.0779H11.078H11.078H11.0781H11.0782H11.0782H11.0783H11.0784H11.0784H11.0785H11.0786H11.0786H11.0787H11.0787H11.0788H11.0789H11.0789H11.079H11.079H11.0791H11.0792H11.0792H11.0793H11.0793H11.0794H11.0795H11.0795H11.0796H11.0796H11.0797H11.0797H11.0798H11.0798H11.0799H11.0799H11.08H11.0801H11.0801H11.0802H11.0802H11.0803H11.0803H11.0804H11.0804H11.0805H11.0805H11.0806H11.0806H11.0807H11.0807H11.0807H11.0808H11.0808H11.0809H11.0809H11.081H11.081H11.0811H11.0811H11.0812H11.0812H11.0812H11.0813H11.0813H11.0814H11.0814H11.0814H11.0815H11.0815H11.0816H11.0816H11.0816H11.0817H11.0817H11.0817H11.0818H11.0818H11.0819H11.0819H11.0819H11.082H11.082H11.082H11.0821H11.0821H11.0821H11.0821H11.0822H11.0822H11.0822H11.0823H11.0823H11.0823H11.0824H11.0824H11.0825H11.0825H11.0826H11.0826H11.0827H11.0827H11.0828H11.0828H11.0828H11.0829H11.0829H11.0829H11.083H11.083H11.083H11.0831H11.0831H11.0832H11.1867L11.2599 71.6452C11.3088 71.5963 11.356 71.5257 11.3735 71.4383C11.3917 71.3473 11.3757 71.2371 11.2966 71.1482C10.9658 70.7044 6.05904 64.0625 7.05903 54.0626L7.05904 54.0624C8.2507 42.0784 13.9626 32.8998 18.556 27.3157L18.5564 27.3152C21.044 24.2761 23.4753 21.9405 25.2896 20.3625C26.1966 19.5736 26.9491 18.9743 27.4769 18.5714C27.7408 18.3699 27.9484 18.2176 28.0909 18.1153C28.1621 18.0642 28.217 18.0257 28.2543 17.9998C28.273 17.9869 28.2869 17.9774 28.2961 17.9712L28.3016 17.9676C28.4132 17.9044 28.4517 17.7949 28.46 17.7203C28.4685 17.6434 28.4522 17.5669 28.421 17.5045C28.3733 17.4092 28.2896 17.3553 28.2171 17.3311C28.1446 17.307 28.0452 17.2999 27.9499 17.3475L27.9499 17.3475L27.9464 17.3493C11.8844 25.6979 5.80229 35.7412 3.54295 42.7246C2.3123 46.5079 2.03837 49.8196 2.07546 52.1934C2.094 53.3804 2.19032 54.3333 2.28384 54.994C2.3306 55.3244 2.37669 55.5819 2.41209 55.7594C2.42978 55.8481 2.44486 55.9171 2.45611 55.9655C2.4617 55.9896 2.4665 56.0093 2.47032 56.024C2.47219 56.0313 2.47412 56.0385 2.47599 56.045L2.47979 56.0574L2.48353 56.0682C2.48463 56.0711 2.48844 56.0814 2.49463 56.0938C2.5187 56.1419 2.56245 56.207 2.63661 56.2533C2.72059 56.3058 2.82623 56.3225 2.93295 56.2869L2.9498 56.2813L2.96568 56.2734C3.01382 56.2493 3.07888 56.2056 3.12523 56.1314C3.17409 56.0532 3.19197 55.9563 3.16551 55.8572L3.16273 55.8433L3.15185 55.7911C3.14271 55.7471 3.12963 55.6828 3.11379 55.5992C3.0821 55.4318 3.03925 55.1858 2.99519 54.8681C2.90705 54.2326 2.81401 53.3103 2.79582 52.1573C2.75944 49.8513 3.02245 46.6239 4.22196 42.9243C6.27118 36.6712 11.4576 27.8129 24.5712 20.0225C22.7644 21.6116 20.4137 23.8949 18.0115 26.8173L18.0113 26.8175C13.3583 32.492 7.56278 41.8066 6.35802 53.9678L6.35801 53.9679C5.83328 59.2722 6.91703 63.6534 8.13798 66.7172C8.74845 68.2491 9.39348 69.4523 9.88967 70.2781C10.383 71.0991 10.7399 71.5625 10.7395 71.5618ZM28.3076 17.9636C28.3075 17.9637 28.3066 17.9643 28.305 17.9653L28.3051 17.9652C28.307 17.964 28.3078 17.9636 28.3076 17.9636Z" fill="#925AFF" stroke="#925AFF" stroke-width="0.5"/>
<path d="M31.345 85.3359L31.3864 85.3509H31.4305H31.4306H31.4307H31.4309H31.431H31.4311H31.4313H31.4314H31.4315H31.4316H31.4318H31.4319H31.432H31.4321H31.4323H31.4324H31.4325H31.4326H31.4328H31.4329H31.433H31.4331H31.4333H31.4334H31.4335H31.4336H31.4337H31.4339H31.434H31.4341H31.4342H31.4343H31.4345H31.4346H31.4347H31.4348H31.4349H31.435H31.4351H31.4353H31.4354H31.4355H31.4356H31.4357H31.4358H31.4359H31.436H31.4362H31.4363H31.4364H31.4365H31.4366H31.4367H31.4368H31.4369H31.437H31.4371H31.4372H31.4373H31.4375H31.4376H31.4377H31.4378H31.4379H31.438H31.4381H31.4382H31.4383H31.4384H31.4385H31.4386H31.4387H31.4388H31.4389H31.439H31.4391H31.4392H31.4393H31.4394H31.4395H31.4396H31.4397H31.4398H31.4399H31.44H31.4401H31.4402H31.4403H31.4403H31.4404H31.4405H31.4406H31.4407H31.4408H31.4409H31.441H31.4411H31.4412H31.4413H31.4414H31.4415H31.4416H31.4416H31.4417H31.4418H31.4419H31.442H31.4421H31.4422H31.4423H31.4424H31.4424H31.4425H31.4426H31.4427H31.4428H31.4429H31.443H31.443H31.4431H31.4432H31.4433H31.4434H31.4435H31.4436H31.4436H31.4437H31.4438H31.4439H31.444H31.4441H31.4441H31.4442H31.4443H31.4444H31.4445H31.4445H31.4446H31.4447H31.4448H31.4449H31.4449H31.445H31.4451H31.4452H31.4453H31.4453H31.4454H31.4455H31.4456H31.4457H31.4457H31.4458H31.4459H31.446H31.446H31.4461H31.4462H31.4463H31.4463H31.4464H31.4465H31.4466H31.4466H31.4467H31.4468H31.4469H31.4469H31.447H31.4471H31.4472H31.4472H31.4473H31.4474H31.4475H31.4475H31.4476H31.4477H31.4477H31.4478H31.4479H31.448H31.448H31.4481H31.4482H31.4482H31.4483H31.4484H31.4485H31.4485H31.4486H31.4487H31.4487H31.4488H31.4489H31.449H31.449H31.4491H31.4492H31.4492H31.4493H31.4494H31.4494H31.4495H31.4496H31.4496H31.4497H31.4498H31.4499H31.4499H31.45H31.4501H31.4501H31.4502H31.4503H31.4503H31.4504H31.4505H31.4505H31.4506H31.4507H31.4507H31.4508H31.4509H31.4509H31.451H31.4511H31.4511H31.4512H31.4513H31.4513H31.4514H31.4515H31.4515H31.4516H31.4517H31.4517H31.4518H31.4519H31.4519H31.452H31.4521H31.4521H31.4522H31.4523H31.4523H31.4524H31.4525H31.4525H31.4526H31.4527H31.4527H31.4528H31.4529H31.4529H31.453H31.4531H31.4531H31.4532H31.4533H31.4533H31.4534H31.4535H31.4535H31.4536H31.4537H31.4537H31.4538H31.4539H31.4539H31.454H31.4541H31.4541H31.4542H31.4543H31.4543H31.4544H31.4545H31.4545H31.4546H31.4547H31.4547H31.4548H31.4549H31.4549H31.455H31.4551H31.4551H31.4552H31.4553H31.4553H31.4554H31.4555H31.4555H31.4556H31.4557H31.4557H31.4558H31.4559H31.4559H31.456H31.4561H31.4562H31.4562H31.4563H31.4564H31.4564H31.4565H31.4566H31.4566H31.4567H31.4568H31.4568H31.4569H31.457H31.457H31.4571H31.4572H31.4573H31.4573H31.4574H31.4575H31.4575H31.4576H31.4577H31.4578H31.4578H31.4579H31.458H31.458H31.4581H31.4582H31.4583H31.4583H31.4584H31.4585H31.4585H31.4586H31.4587H31.4588H31.4588H31.4589H31.459H31.4591H31.4591H31.4592H31.4593H31.4594H31.4594H31.4595H31.4596H31.4597H31.4597H31.4598H31.4599H31.46H31.46H31.4601H31.4602H31.4603H31.4603H31.4604H31.4605H31.4606H31.4606H31.4607H31.4608H31.4609H31.461H31.461H31.4611H31.4612H31.4613H31.4614H31.4614H31.4615H31.4616H31.4617H31.4618H31.4618H31.4619H31.462H31.4621H31.4622H31.4623H31.4623H31.4624H31.4625H31.4626H31.4627H31.4628H31.4628H31.4629H31.463H31.4631H31.4632H31.4633H31.4634H31.4634H31.4635H31.4636H31.4637H31.4638H31.4639H31.464H31.4641H31.4641H31.4642H31.4643H31.4644H31.4645H31.4646H31.4647H31.4648H31.4649H31.465H31.465H31.4651H31.4652H31.4653H31.4654H31.4655H31.4656H31.4657H31.4658H31.4659H31.466H31.4661H31.4662H31.4663H31.4664H31.4665H31.4666H31.4667H31.4668H31.4669H31.467H31.4671H31.4672H31.4673H31.4674H31.4675H31.4676H31.4677H31.4678H31.4679H31.468H31.4681H31.4682H31.4683H31.4684H31.4685H31.4686H31.4687H31.4688H31.4689H31.469H31.4691H31.4692H31.4693H31.4694H31.4696H31.4697H31.4698H31.4699H31.47H31.4701H31.4702H31.4703H31.4704H31.4705H31.4707H31.4708H31.4709H31.471H31.4711H31.4712H31.4713H31.4715H31.4716H31.4717H31.4718H31.4719H31.472H31.4722H31.4723H31.4724H31.4725H31.4726H31.4728H31.4729H31.473H31.4731H31.4733H31.4734H31.4735H31.4736H31.4737H31.4739H31.474H31.4741H31.4743H31.4744H31.4745H31.4746H31.4748H31.4749H31.475H31.4752H31.4753H31.4754H31.4755H31.4757C31.5915 85.3509 31.6992 85.2988 31.7655 85.2325L31.7942 85.2038L31.8123 85.1675C31.8775 85.0373 31.8302 84.9146 31.7988 84.858C31.764 84.7954 31.7069 84.7336 31.6327 84.6965L31.6197 84.69L31.606 84.685C23.8564 81.8791 20.2256 74.2963 18.5356 68.3927L18.5356 68.3927C16.3778 60.8629 16.1961 51.6584 18.0197 43.148C21.5187 26.8785 28.1888 18.1744 28.3931 17.9078C28.3954 17.9048 28.3969 17.9028 28.3975 17.902L28.4111 17.8839L28.4211 17.8638C28.4802 17.7458 28.49 17.5553 28.3517 17.417C28.2105 17.2758 27.988 17.2741 27.845 17.412C27.8175 17.4368 27.769 17.4845 27.711 17.5424C27.6319 17.6215 27.5194 17.7359 27.377 17.8845C27.0922 18.1818 26.6873 18.6165 26.1908 19.1798C25.1977 20.3063 23.8374 21.9476 22.337 24.0322C19.3369 28.2006 15.7729 34.1472 13.4679 41.3006L13.4678 41.301C11.0392 48.8817 10.2415 56.7209 11.2658 63.3901C12.4272 70.9731 15.8706 76.9851 21.2489 80.7614L21.2489 80.7614L21.2539 80.7648C21.327 80.8135 21.4244 80.8479 21.5344 80.8234C21.631 80.8019 21.6956 80.743 21.7276 80.7109L21.7451 80.6934L21.7588 80.6728C21.8076 80.5997 21.8419 80.5023 21.8175 80.3923C21.796 80.2957 21.737 80.2311 21.705 80.1991L21.6894 80.1835L21.6713 80.1709C15.6761 75.9843 12.7838 69.4917 11.8994 62.4478C11.0148 55.4017 12.1436 47.8259 14.1699 41.5216C17.0904 32.4378 22.0804 25.3191 25.2896 21.3727C22.9441 25.479 19.5013 32.7593 17.3048 42.9978L17.3047 42.998C15.4659 51.6018 15.646 60.9128 17.8288 68.5752L17.8289 68.5759C19.5528 74.5642 23.2696 82.3994 31.345 85.3359ZM31.4748 84.8509H31.4746H31.4757H31.4755H31.4754H31.4753H31.4752H31.475H31.4749H31.4748Z" fill="#925AFF" stroke="#925AFF" stroke-width="0.5"/>
<path d="M47.0997 87.137L47.0796 87.1337C42.7485 86.4254 38.6843 82.6101 35.2902 76.5846C31.8895 70.5474 29.1297 62.2379 27.4309 52.43L27.4308 52.4299C24.9916 38.3324 26.2467 26.4325 27.1286 20.8908C25.1362 26.1489 21.613 37.7107 22.3201 52.4658L22.3201 52.466C22.7711 62.0263 24.8226 70.2826 28.1896 76.3433C31.1988 81.7554 35.1966 85.218 39.3993 86.1913L39.4107 86.1939L39.4219 86.1976C39.4975 86.2228 39.5738 86.2704 39.6255 86.3532C39.6741 86.4309 39.6833 86.5118 39.6833 86.5705V86.611L39.6705 86.6495C39.6453 86.7251 39.5977 86.8014 39.5149 86.8531C39.4373 86.9017 39.3563 86.9109 39.2976 86.9109H39.2695L39.2421 86.9046C34.7853 85.8886 30.6442 82.252 27.5495 76.7225L27.549 76.7217C24.1112 70.529 22.048 62.1687 21.572 52.5353L21.572 52.5343C20.6424 32.0602 27.7149 17.6601 27.7927 17.5045C27.8404 17.4092 27.9241 17.3553 27.9966 17.3311C28.0691 17.307 28.1684 17.2999 28.2638 17.3475M47.0997 87.137L28.2638 17.3475M47.0997 87.137H47.12C47.21 87.137 47.2884 87.107 47.3473 87.065C47.3763 87.0442 47.4048 87.0175 47.4283 86.9846C47.4475 86.9578 47.483 86.8994 47.483 86.8192C47.483 86.7623 47.4701 86.685 47.4252 86.6132C47.377 86.5359 47.2896 86.466 47.1688 86.4571C43.2639 85.8141 39.3642 82.3279 35.9435 76.2743C32.5025 70.157 29.7968 61.8893 28.1496 52.3448L28.1496 52.3447C26.481 42.705 26.5486 34.096 27.0391 27.8774C27.2843 24.7684 27.6351 22.2577 27.9273 20.5155C28.0733 19.6444 28.2047 18.9655 28.3008 18.5001C28.3488 18.2674 28.3881 18.0882 28.4159 17.965C28.4298 17.9035 28.4408 17.856 28.4486 17.8231C28.4547 17.7974 28.4582 17.7833 28.4596 17.7779C28.4597 17.7774 28.4598 17.777 28.4599 17.7767C28.4599 17.7767 28.4599 17.7767 28.4599 17.7766C28.4915 17.6731 28.4743 17.5711 28.4233 17.4895C28.3769 17.4153 28.3119 17.3716 28.2638 17.3475M47.0997 87.137L28.2638 17.3475" fill="#925AFF" stroke="#925AFF" stroke-width="0.5"/>
</svg>
